<?xml version="1.0" encoding="UTF-8"?>
<svg id="Layer_1" data-name="Layer 1" xmlns="http://www.w3.org/2000/svg" viewBox="0 0 900 200">
  <defs>
    <style>
      .cls-1 {
        fill: #fff;
        opacity: .9;
      }

      .cls-2 {
        fill: #18376c;
      }
    </style>
  </defs>
  <rect class="cls-1" width="900" height="200"/>
  <g>
    <g>
      <path class="cls-2" d="m256.49,41.83c-1.03.61-2.19.78-3.38.77-2.88-.04-5.76-.06-8.64-.13-2.89-.07-2.79.14-2.74,3.04.07,4.14.15,8.28.25,12.41.03,1.18.27,1.38,1.48,1.35,1.89-.05,3.78-.14,5.66-.2,1-.03,1.98.12,2.87.61,1.91,1.04,2.03,3.41.24,4.63-.68.46-1.45.73-2.27.8-1.52.13-3.04.27-4.57.39-.72.06-1.44.07-2.15.12-.53.04-.79.38-.83.88-.03.36-.03.72-.01,1.08.2,4.22.4,8.69.62,12.92,0,0,.05.34.1.93.07.76.15,2.18.17,3.62.04,2.58-.58,3.06-.9,3.21-.34.16-1.35.31-1.35.31-2.3.01-3.54-.85-3.83-3.12-.31-2.41-.5-5.08-.62-7.51-.3-5.75-.53-11.75-.89-19.79-.34-4.18-.15-10.66-.33-17.14,0-.36-.02-.72.02-1.08.21-2.04,1.67-3.48,3.7-3.6.89-.05,1.8.03,2.7.05,3.24.06,6.48-.14,9.72-.05,1.17.03,2.33.16,3.49.32.52.07,1.05.28,1.5.55,1.84,1.11,1.83,3.55-.02,4.64Z"/>
      <path class="cls-2" d="m290.56,87.35c-.84.75-1.65.87-2.71,1.07-1.15.21-2.4.11-3.73.09-2.79-.03-5.33-.07-8.27-.11-.45,0-.94-.03-1.38-.03-2.3.01-3.54-.85-3.83-3.12-.31-2.41-.5-4.83-.62-7.26-.3-5.75-.53-11.75-.89-19.79-.34-4.18-.15-10.66-.33-17.14,0-.36-.02-.72.02-1.08.21-2.04,1.67-3.48,3.7-3.6.89-.05,1.8.03,2.7.05,3.24.06,6.48.1,9.72.2,1.17.03,2.33.16,3.49.32.52.07,1.05.28,1.5.55,1.84,1.11,1.83,3.55-.02,4.64-1.03.61-2.19.78-3.38.76-2.88-.04-5.76-.06-8.64-.13-2.88-.07-2.79-.11-2.74,2.79.07,4.14.15,8.28.25,12.41.03,1.18.27,1.38,1.48,1.35,1.89-.05,3.78-.14,5.66-.2,1-.03,1.98.12,2.87.61,1.91,1.04,2.03,3.41.24,4.63-.68.46-1.44.73-2.27.8-1.52.13-3.04.27-4.57.39-.72.06-1.44.07-2.15.12-.53.04-.79.38-.83.88-.03.36-.03.72,0,1.08.2,4.22.4,8.69.62,12.92.06,1.21.25,2.32,1.53,2.18,2.59-.28,5.18-.1,7.78-.34.98-.09,1.98-.07,2.96.03.91.09,1.4.42,1.81.84,1.21,1.24,1.33,2.92.04,4.08Z"/>
      <path class="cls-2" d="m331.33,83.46c-.05.71-.09,1.45-.29,2.13-.42,1.47-1.26,2.61-2.87,2.9-1.6.28-2.82-.41-3.69-1.7-.55-.82-1.01-1.7-1.42-2.6-2.13-4.66-4.22-11.57-6.36-16.23-1.57-3.43-3.15-6.86-4.78-10.27-.66-1.38-1.23-2.68-1.95-4.03-.17-.31-1.44-2.86-1.44-2.86,0,0,.13,2.77.13,3.17-.11,6.48-.11,12.96.18,19.43.13,2.97.25,5.93.35,8.9.03.9,0,1.8-.03,2.7-.02.73-.22,1.42-.61,2.05-1.09,1.79-3.23,1.87-4.44.13-.69-.99-.93-2.13-.99-3.32-.16-2.78-.35-5.57-.45-8.35-.36-9.17-.27-18.35-.19-27.53.01-1.62-.04-5.96-.02-7.58.01-.71.05-1.45.24-2.13.38-1.35,1.81-2.38,3.08-2.08,1.74.41,2.77.92,3.77,2.65.31.54.65,1.08.96,1.62,4.12,7.29,8.63,17.47,11.99,25.14.54,1.23,1.1,2.46,1.65,3.7.14.32.64,1.62,1,2.61,0-.64,0-2.98-.03-3.51-.45-7.28-.84-18.28-.73-25.57.01-.99.09-1.98.19-2.96.05-.53.16-1.08.33-1.58.51-1.5,1.66-2.34,2.99-2.26,1.22.08,2.15.93,2.6,2.39.3.97.23,1.96.21,2.95-.14,6.57.31,16.85.51,23.42.08,2.52.15,5.04.25,7.55.12,2.97.05,8.17-.15,11.13Z"/>
      <path class="cls-2" d="m369.37,85.93c-.48.39-1.03.76-1.61.96-2.46.88-4.99,1.61-7.61,1.66-3.11.05-6.06-.79-8.73-2.41-3.57-2.17-6.18-5.17-7.71-9.09-.66-1.68-1.16-3.42-1.45-5.19-1.25-7.85-.86-16.59,1.58-24.19.77-2.41,1.88-4.67,3.44-6.68,4.97-6.43,11.88-5.17,16.06-.7.99,1.05,1.85,2.21,2.53,3.48,2.06,3.87,3.13,9.76,3.43,14.11.05.7-.04,1.45-.23,2.13-.37,1.35-1.74,2.27-3.06,2.18s-2.38-.99-2.71-2.28c-.13-.52-.12-1.07-.17-1.6-.25-2.7-.88-7.05-1.82-9.59-.54-1.45-1.32-2.75-2.33-3.92-.53-.62-1.14-1.13-1.88-1.51-1.35-.68-2.63-.63-3.75.39-.66.6-1.24,1.31-1.75,2.04-.88,1.26-1.45,2.68-1.91,4.15-1.28,4.07-1.9,8.23-1.8,12.49.02,2.88.08,6.74.75,9.57.68,2.86,1.81,5.46,4.08,7.44,2.83,2.46,6.04,3.47,9.75,2.53.96-.24,1.92-.49,2.89-.66.98-.18,1.98-.25,2.94.04,1,.3,1.77.89,1.98,1.99.21,1.06-.1,1.98-.93,2.66Z"/>
      <path class="cls-2" d="m410.22,87.37c-.36.26-.78.45-1.2.59-.51.16-1.05.29-1.58.33-4.76.32-15.96.59-20.65-.7-.96-.27-1.89-.57-2.74-1.1-2.15-1.36-2.95-3.38-2.19-5.81.32-1.02.78-2.01,1.27-2.97,2.96-5.76,5.87-11.55,8.96-17.24,3.14-5.78,6.07-9.79,9.14-15.6.24-.46.49-1.29.63-2.04-1.2-.2-2.1-.22-3.08-.25-5.1-.13-9.14-.39-12.99.36-.62.06-1.26.15-1.88.07-1.36-.17-2.37-1.17-2.58-2.4-.22-1.31.32-2.57,1.51-3.19.62-.33,1.34-.58,2.03-.67,6.52-.75,13.05-.04,19.62-.21.72-.02,1.45-.02,2.15.1,2.51.43,3.66,2.27,2.96,4.75-.24.86-.62,1.69-1.01,2.5-3.35,6.87-6.9,11.79-10.49,18.54-2.62,4.92-5.21,9.87-7.79,14.81-.66,1.27-1.25,2.58-1.86,3.83.53.79,1.26.9,1.94.94,1.79.11,10.03.17,11.83.19,1.98.02,3.96-.06,5.92.36.71.15,1.4.33,2,.75,1.52,1.07,1.57,3,.07,4.09Z"/>
      <path class="cls-2" d="m429.32,84.49c-.06.62-.12,1.26-.3,1.86-.42,1.37-1.48,2.18-2.74,2.21-1.37.02-2.54-.86-2.9-2.35-.19-.77-.19-1.6-.2-2.41-.02-1.89.05-3.78,0-5.67-.13-4.95-.31-9.89-.48-15.14,0-6.18-.2-14.88-.48-21.36-.04-.9-.07-1.81.07-2.69.26-1.58,1.51-2.64,2.95-2.68,1.46-.03,2.66.94,3.01,2.58.19.87.23,1.78.26,2.68.22,8.37.42,18.96.63,27.32.08,3.06.17,6.12.29,9.17.09,2.16.08,4.32-.12,6.47Z"/>
      <path class="cls-2" d="m468.64,88.06c-1.13.67-2.55.44-3.69-.67-.45-.43-.87-.93-1.16-1.47-2.46-4.54-7.32-10.15-10.45-14.2-1.7-2.21-3.31-4.48-4.97-6.72-.27-.36-.55-.71-.86-1.04-.1-.11-.53-.68-.66-.76-.14.25-.16.92-.17,1.16-.02.72,0,1.44.03,2.16.3,4.85.61,9.69.91,14.54.07,1.17.15,2.33.19,3.5.03.92-.19,1.8-.64,2.59-.99,1.74-3.29,1.91-4.51.32-.32-.42-.56-.93-.71-1.43-.2-.68-.36-1.4-.4-2.11-.47-8.17-1.41-16.31-1.14-24.51,0-5.49,0-12.71,0-18.19,0-.9,0-1.8.32-2.66.49-1.34,1.51-2.16,2.78-2.19,1.36-.04,2.49.85,2.98,2.3.27.79.24,1.59.23,2.4-.03,2.43-.06,6.59-.09,9.02,0,.45,0,.9.06,1.34.02.14.01.76.13.87.16.14.51-.17.76-.49.44-.45.78-.93,1.2-1.4,3.36-3.75,6.8-8.17,9.84-12.2.22-.29.44-.57.7-.82,1.11-1.05,2.5-1.23,3.71-.49,1.16.71,1.68,2.14,1.3,3.52-.27.98-.84,1.79-1.47,2.55-1.43,1.74-2.85,3.48-4.34,5.16-2.2,2.5-4.45,5.69-6.68,8.16-1.14,1.25-1.19,1.29-.13,2.7,3.39,4.54,6.79,9.07,10.25,13.55,1.99,2.57,5.35,6.92,6.9,9.78.38.71.77,1.44.99,2.2.43,1.53-.09,2.89-1.21,3.55Z"/>
      <path class="cls-2" d="m526.62,55.62c-.07,1.16-.02,2.35-.23,3.49-.27,1.44-1.51,2.35-2.9,2.36-1.51,0-2.67-.97-2.98-2.58-.12-.61-.11-1.25-.15-1.88-.12-1.88-.22-3.77-.38-5.65-.13-1.62-.5-3.19-1.21-4.67-.47-.99-1.12-1.84-1.99-2.52-2.2-1.74-5.25-2.13-7.66.68-3.35,3.91-3.24,8.4-.14,12.87.61.88,1.19,1.6,1.85,2.45,1.89,2.42,3.34,4.67,5.38,6.7,1.72,1.72,4.37,4.86,5.71,6.9.79,1.21,1.48,2.47,1.86,3.87,1.62,5.88-2.29,10.97-8.4,10.92-2.21-.02-4.26-.67-6.09-1.91-2.24-1.52-4.18-3.4-6.03-5.37-.55-.59-.97-1.28-1.22-2.08-.33-1.04-.14-1.96.59-2.75.76-.81,1.72-.94,2.73-.65.96.28,1.79.84,2.54,1.5,1.02.89,2,1.81,3.02,2.69.61.53,1.24,1.04,1.91,1.5.84.57,1.79.8,2.81.75,1.74-.08,2.63-1.25,2.08-2.92-.28-.84-.74-1.64-1.23-2.39-1.13-1.74-2.14-3.69-3.62-5.14-2.38-2.68-4.83-6.02-7.08-8.21-2.38-2.32-3.97-5.08-4.8-8.3-1.63-6.27.1-11.59,4.79-15.89,3.25-2.98,7.12-3.69,11.29-2.13,2.97,1.11,5.27,3.04,6.83,5.83.97,1.74,1.7,3.59,1.97,5.56.32,2.31.72,4.62.72,6.98Z"/>
      <path class="cls-2" d="m564.7,40.99c-1.24.8-2.68.99-4.12,1.14-1.52.16-3.05.24-4.57.4-1.53.16-1.58.22-1.6,1.85-.02,2.16,0,4.56-.02,6.72-.04,4.22-.09,6.96-.15,11.19-.09,6.57.34,13.12.78,19.66.1,1.53.2,3.06-.29,4.54-.37,1.09-1.03,1.89-2.26,2.03-1.22.14-2.2-.42-2.8-1.67-.56-1.15-.76-2.39-.84-3.66-.42-6.73-.86-13.46-.62-20.21,0-6.02,0-10.81,0-16.83,0-.72,0-1.44-.03-2.16-.05-.84-.35-1.66-1.17-1.61-1.7.1-3.4.26-5.1.41-.45.04-.89.19-1.33.19-1.33,0-2.43-.81-2.87-2.06-.44-1.24-.06-2.3.81-3.21.51-.53,1.15-.87,1.88-.97,1.15-.17,2.31-.4,3.47-.46,5.21-.28,10.41-.03,15.62-.25,1.16-.05,2.34.03,3.5.12.52.04,1.07.21,1.53.46,1.88,1.01,1.97,3.17.18,4.34Z"/>
      <path class="cls-2" d="m606.36,62.86c-.36,4.66-.75,9.33-1.87,13.89-.41,1.66-.89,3.3-1.59,4.86-.71,1.58-1.64,3-2.88,4.2-1.98,1.91-4.38,2.83-7.1,2.73-1.34-.05-2.69-.27-3.99-.58-4.77-1.13-7.9-4.05-9.41-8.74-.78-2.41-1.23-4.88-1.49-7.39-.37-3.58-.61-7.17-.65-10.77-.02-1.71-.13-3.42-.2-5.12-.02,0-.04,0-.06,0-.06-3.6-.14-11.65-.18-15.25,0-.72-.01-1.45.14-2.15.34-1.56,1.62-2.52,3.11-2.44,1.41.07,2.47.96,2.77,2.5.17.87.19,1.79.21,2.68.23,7.38.21,19.21.78,26.58.17,2.15.44,4.29.72,6.43.11.8.34,1.58.58,2.36,1.16,3.75,3.36,5.42,7.29,5.67,1.71.11,2.96-.55,3.91-1.91.74-1.04,1.17-2.22,1.54-3.43.76-2.5,1.2-5.08,1.52-7.67.64-5.18.93-10.39.84-15.62-.05-2.97-.07-9.9-.12-12.87-.01-1,.06-1.98.47-2.91.47-1.07,1.26-1.75,2.47-1.79,1.2-.04,2.06.54,2.62,1.57.48.89.69,1.87.7,2.86.07,6.12.34,16.2-.13,22.31Z"/>
      <path class="cls-2" d="m644.28,66.25c-.01,2.8-.28,6.3-1.28,8.95-1.79,4.76-4.89,8.32-9.53,10.48-2.79,1.3-5.75,2.05-8.74,2.65-1.05.21-2.14.31-3.21.07-1.16-.26-1.94-1.02-2.08-2.19-.27-2.22-.52-4.45-.7-6.69-.69-8.86-.71-18.51-.97-27.41-.11-3.68-.13-7.37-.26-11.05-.05-1.46.38-2.61,1.46-3.59,1.17-1.06,2.48-1.44,3.98-.99,2.32.71,4.66,1.35,6.86,2.4,4.36,2.09,7.72,5.23,9.96,9.51,2.93,5.58,4.5,11.52,4.52,17.85Zm-10.71-16.04c-1.8-3.05-4.57-5.01-7.84-6.27-.48-.18-1-.44-1.55-.18-.37.47-.27,1.02-.26,1.55.28,11.83.17,24.42,1.31,36.41,2.04-.34,3.66-.84,5.22-1.52,3.32-1.43,5.52-3.9,6.73-7.29.46-1.28.74-3.34.82-4.68.38-6.46-1.16-12.47-4.44-18.02Z"/>
      <path class="cls-2" d="m662.27,84.49c-.06.62-.12,1.26-.3,1.86-.42,1.37-1.48,2.18-2.74,2.21-1.37.02-2.54-.86-2.9-2.35-.19-.77-.19-1.6-.2-2.41-.02-1.89.05-3.78,0-5.67-.13-4.95-.31-9.89-.48-15.14,0-6.18-.2-14.88-.48-21.36-.04-.9-.07-1.81.07-2.69.26-1.58,1.51-2.64,2.95-2.68,1.46-.03,2.66.94,3.01,2.58.19.87.23,1.78.26,2.68.22,8.37.42,18.96.63,27.32.08,3.06.17,6.12.29,9.17.09,2.16.08,4.32-.12,6.47Z"/>
      <path class="cls-2" d="m701.16,76.74c-.36,1.77-.9,3.49-1.74,5.08-4.03,7.67-11.98,8.63-18.14,3.62-2.91-2.37-4.9-5.46-6.11-9.05-1.28-3.79-1.82-8.93-1.85-12.91-.04-4.43.59-8.78,1.97-13,1.76-5.39,4.91-9.75,9.56-13.01,1.07-.75,2.27-1.08,3.56-1.03,3.81.17,6.94,1.65,9.18,4.83,1.58,2.25,2.41,4.81,3.05,7.44,1.16,4.83,1.57,9.75,1.53,14.71.04,4.05-.2,9.32-1,13.31Zm-5.25-13.09c-.07-2.16-.09-4.32-.23-6.47-.08-1.34-.3-2.68-.51-4.01-.34-2.23-.86-4.42-1.73-6.5-.56-1.34-1.29-2.57-2.64-3.3-.75-.4-1.46-.51-2.31-.2-1.5.54-2.66,1.47-3.67,2.65-1.67,1.94-2.79,4.19-3.57,6.6-2.06,6.41-2.29,14.12-.58,20.65.67,2.58,1.9,4.84,3.74,6.77.69.72,1.43,1.36,2.36,1.77,2.65,1.17,4.53.98,6.56-1.76.53-.71.88-1.57,1.18-2.41.33-.93.53-1.9.72-2.87.64-3.19.63-7.67.69-10.91Z"/>
      <path class="cls-2" d="m739.22,55.62c-.07,1.16-.02,2.35-.23,3.49-.27,1.44-1.51,2.35-2.9,2.36-1.51,0-2.67-.97-2.98-2.58-.12-.61-.11-1.25-.15-1.88-.12-1.88-.22-3.77-.38-5.65-.13-1.62-.5-3.19-1.21-4.67-.47-.99-1.12-1.84-1.99-2.52-2.2-1.74-5.25-2.13-7.66.68-3.35,3.91-3.24,8.4-.14,12.87.61.88,1.19,1.6,1.85,2.45,1.89,2.42,3.34,4.67,5.38,6.7,1.72,1.72,4.37,4.86,5.71,6.9.79,1.21,1.48,2.47,1.86,3.87,1.62,5.88-2.29,10.97-8.4,10.92-2.21-.02-4.26-.67-6.09-1.91-2.24-1.52-4.18-3.4-6.03-5.37-.55-.59-.97-1.28-1.22-2.08-.33-1.04-.14-1.96.59-2.75.76-.81,1.72-.94,2.73-.65.96.28,1.79.84,2.54,1.5,1.02.89,2,1.81,3.02,2.69.61.53,1.24,1.04,1.91,1.5.84.57,1.79.8,2.81.75,1.74-.08,2.63-1.25,2.08-2.92-.28-.84-.74-1.64-1.23-2.39-1.13-1.74-2.14-3.69-3.62-5.14-2.38-2.68-4.83-6.02-7.08-8.21-2.38-2.32-3.97-5.08-4.8-8.3-1.63-6.27.1-11.59,4.79-15.89,3.25-2.98,7.12-3.69,11.29-2.13,2.97,1.11,5.27,3.04,6.83,5.83.97,1.74,1.7,3.59,1.97,5.56.32,2.31.72,4.62.72,6.98Z"/>
    </g>
    <g>
      <path class="cls-2" d="m264.14,112.38c-.44.28-.95.35-1.45.4-.54.06-1.08.08-1.61.14-.54.06-.56.08-.56.65,0,.76,0,1.61,0,2.37-.01,1.49-.03,2.46-.05,3.95-.03,2.32.12,4.63.27,6.94.04.54.07,1.08-.1,1.6-.13.39-.36.67-.8.72-.43.05-.78-.15-.99-.59-.2-.4-.27-.84-.3-1.29-.15-2.37-.3-4.75-.22-7.13,0-2.12,0-3.81,0-5.94,0-.25,0-.51-.01-.76-.02-.3-.12-.58-.41-.57-.6.04-1.2.09-1.8.15-.16.01-.31.07-.47.07-.47,0-.86-.29-1.01-.73-.15-.44-.02-.81.29-1.13.18-.19.41-.31.67-.34.41-.06.81-.14,1.22-.16,1.84-.1,3.67,0,5.51-.09.41-.02.82,0,1.23.04.18.02.38.07.54.16.66.36.7,1.12.06,1.53Z"/>
      <path class="cls-2" d="m278.45,112.32c-.06,2.29-.11,4.66-.17,6.94l-.05,6.96c0,.41-.01.83-.04,1.24-.02.25-.06.51-.13.75-.18.62-.61.97-1.06.92-.46-.06-.82-.46-.91-1.09-.05-.38-.05-.76-.05-1.14,0-1.17.02-3.4.03-4.57,0-.22,0-.45-.01-.67-.01-.18-.13-.29-.3-.31-.6-.07-1.2-.17-1.8-.17-.92,0-1.84.07-2.76.11-.47.03-.52.07-.53.58-.02,1.02,0,3.08,0,4.1,0,.38.03,1.03.02,1.41-.01.32-.05.64-.12.94-.13.51-.49.83-.91.85-.43.02-.81-.25-.98-.75-.08-.24-.13-.49-.16-.74-.03-.19-.02-.38-.03-.57-.04-2.95-.02-7.22.1-10.17.06-1.52.09-3.05.13-4.57,0-.32,0-.63.11-.94.17-.46.56-.76.99-.76.43,0,.84.29,1.01.74.11.27.11.56.1.84-.02.89-.05,1.78-.07,2.67-.03,1.11-.07,2.22-.11,3.33,0,.19,0,.38.02.57.01.14.11.23.25.24.16,0,.32,0,.47,0,.7-.02,1.4-.04,2.09-.06.7-.02,1.4,0,2.09.14.29.05.4-.05.42-.35.01-.16,0-.32.01-.48.05-1.94.11-3.96.16-5.9,0-.25.01-.51.07-.76.14-.59.63-.96,1.17-.91.51.05.89.45.95,1.03.02.19,0,.38,0,.57Z"/>
      <path class="cls-2" d="m289.99,128.74c-.29.27-.58.31-.96.38-.41.08-.85.04-1.32.03-.98,0-1.88-.02-2.92-.04-.16,0-.33,0-.49,0-.81,0-1.25-.3-1.35-1.1-.11-.85-.18-1.71-.22-2.56-.11-2.03-.19-4.15-.31-6.98-.12-1.47-.05-3.76-.12-6.05,0-.13,0-.25,0-.38.08-.72.59-1.23,1.31-1.27.32-.02.63.01.95.02,1.14.02,2.29.04,3.43.07.41.01.82.06,1.23.11.18.03.37.1.53.19.65.39.65,1.25,0,1.64-.36.22-.77.28-1.19.27-1.02-.01-2.03-.02-3.05-.05-1.02-.03-.98-.04-.96.99.02,1.46.05,2.92.09,4.38.01.42.1.49.52.48.67-.02,1.33-.05,2-.07.35-.01.7.04,1.01.21.67.37.72,1.2.08,1.63-.24.16-.51.26-.8.28-.54.05-1.08.09-1.61.14-.25.02-.51.02-.76.04-.19.01-.28.13-.29.31-.01.13,0,.25,0,.38.07,1.49.14,3.07.22,4.56.02.43.09.82.54.77.92-.1,1.83-.04,2.75-.12.34-.03.7-.02,1.04.01.32.03.49.15.64.3.43.44.47,1.03.02,1.44Z"/>
      <path class="cls-2" d="m310.9,125c-.13.62-.32,1.23-.61,1.79-1.42,2.71-4.23,3.05-6.4,1.28-1.03-.84-1.73-1.93-2.16-3.19-.45-1.34-.64-3.15-.65-4.55-.01-1.56.21-3.1.7-4.59.62-1.9,1.73-3.44,3.37-4.59.38-.27.8-.38,1.25-.36,1.35.06,2.45.58,3.24,1.71.56.79.85,1.7,1.08,2.62.41,1.71.55,3.44.54,5.19.01,1.43-.07,3.29-.35,4.7Zm-1.85-4.62c-.03-.76-.03-1.52-.08-2.28-.03-.47-.11-.95-.18-1.42-.12-.79-.3-1.56-.61-2.29-.2-.47-.46-.91-.93-1.17-.27-.14-.52-.18-.82-.07-.53.19-.94.52-1.3.93-.59.68-.99,1.48-1.26,2.33-.73,2.26-.81,4.98-.21,7.28.24.91.67,1.71,1.32,2.39.24.25.51.48.83.62.93.41,1.6.35,2.31-.62.19-.25.31-.55.42-.85.12-.33.19-.67.25-1.01.23-1.13.22-2.71.24-3.85Z"/>
      <path class="cls-2" d="m322.53,112.68c-.36.21-.77.28-1.19.27-1.02-.01-2.03-.02-3.05-.05-1.02-.02-.98.05-.97,1.07.02,1.46.05,2.92.09,4.38.01.42.1.49.52.48.67-.02,1.33-.05,2-.07.35-.01.7.04,1.01.21.67.37.72,1.2.08,1.63-.24.16-.51.26-.8.28-.54.05-1.07.09-1.61.14-.25.02-.51.02-.76.04-.19.01-.28.13-.29.31-.01.13,0,.25,0,.38.07,1.49.14,3.07.22,4.56,0,0,.02.12.04.33.02.27.05.77.06,1.28.01.91-.21,1.08-.32,1.13-.12.06-.48.11-.48.11-.81,0-1.25-.3-1.35-1.1-.11-.85-.18-1.79-.22-2.65-.1-2.03-.19-4.15-.31-6.98-.12-1.47-.05-3.76-.12-6.05,0-.13,0-.25,0-.38.08-.72.59-1.23,1.31-1.27.32-.02.63.01.95.02,1.14.02,2.29-.05,3.43-.02.41.01.82.05,1.23.11.18.03.37.1.53.2.65.39.65,1.25,0,1.64Z"/>
      <path class="cls-2" d="m334.32,112.68c-.36.21-.77.28-1.19.27-1.02-.01-2.03-.02-3.05-.05-1.02-.02-.98.05-.96,1.07.02,1.46.05,2.92.09,4.38.01.42.1.49.52.48.67-.02,1.33-.05,2-.07.35-.01.7.04,1.01.21.67.37.72,1.2.08,1.63-.24.16-.51.26-.8.28-.54.05-1.07.09-1.61.14-.25.02-.51.02-.76.04-.19.01-.28.13-.29.31-.01.13,0,.25,0,.38.07,1.49.14,3.07.22,4.56,0,0,.02.12.04.33.02.27.05.77.06,1.28.01.91-.21,1.08-.32,1.13-.12.06-.47.11-.47.11-.81,0-1.25-.3-1.35-1.1-.11-.85-.18-1.79-.22-2.65-.11-2.03-.19-4.15-.31-6.98-.12-1.47-.05-3.76-.12-6.05,0-.13,0-.25,0-.38.07-.72.59-1.23,1.3-1.27.32-.02.63.01.95.02,1.14.02,2.29-.05,3.43-.02.41.01.82.05,1.23.11.18.03.37.1.53.2.65.39.65,1.25,0,1.64Z"/>
      <path class="cls-2" d="m341.17,127.73c-.02.22-.04.45-.11.66-.15.48-.52.77-.97.78-.48,0-.9-.3-1.02-.83-.07-.27-.07-.57-.07-.85,0-.67.02-1.33,0-2-.05-1.75-.11-3.49-.17-5.34,0-2.18-.07-5.25-.17-7.54-.01-.32-.03-.64.03-.95.09-.56.53-.93,1.04-.94.51-.01.94.33,1.06.91.07.31.08.63.09.94.08,2.95.15,6.69.22,9.64.03,1.08.06,2.16.1,3.24.03.76.03,1.52-.04,2.28Z"/>
      <path class="cls-2" d="m354.56,128.24c-.17.14-.36.27-.57.34-.87.31-1.76.57-2.68.58-1.1.02-2.14-.28-3.08-.85-1.26-.76-2.18-1.83-2.72-3.21-.23-.59-.41-1.21-.51-1.83-.44-2.77-.3-5.85.56-8.53.27-.85.66-1.65,1.21-2.36,1.75-2.27,4.19-1.82,5.67-.25.35.37.65.78.89,1.23.73,1.36,1.1,3.44,1.21,4.98.02.25-.01.51-.08.75-.13.48-.62.8-1.08.77-.45-.03-.84-.35-.95-.8-.05-.18-.04-.38-.06-.57-.09-.95-.31-2.49-.64-3.38-.19-.51-.47-.97-.82-1.38-.19-.22-.4-.4-.66-.53-.48-.24-.93-.22-1.32.14-.23.21-.44.46-.62.72-.31.45-.51.95-.67,1.46-.45,1.43-.67,2.9-.63,4.41,0,1.02.03,2.38.27,3.38.24,1.01.64,1.93,1.44,2.63,1,.87,2.13,1.22,3.44.89.34-.09.68-.17,1.02-.23.34-.06.7-.09,1.04.01.35.11.62.31.7.7.07.37-.04.7-.33.94Z"/>
      <path class="cls-2" d="m361.28,127.73c-.02.22-.04.45-.11.66-.15.48-.52.77-.97.78-.48,0-.9-.3-1.02-.83-.07-.27-.07-.57-.07-.85,0-.67.02-1.33,0-2-.05-1.75-.11-3.49-.17-5.34,0-2.18-.07-5.25-.17-7.54-.01-.32-.03-.64.03-.95.09-.56.53-.93,1.04-.94.51-.01.94.33,1.06.91.07.31.08.63.09.94.08,2.95.15,6.69.22,9.64.03,1.08.06,2.16.1,3.24.03.76.03,1.52-.04,2.28Z"/>
      <path class="cls-2" d="m375.31,128.64c-.28.53-.88.68-1.37.34-.27-.19-.44-.46-.54-.76-.14-.42-.26-1.02-.37-1.45-.27-1.11-.54-2.83-.8-3.94-.22-.93-.24-.82-.99-.8-.79.02-1.58.06-2.38.11-.38.02-.41.05-.5.44-.11.5-.2,1.61-.3,2.1-.21,1.03-.42,2.05-.63,3.08-.04.19-.09.37-.15.55-.23.65-.73.95-1.32.8-.54-.13-.83-.59-.79-1.31,0-.06.03-.19.05-.31.67-3.36,1.22-7.35,1.68-9.52.35-1.68.75-3.34,1.3-4.97.12-.36.25-.72.4-1.07.1-.23.22-.46.37-.66.53-.69,1.37-.73,1.99-.12.32.32.52.72.67,1.14.33.93.66,1.85.94,2.79.9,2.96,1.78,7.75,2.75,11.91.06.28.09.74.12,1.02.02.22-.04.44-.14.64Zm-3.97-8.87c-.07-.89-.84-4.19-1.29-5.06-.47,1.21-1.03,4.25-1.03,5.11.77.06,1.55.04,2.32-.05Z"/>
      <path class="cls-2" d="m389.03,128.09c-.02.42-.38.8-.86.9-.25.05-.5.05-.76.05-.92,0-1.84,0-2.76,0v.03c-.63.03-1.27.06-1.9.08-.29.01-.57.02-.86.01-1.26,0-1.67-.35-1.8-1.58-.12-1.2-.23-2.4-.29-3.6-.16-3.17-.43-7.64-.46-10.81,0-.32-.04-.63-.04-.95,0-.19-.02-.38.01-.57.07-.49.41-.82.86-.89.46-.07.87.15,1.11.57.16.29.19.6.21.92.05,1.17.1,2.34.15,3.52.12,3.01.31,7.33.54,10.33,0,.09.01.19.02.28.05.51.09.56.56.55.95-.02,1.9-.05,2.85-.1.7-.03,1.39-.05,2.09.05.25.04.5.07.73.21.39.23.62.55.6,1Z"/>
      <path class="cls-2" d="m407.39,117.28c-.36,1.46-1.25,2.47-2.62,3.06-.88.38-1.8.62-2.76.7-.16.01-.32.03-.47.05-.14.02-.23.11-.24.25-.02.25-.03.51-.02.76.06,1.68.13,3.36.19,5.04.01.35.02.7-.03,1.04-.07.55-.44.91-.91.96-.45.05-.89-.26-1.09-.77-.12-.3-.13-.62-.14-.94l-.27-7.52c-.05-2.41-.11-4.83-.16-7.24,0-.13,0-.25,0-.38.06-.89.69-1.52,1.6-1.57,2.25-.12,4.2.58,5.75,2.24,1.14,1.22,1.57,2.66,1.16,4.31Zm-2.4-2.3c-.81-1.23-1.99-1.93-3.49-1.99-.28-.01-.39.1-.39.41,0,.82,0,1.65,0,2.47v2.69c0,.25.25.32.49.3.83-.06,1.64-.22,2.39-.58,1.26-.6,1.77-2.13,1-3.3Z"/>
      <path class="cls-2" d="m421.22,125c-.13.62-.32,1.23-.61,1.79-1.42,2.71-4.23,3.05-6.4,1.28-1.03-.84-1.73-1.93-2.16-3.19-.45-1.34-.64-3.15-.65-4.55-.01-1.56.21-3.1.7-4.59.62-1.9,1.73-3.44,3.37-4.59.38-.27.8-.38,1.25-.36,1.35.06,2.45.58,3.24,1.71.56.79.85,1.7,1.08,2.62.41,1.71.55,3.44.54,5.19.01,1.43-.07,3.29-.35,4.7Zm-1.85-4.62c-.03-.76-.03-1.52-.08-2.28-.03-.47-.11-.95-.18-1.42-.12-.79-.3-1.56-.61-2.29-.2-.47-.46-.91-.93-1.17-.27-.14-.52-.18-.82-.07-.53.19-.94.52-1.3.93-.59.68-.99,1.48-1.26,2.33-.73,2.26-.81,4.98-.21,7.28.24.91.67,1.71,1.32,2.39.24.25.51.48.83.62.93.41,1.6.35,2.31-.62.19-.25.31-.55.42-.85.12-.33.19-.67.25-1.01.23-1.13.22-2.71.24-3.85Z"/>
      <path class="cls-2" d="m435.42,128.93c-.33.28-.7.27-1.08.13-.4-.15-.7-.44-.97-.76-.79-.92-1.68-1.9-2.54-2.75-.81-.8-1.66-1.57-2.63-2.19-.13-.08-.24-.21-.57-.16.03.74.06,1.47.1,2.19.04.73.09,1.46.11,2.19,0,.28-.01.58-.09.85-.11.39-.38.66-.8.72-.42.06-.8-.15-1.02-.55-.14-.26-.2-.53-.23-.82-.04-.47-.11-.95-.13-1.42-.12-2.76-.25-5.52-.13-8.28.07-1.71.06-3.69.09-5.4,0-.25-.01-.51.02-.76.12-.82.62-1.24,1.43-1.19.35.02.69.1,1.03.19,1.59.42,3.02,1.15,4.15,2.39,1.26,1.38,1.77,3.25,1.39,5.09-.3,1.46-1.1,2.54-2.51,3.12-.29.12-.63.14-.86.37-.01.24.2.3.33.41,1.62,1.39,3.16,3.03,4.57,4.62.23.26.45.54.57.87.16.45.08.88-.22,1.14Zm-5.34-9.41c.76-.26,1.19-.83,1.33-1.6.17-.95-.01-2.09-.63-2.86-.69-.87-1.58-1.45-2.63-1.81-.23-.08-.38.02-.38.25l-.13,2.95c0,.57,0,1.4,0,1.97.01,1.9-.36,1.76,1.71,1.31.25-.05.49-.14.73-.22Z"/>
      <path class="cls-2" d="m448.23,112.38c-.44.28-.95.35-1.45.4-.54.06-1.08.08-1.61.14-.54.06-.56.08-.56.65,0,.76,0,1.61,0,2.37-.01,1.49-.03,2.46-.05,3.95-.03,2.32.12,4.63.27,6.94.04.54.07,1.08-.1,1.6-.13.39-.36.67-.8.72-.43.05-.78-.15-.99-.59-.2-.4-.27-.84-.3-1.29-.15-2.37-.3-4.75-.22-7.13v-5.94c0-.25,0-.51-.01-.76-.02-.3-.12-.58-.41-.57-.6.04-1.2.09-1.8.15-.16.01-.31.07-.47.07-.47,0-.86-.29-1.01-.73-.15-.44-.02-.81.29-1.13.18-.19.41-.31.67-.34.41-.06.81-.14,1.22-.16,1.84-.1,3.67,0,5.51-.09.41-.02.83,0,1.23.04.18.02.38.07.54.16.67.36.7,1.12.06,1.53Z"/>
      <path class="cls-2" d="m459.99,112.68c-.36.21-.77.28-1.19.27-1.02-.01-2.03-.02-3.05-.05-1.02-.02-.98.05-.97,1.07.02,1.46.05,2.92.09,4.38.01.42.1.49.52.48.67-.02,1.33-.05,2-.07.35-.01.7.04,1.01.21.67.37.72,1.2.08,1.63-.24.16-.51.26-.8.28-.54.05-1.07.09-1.61.14-.25.02-.51.02-.76.04-.19.01-.28.13-.29.31-.01.13,0,.25,0,.38.07,1.49.14,3.07.22,4.56,0,0,.02.12.04.33.02.27.05.77.06,1.28.01.91-.21,1.08-.32,1.13-.12.06-.48.11-.48.11-.81,0-1.25-.3-1.35-1.1-.11-.85-.18-1.79-.22-2.65-.1-2.03-.19-4.15-.31-6.98-.12-1.47-.05-3.76-.12-6.05,0-.13,0-.25,0-.38.08-.72.59-1.23,1.31-1.27.32-.02.63.01.95.02,1.14.02,2.29-.05,3.43-.02.41.01.82.05,1.23.11.18.03.37.1.53.2.65.39.65,1.25,0,1.64Z"/>
      <path class="cls-2" d="m474.15,125c-.13.62-.32,1.23-.61,1.79-1.42,2.71-4.23,3.05-6.4,1.28-1.03-.84-1.73-1.93-2.16-3.19-.45-1.34-.64-3.15-.65-4.55-.01-1.56.21-3.1.7-4.59.62-1.9,1.73-3.44,3.37-4.59.38-.27.8-.38,1.25-.36,1.35.06,2.45.58,3.24,1.71.56.79.85,1.7,1.08,2.62.41,1.71.55,3.44.54,5.19.01,1.43-.07,3.29-.35,4.7Zm-1.85-4.62c-.03-.76-.03-1.52-.08-2.28-.03-.47-.11-.95-.18-1.42-.12-.79-.3-1.56-.61-2.29-.2-.47-.46-.91-.93-1.17-.27-.14-.52-.18-.82-.07-.53.19-.94.52-1.3.93-.59.68-.99,1.48-1.26,2.33-.73,2.26-.81,4.98-.21,7.28.24.91.67,1.71,1.32,2.39.24.25.51.48.83.62.93.41,1.6.35,2.31-.62.19-.25.31-.55.42-.85.12-.33.19-.67.25-1.01.23-1.13.22-2.71.24-3.85Z"/>
      <path class="cls-2" d="m488.06,128.09c-.02.42-.38.8-.86.9-.25.05-.5.05-.76.05-.92,0-1.84,0-2.76,0v.03c-.63.03-1.27.06-1.9.08-.29.01-.57.02-.86.01-1.26,0-1.67-.35-1.8-1.58-.12-1.2-.23-2.4-.29-3.6-.16-3.17-.43-7.64-.46-10.81,0-.32-.04-.63-.04-.95,0-.19-.02-.38.01-.57.07-.49.41-.82.86-.89.46-.07.87.15,1.11.57.16.29.19.6.21.92.05,1.17.1,2.34.15,3.52.12,3.01.31,7.33.54,10.33,0,.09.01.19.02.28.05.51.09.56.56.55.95-.02,1.9-.05,2.85-.1.7-.03,1.39-.05,2.09.05.25.04.5.07.73.21.39.23.62.55.6,1Z"/>
      <path class="cls-2" d="m493.51,127.73c-.02.22-.04.45-.11.66-.15.48-.52.77-.97.78-.48,0-.9-.3-1.02-.83-.07-.27-.07-.57-.07-.85,0-.67.02-1.33,0-2-.05-1.75-.11-3.49-.17-5.34,0-2.18-.07-5.25-.17-7.54-.01-.32-.03-.64.03-.95.09-.56.53-.93,1.04-.94.51-.01.94.33,1.06.91.07.31.08.63.09.94.08,2.95.15,6.69.22,9.64.03,1.08.06,2.16.1,3.24.03.76.03,1.52-.04,2.28Z"/>
      <path class="cls-2" d="m507.23,125c-.13.62-.32,1.23-.61,1.79-1.42,2.71-4.23,3.05-6.4,1.28-1.03-.84-1.73-1.93-2.16-3.19-.45-1.34-.64-3.15-.65-4.55-.01-1.56.21-3.1.7-4.59.62-1.9,1.73-3.44,3.37-4.59.38-.27.8-.38,1.26-.36,1.34.06,2.45.58,3.24,1.71.56.79.85,1.7,1.07,2.62.41,1.71.55,3.44.54,5.19.01,1.43-.07,3.29-.35,4.7Zm-1.85-4.62c-.02-.76-.03-1.52-.08-2.28-.03-.47-.11-.95-.18-1.42-.12-.79-.3-1.56-.61-2.29-.2-.47-.46-.91-.93-1.17-.27-.14-.52-.18-.82-.07-.53.19-.94.52-1.3.93-.59.68-.99,1.48-1.26,2.33-.73,2.26-.81,4.98-.21,7.28.24.91.67,1.71,1.32,2.39.24.25.51.48.83.62.93.41,1.6.35,2.31-.62.18-.25.31-.55.42-.85.12-.33.19-.67.25-1.01.23-1.13.22-2.71.24-3.85Z"/>
      <path class="cls-2" d="m528.15,125c-.13.62-.32,1.23-.61,1.79-1.42,2.71-4.23,3.05-6.4,1.28-1.03-.84-1.73-1.93-2.16-3.19-.45-1.34-.64-3.15-.65-4.55-.01-1.56.21-3.1.7-4.59.62-1.9,1.73-3.44,3.37-4.59.38-.27.8-.38,1.25-.36,1.35.06,2.45.58,3.24,1.71.56.79.85,1.7,1.08,2.62.41,1.71.55,3.44.54,5.19.01,1.43-.07,3.29-.35,4.7Zm-1.85-4.62c-.02-.76-.03-1.52-.08-2.28-.03-.47-.11-.95-.18-1.42-.12-.79-.3-1.56-.61-2.29-.2-.47-.45-.91-.93-1.17-.26-.14-.52-.18-.82-.07-.53.19-.94.52-1.29.93-.59.68-.99,1.48-1.26,2.33-.73,2.26-.81,4.98-.21,7.28.24.91.67,1.71,1.32,2.39.24.25.51.48.83.62.93.41,1.6.35,2.31-.62.19-.25.31-.55.42-.85.12-.33.19-.67.25-1.01.23-1.13.22-2.71.24-3.85Z"/>
      <path class="cls-2" d="m539.79,112.68c-.36.21-.77.28-1.19.27-1.02-.01-2.03-.02-3.05-.05-1.02-.02-.98.05-.96,1.07.02,1.46.05,2.92.09,4.38.01.42.1.49.52.48.67-.02,1.33-.05,2-.07.35-.01.7.04,1.01.21.67.37.72,1.2.08,1.63-.24.16-.51.26-.8.28-.54.05-1.07.09-1.61.14-.25.02-.51.02-.76.04-.19.01-.28.13-.29.31-.01.13,0,.25,0,.38.07,1.49.14,3.07.22,4.56,0,0,.02.12.04.33.02.27.05.77.06,1.28.01.91-.21,1.08-.32,1.13-.12.06-.48.11-.48.11-.81,0-1.25-.3-1.35-1.1-.11-.85-.18-1.79-.22-2.65-.11-2.03-.19-4.15-.31-6.98-.12-1.47-.05-3.76-.12-6.05,0-.13,0-.25,0-.38.08-.72.59-1.23,1.31-1.27.32-.02.63.01.95.02,1.14.02,2.29-.05,3.43-.02.41.01.82.05,1.23.11.18.03.37.1.53.2.65.39.65,1.25,0,1.64Z"/>
      <path class="cls-2" d="m560.27,117.54c-.02.41,0,.83-.08,1.23-.09.51-.53.83-1.02.83-.53,0-.94-.34-1.05-.91-.04-.22-.04-.44-.05-.66-.04-.67-.08-1.33-.13-1.99-.05-.57-.18-1.13-.43-1.65-.17-.35-.4-.65-.7-.89-.78-.61-1.85-.75-2.7.24-1.18,1.38-1.14,2.96-.05,4.54.21.31.42.56.65.86.67.85,1.18,1.65,1.9,2.36.61.61,1.54,1.72,2.01,2.43.28.43.52.87.66,1.37.57,2.08-.81,3.87-2.96,3.85-.78,0-1.5-.24-2.15-.67-.79-.54-1.48-1.2-2.13-1.9-.2-.21-.34-.45-.43-.73-.12-.37-.05-.69.21-.97.27-.29.61-.33.96-.23.34.1.63.3.89.53.36.31.71.64,1.07.95.22.19.44.37.67.53.3.2.63.28.99.27.61-.03.93-.44.74-1.03-.1-.3-.26-.58-.43-.84-.4-.61-.75-1.3-1.28-1.81-.84-.95-1.7-2.12-2.5-2.9-.84-.82-1.4-1.79-1.69-2.93-.57-2.21.04-4.09,1.69-5.61,1.15-1.05,2.51-1.3,3.98-.75,1.05.39,1.86,1.07,2.41,2.06.34.62.6,1.27.7,1.96.11.82.25,1.63.25,2.46Z"/>
      <path class="cls-2" d="m573.71,112.38c-.44.28-.95.35-1.45.4-.54.06-1.08.08-1.61.14-.54.06-.56.08-.56.65,0,.76,0,1.61,0,2.37-.01,1.49-.03,2.46-.05,3.95-.03,2.32.12,4.63.27,6.94.04.54.07,1.08-.1,1.6-.13.39-.36.67-.8.72-.43.05-.78-.15-.99-.59-.2-.4-.27-.84-.3-1.29-.15-2.37-.3-4.75-.22-7.13,0-2.12,0-3.81,0-5.94,0-.25,0-.51-.01-.76-.02-.3-.12-.58-.41-.57-.6.04-1.2.09-1.8.15-.16.01-.31.07-.47.07-.47,0-.86-.29-1.01-.73-.15-.44-.02-.81.29-1.13.18-.19.41-.31.67-.34.41-.06.81-.14,1.22-.16,1.84-.1,3.67,0,5.51-.09.41-.02.82,0,1.23.04.18.02.38.07.54.16.66.36.7,1.12.06,1.53Z"/>
      <path class="cls-2" d="m585.7,128.74c-.29.27-.58.31-.96.38-.41.08-.85.04-1.32.03-.98,0-1.88-.02-2.92-.04-.16,0-.33,0-.49,0-.81,0-1.25-.3-1.35-1.1-.11-.85-.18-1.71-.22-2.56-.11-2.03-.19-4.15-.31-6.98-.12-1.47-.05-3.76-.12-6.05,0-.13,0-.25,0-.38.07-.72.59-1.23,1.31-1.27.32-.02.63.01.95.02,1.14.02,2.29.04,3.43.07.41.01.82.06,1.23.11.18.03.37.1.53.19.65.39.65,1.25,0,1.64-.36.22-.77.28-1.19.27-1.02-.01-2.03-.02-3.05-.05-1.02-.03-.98-.04-.97.99.02,1.46.05,2.92.09,4.38.01.42.1.49.52.48.67-.02,1.33-.05,2-.07.35-.01.7.04,1.01.21.67.37.72,1.2.08,1.63-.24.16-.51.26-.8.28-.54.05-1.07.09-1.61.14-.25.02-.51.02-.76.04-.19.01-.28.13-.29.31-.01.13,0,.25,0,.38.07,1.49.14,3.07.22,4.56.02.43.09.82.54.77.92-.1,1.83-.04,2.74-.12.35-.03.7-.02,1.04.01.32.03.49.15.64.3.43.44.47,1.03.02,1.44Z"/>
      <path class="cls-2" d="m600.55,112.41c-.21,1.41-.52,2.81-.86,4.19-.46,1.88-.88,5.86-1.51,7.7-.35,1.02-.74,2.03-1.23,2.99-.23.45-.48.9-.83,1.27-.78.85-1.84.78-2.5-.17-.28-.39-.44-.84-.59-1.29-.62-1.9-1.17-3.82-1.67-5.76-.51-2.03-.94-6.09-1.31-8.15-.07-.37-.11-.75-.16-1.13-.03-.22,0-.44.07-.66.14-.39.41-.64.82-.7.45-.07.81.1,1.06.48.18.27.21.59.27.9.62,3.73,1.49,9.41,2.61,13.02.08.27.18.54.29.85.34-.23.38-.49.48-.72.56-1.32.99-2.68,1.34-4.06.58-2.34,1.2-6.77,1.57-9.15.04-.25.12-.5.23-.72.21-.4.56-.6,1.01-.57.46.04.74.32.9.74.11.31.07.62.02.94Z"/>
      <path class="cls-2" d="m612.11,128.74c-.29.27-.58.31-.96.38-.41.08-.85.04-1.32.03-.98,0-1.88-.02-2.92-.04-.16,0-.33,0-.49,0-.81,0-1.25-.3-1.35-1.1-.11-.85-.18-1.71-.22-2.56-.11-2.03-.19-4.15-.31-6.98-.12-1.47-.05-3.76-.12-6.05,0-.13,0-.25,0-.38.07-.72.59-1.23,1.31-1.27.32-.02.63.01.95.02,1.14.02,2.29.04,3.43.07.41.01.82.06,1.23.11.18.03.37.1.53.19.65.39.65,1.25,0,1.64-.36.22-.77.28-1.19.27-1.02-.01-2.03-.02-3.05-.05-1.02-.03-.98-.04-.97.99.02,1.46.05,2.92.09,4.38.01.42.1.49.52.48.67-.02,1.33-.05,2-.07.35-.01.7.04,1.01.21.67.37.72,1.2.08,1.63-.24.16-.51.26-.8.28-.54.05-1.07.09-1.61.14-.25.02-.51.02-.76.04-.19.01-.28.13-.29.31-.01.13,0,.25,0,.38.07,1.49.14,3.07.22,4.56.02.43.09.82.54.77.92-.1,1.83-.04,2.74-.12.35-.03.7-.02,1.04.01.32.03.49.15.64.3.43.44.47,1.03.02,1.44Z"/>
      <path class="cls-2" d="m626.49,127.37c-.02.25-.03.51-.1.75-.15.52-.45.92-1.01,1.02-.56.1-1-.15-1.3-.6-.19-.29-.36-.6-.5-.92-.75-1.64-1.49-4.08-2.24-5.73-.55-1.21-1.11-2.42-1.68-3.63-.23-.49-.43-.94-.69-1.42-.06-.11-.51-1.01-.51-1.01,0,0,.05.98.04,1.12-.04,2.29-.04,4.57.06,6.86.05,1.05.09,2.09.12,3.14.01.32,0,.63-.01.95,0,.26-.08.5-.21.72-.39.63-1.14.66-1.57.05-.24-.35-.33-.75-.35-1.17-.05-.98-.12-1.96-.16-2.95-.13-3.24-.1-6.47-.07-9.71,0-.57-.02-2.1,0-2.68,0-.25.02-.51.09-.75.14-.48.64-.84,1.09-.73.62.14.98.32,1.33.94.11.19.23.38.34.57,1.45,2.57,3.04,6.17,4.23,8.87.19.44.39.87.58,1.3.05.11.23.57.35.92,0-.23,0-1.05,0-1.24-.16-2.57-.3-6.45-.26-9.02,0-.35.03-.7.07-1.04.02-.19.05-.38.12-.56.18-.53.59-.83,1.06-.8.43.03.76.33.92.84.11.34.08.69.08,1.04-.05,2.32.11,5.95.18,8.26.03.89.05,1.78.09,2.67.04,1.05.02,2.88-.05,3.93Z"/>
      <path class="cls-2" d="m644.77,112.68c-.36.21-.77.28-1.19.27-1.02-.01-2.03-.02-3.05-.05-1.02-.02-.98.05-.96,1.07.02,1.46.05,2.92.09,4.38.01.42.1.49.52.48.67-.02,1.33-.05,2-.07.35-.01.7.04,1.01.21.67.37.72,1.2.08,1.63-.24.16-.51.26-.8.28-.54.05-1.07.09-1.61.14-.25.02-.51.02-.76.04-.19.01-.28.13-.29.31-.01.13,0,.25,0,.38.07,1.49.14,3.07.22,4.56,0,0,.02.12.04.33.02.27.05.77.06,1.28.01.91-.21,1.08-.32,1.13-.12.06-.48.11-.48.11-.81,0-1.25-.3-1.35-1.1-.11-.85-.18-1.79-.22-2.65-.11-2.03-.19-4.15-.31-6.98-.12-1.47-.05-3.76-.12-6.05,0-.13,0-.25,0-.38.08-.72.59-1.23,1.31-1.27.32-.02.63.01.95.02,1.14.02,2.29-.05,3.43-.02.41.01.82.05,1.23.11.18.03.37.1.53.2.65.39.65,1.25,0,1.64Z"/>
      <path class="cls-2" d="m656.78,128.74c-.29.27-.58.31-.96.38-.41.08-.85.04-1.32.03-.98,0-1.88-.02-2.92-.04-.16,0-.33,0-.49,0-.81,0-1.25-.3-1.35-1.1-.11-.85-.18-1.71-.22-2.56-.11-2.03-.19-4.15-.31-6.98-.12-1.47-.05-3.76-.12-6.05,0-.13,0-.25,0-.38.07-.72.59-1.23,1.31-1.27.32-.02.63.01.95.02,1.14.02,2.29.04,3.43.07.41.01.82.06,1.23.11.18.03.37.1.53.19.65.39.65,1.25,0,1.64-.36.22-.77.28-1.19.27-1.02-.01-2.03-.02-3.05-.05-1.02-.03-.98-.04-.97.99.02,1.46.05,2.92.09,4.38.01.42.1.49.52.48.67-.02,1.33-.05,2-.07.35-.01.7.04,1.01.21.67.37.72,1.2.08,1.63-.24.16-.51.26-.8.28-.54.05-1.07.09-1.61.14-.25.02-.51.02-.76.04-.19.01-.28.13-.29.31-.01.13,0,.25,0,.38.07,1.49.14,3.07.22,4.56.02.43.09.82.54.77.92-.1,1.83-.04,2.74-.12.35-.03.7-.02,1.04.01.32.03.49.15.64.3.43.44.47,1.03.02,1.44Z"/>
      <path class="cls-2" d="m671.17,127.37c-.02.25-.03.51-.1.75-.15.52-.44.92-1.01,1.02-.56.1-1-.15-1.3-.6-.19-.29-.36-.6-.5-.92-.75-1.64-1.49-4.08-2.24-5.73-.55-1.21-1.11-2.42-1.68-3.63-.23-.49-.43-.94-.69-1.42-.06-.11-.51-1.01-.51-1.01,0,0,.05.98.04,1.12-.04,2.29-.04,4.57.06,6.86.05,1.05.09,2.09.12,3.14.01.32,0,.63-.01.95,0,.26-.08.5-.21.72-.39.63-1.14.66-1.57.05-.24-.35-.33-.75-.35-1.17-.05-.98-.12-1.96-.16-2.95-.13-3.24-.1-6.47-.07-9.71,0-.57-.02-2.1,0-2.68,0-.25.02-.51.09-.75.14-.48.64-.84,1.09-.73.62.14.98.32,1.33.94.11.19.23.38.34.57,1.45,2.57,3.04,6.17,4.23,8.87.19.44.39.87.58,1.3.05.11.23.57.35.92,0-.23,0-1.05,0-1.24-.16-2.57-.3-6.45-.26-9.02,0-.35.03-.7.07-1.04.02-.19.05-.38.12-.56.18-.53.59-.83,1.06-.8.43.03.76.33.92.84.11.34.08.69.08,1.04-.05,2.32.11,5.95.18,8.26.03.89.05,1.78.09,2.67.04,1.05.02,2.88-.05,3.93Z"/>
      <path class="cls-2" d="m684.59,128.24c-.17.14-.36.27-.57.34-.87.31-1.76.57-2.68.58-1.1.02-2.14-.28-3.08-.85-1.26-.76-2.18-1.83-2.72-3.21-.23-.59-.41-1.21-.51-1.83-.44-2.77-.3-5.85.56-8.53.27-.85.66-1.65,1.21-2.36,1.75-2.27,4.19-1.82,5.67-.25.35.37.65.78.89,1.23.73,1.36,1.1,3.44,1.21,4.98.02.25-.01.51-.08.75-.13.48-.62.8-1.08.77-.45-.03-.84-.35-.96-.8-.05-.18-.04-.38-.06-.57-.09-.95-.31-2.49-.64-3.38-.19-.51-.47-.97-.82-1.38-.19-.22-.4-.4-.66-.53-.48-.24-.93-.22-1.32.14-.23.21-.44.46-.62.72-.31.45-.51.95-.67,1.46-.45,1.43-.67,2.9-.63,4.41,0,1.02.03,2.38.27,3.38.24,1.01.64,1.93,1.44,2.63,1,.87,2.13,1.22,3.44.89.34-.09.68-.17,1.02-.23.34-.06.7-.09,1.04.01.35.11.62.31.7.7.07.37-.04.7-.33.94Z"/>
      <path class="cls-2" d="m699,128.74c-.13.09-.28.16-.42.21-.18.06-.37.1-.56.12-1.68.11-5.63.21-7.28-.25-.34-.09-.67-.2-.97-.39-.76-.48-1.04-1.19-.77-2.05.11-.36.28-.71.45-1.05,1.05-2.03,2.07-4.08,3.16-6.08,1.11-2.04,2.14-3.45,3.22-5.5.09-.16.17-.45.22-.72-.42-.07-.74-.08-1.09-.09-1.8-.05-3.23-.14-4.58.13-.22.02-.45.05-.66.03-.48-.06-.84-.41-.91-.85-.08-.46.11-.91.53-1.13.22-.12.47-.21.72-.23,2.3-.26,4.6-.01,6.92-.08.25,0,.51,0,.76.04.89.15,1.29.8,1.04,1.68-.09.3-.22.6-.36.88-1.18,2.42-2.43,4.16-3.7,6.54-.92,1.74-1.84,3.48-2.75,5.22-.23.45-.44.91-.65,1.35.19.28.44.32.68.33.63.04,3.54.06,4.17.07.7,0,1.4-.02,2.09.12.25.05.5.12.71.26.54.38.55,1.06.03,1.44Z"/>
      <path class="cls-2" d="m705.74,127.73c-.02.22-.04.45-.11.66-.15.48-.52.77-.97.78-.48,0-.9-.3-1.02-.83-.07-.27-.07-.57-.07-.85,0-.67.02-1.33,0-2-.05-1.75-.11-3.49-.17-5.34,0-2.18-.07-5.25-.17-7.54-.01-.32-.03-.64.03-.95.09-.56.53-.93,1.04-.94.51-.01.94.33,1.06.91.07.31.08.63.09.94.08,2.95.15,6.69.22,9.64.03,1.08.06,2.16.1,3.24.03.76.03,1.52-.04,2.28Z"/>
      <path class="cls-2" d="m719.61,128.99c-.4.24-.9.15-1.3-.24-.16-.15-.31-.33-.41-.52-.87-1.6-2.58-3.58-3.69-5.01-.6-.78-1.17-1.58-1.75-2.37-.09-.13-.19-.25-.3-.37-.04-.04-.19-.24-.23-.27-.05.09-.06.33-.06.41,0,.25,0,.51.01.76.11,1.71.22,3.42.32,5.13.03.41.05.82.07,1.24.01.32-.07.63-.22.91-.35.62-1.16.67-1.59.11-.11-.15-.2-.33-.25-.51-.07-.24-.13-.49-.14-.75-.17-2.88-.5-5.76-.4-8.65,0-1.94,0-4.48,0-6.42,0-.32,0-.63.11-.94.17-.47.53-.76.98-.77.48-.01.88.3,1.05.81.09.28.08.56.08.85,0,.86-.02,2.32-.03,3.18,0,.16,0,.32.02.47,0,.05,0,.27.05.31.06.05.18-.06.27-.17.15-.16.28-.33.42-.49,1.18-1.32,2.4-2.88,3.47-4.3.08-.1.15-.2.25-.29.39-.37.88-.43,1.31-.17.41.25.59.75.46,1.24-.09.35-.3.63-.52.9-.5.61-1.01,1.23-1.53,1.82-.78.88-1.57,2.01-2.36,2.88-.4.44-.42.45-.05.95,1.2,1.6,2.39,3.2,3.62,4.78.7.91,1.89,2.44,2.43,3.45.13.25.27.51.35.78.15.54-.03,1.02-.43,1.25Z"/>
    </g>
    <g>
      <path class="cls-2" d="m139.6,34.61c.65-1.13,1.48-2.18,2.31-3.23.54-.04,1.02-.14,1.49-.35.21-.09.48-.05.72-.05,1.26,0,2.53,0,3.79,0,.4,0,.8-.06,1.2-.09.24-.02.48-.03.72-.03,2.58-.03,5.16-.05,7.74-.09,1.18-.02,2.36-.06,3.54-.11.62-.03,1.23-.13,1.85-.14,1.1-.03,2.2-.01,3.3-.03,1.05-.01,2.09,0,3.14-.1.83-.08,1.66-.06,2.5-.05,1.72,0,3.44.02,5.15-.15.43-.04.86-.02,1.29-.04.59-.02,1.18-.06,1.77-.09.21-.01.43-.02.64-.02.7-.02,1.39-.04,2.09-.13.58-.08,1.18-.04,1.77-.06.45-.02.91-.07,1.36-.1.21-.02.43-.04.64-.04,2.07,0,4.14-.02,6.21,0,.45,0,.91.07,1.36.11.24.02.48.03.72.04,1.74.06,3.49.12,5.23.18.16,0,.32,0,.48.01,1.96.06,3.92.12,5.88.19.75.03,1.5.06,2.25.12.91.08,1.82.14,2.72.26,1.09.15,2.19.22,3.29.2.32,0,.64.01,1,.02.16.17.39.31.49.52.25.53.65.91,1.1,1.22.3.65.28,1.33.32,1.99.07,1.07.09,2.14.13,3.22.02.51.02,1.02.03,1.53.02.89.01,1.77.08,2.65.07.91.03,1.83.02,2.74-.02.91-.09,1.82-.1,2.73-.02,1.61,0,3.22,0,4.83,0,1.67.01,3.33.02,5,0,1.16-.03,2.31.01,3.47.13,3.25.07,6.5.11,9.75.03,3.25.01,6.5.01,9.75,0,7.23,0,14.45,0,21.68,0,1.59-.03,3.17.02,4.75.04,1.47.18,2.94.26,4.42.04.8,0,1.61.06,2.42.1,1.37.03,2.74.16,4.1.1,1.05.09,2.09.1,3.13.01.78,0,1.56.03,2.34,0,.32.05.64.1.96.14.87.02,1.71-.39,2.5-.07.14-.16.28-.21.43-.2.64-.65,1.1-1.1,1.56-.21.21-.39.42-.53.69-.28.53-.67.96-1.26,1.18-.33.12-.63.3-1.04.49-.41.01-.92.04-1.43.05-.62.01-1.24-.02-1.85.02-.53.03-1.06.12-1.59.19-.26.03-.53.1-.79.1-.94.02-1.88,0-2.82.02-.45,0-.91.08-1.36.09-.78.03-1.56.06-2.33.06-2.34,0-4.67,0-7.01,0-1.1,0-2.21.03-3.3-.06-1.13-.09-2.25-.09-3.38-.08-.56,0-1.12.08-1.69.09-1.02.02-2.04,0-3.06.01-1.56,0-3.12.02-4.67.01-.91,0-1.82-.06-2.74-.09-.19,0-.38-.02-.56-.01-.64.03-1.29.07-1.93.09-.64.02-1.29.02-1.93.01-.89-.01-1.77-.04-2.66-.09-1.5-.08-3.01-.1-4.51.05-.27.03-.54.02-.81.03-1.83.02-3.65.04-5.48.04-1.4,0-2.79-.02-4.19-.03-.89,0-1.77,0-2.65.13-.24.04-.48,0-.72.02-.96.09-1.92.2-2.88.28-.64.05-1.29.06-1.98.09-.1.06-.23.14-.41.25h-3.33c-.67-.5-1.38-1.02-2.08-1.54-.11-.24-.21-.46-.31-.67-.65-.55-.83-.48-.74-1.64,0-.11,0-.21,0-.31.13-.19.24-.37.35-.54-.09-.49-.17-.97-.27-1.44-.03-.12-.12-.23-.23-.42,0-1.84,0-3.75,0-5.66,0-4.24.02-8.49.02-12.73,0-.99-.03-1.99-.04-2.98,0-.13-.02-.27-.03-.4-.03-.4-.09-.8-.09-1.2,0-1.5-.02-3.01.02-4.51.03-.83-.05-1.66,0-2.49.08-1.32.04-2.63.07-3.95.01-.45-.02-.91-.07-1.36-.06-.5-.05-1.02.01-1.53.09-.8.09-1.61.07-2.41-.01-.72-.03-1.45-.06-2.17-.04-.8-.06-1.61-.06-2.41,0-.51.06-1.02.08-1.53.02-.32.02-.64.03-.97.02-1.42.04-2.85.06-4.27,0-.16,0-.33.03-.48.13-.48.11-.96.11-1.44-.01-1.21.03-2.41.17-3.61.07-.58.09-1.17.1-1.76.04-3.2.07-6.39.09-9.59,0-.64-.02-1.29,0-1.93,0-.37.07-.75.08-1.12.01-.37.04-.76-.01-1.12-.07-.48-.06-.96-.02-1.44.06-.77.08-1.55,0-2.33-.08-.72-.1-1.45.04-2.17.02-.08.03-.16.03-.24,0-.97.16-1.92.16-2.89-.01-1.4.01-2.79.04-4.19,0-.35.08-.69.09-1.04.04-1.4.07-2.79.08-4.19,0-.26-.11-.52-.2-.9Zm4.79,4.87c0,.12,0,.33,0,.55,0,1.8,0,3.6,0,5.4,0,1.85-.03,3.71.01,5.56.08,3.44,0,6.87.11,10.31.12,3.89.07,7.79.1,11.69,0,.27.03.54.04.8.01.54.04,1.07.03,1.61,0,.54-.05,1.07-.06,1.61,0,.48.05.96.06,1.45.03,3.2.06,6.39.06,9.59.01,6.31,0,12.63,0,18.94,0,.24-.04.49.01.72.16.75.09,1.5.1,2.25.01,1.05-.02,2.1,0,3.14.04,1.37-.07,2.74.16,4.1.02.11.01.21.02.32.01,1.48.03,2.95.03,4.43,0,.53-.02,1.07-.14,1.6-.07.3-.1.63.07.96.17,0,.32,0,.48,0,2.53,0,5.05,0,7.58.02,1.64.01,3.27.06,4.91.08,1.26.01,2.53,0,3.79,0,.19,0,.38.02.56,0,1.02-.12,2.04-.08,3.06-.07,1.32.01,2.63.07,3.95.08,3.6.01,7.2,0,10.8,0,5.61,0,11.23,0,16.84,0,2.74,0,5.48.02,8.22.01,2.12,0,4.24-.02,6.37-.03.18,0,.36-.04.58-.06.01-.28.03-.51.03-.75,0-4.22-.01-8.44-.02-12.65,0-.86.02-1.72-.05-2.58-.07-.81-.09-1.61-.08-2.41,0-.48,0-.97,0-1.45,0-2.77.02-5.53.02-8.3,0-.99,0-1.99-.14-2.98-.03-.24-.01-.48,0-.72,0-.24.01-.48,0-.72-.02-1.21-.12-2.41-.04-3.62.03-.48.04-.97.02-1.45-.03-.91-.07-1.83.09-2.73.02-.13.01-.27.02-.4.02-2.18.04-4.35.05-6.53,0-.21-.02-.44.02-.64.13-.64.09-1.28.1-1.93.02-.64.02-1.29.06-1.93.02-.27.03-.52,0-.8-.04-.42,0-.86.01-1.28.02-.45.09-.91.1-1.36.02-.83.02-1.67.04-2.5.02-.62.08-1.23.09-1.85.02-1.66.02-3.33.05-4.99,0-.53.08-1.07.08-1.6.01-2.47,0-4.94.02-7.42,0-.56,0-1.13.07-1.69.07-.51.08-1.02.08-1.53.01-1.83.03-3.65.04-5.48,0-.16.02-.32.02-.48,0-1.42.02-2.85,0-4.27,0-.14-.1-.28-.14-.4-.39-.05-.74-.1-1.08-.14-.56-.06-1.12-.14-1.68-.17-.72-.04-1.45-.04-2.17-.05-.24,0-.48-.02-.72-.03-.32-.02-.64-.06-.96-.07-.38-.02-.75-.02-1.13-.04-.64-.03-1.28-.1-1.93-.11-2.93-.02-5.85,0-8.78-.2-.51-.03-1.01-.11-1.52-.12-.83-.02-1.67-.03-2.5-.01-1.37.03-2.73.08-4.1.13-1.02.04-2.04.09-3.05.15-.37.02-.75.08-1.12.12-.13.01-.27.03-.4.03-.94.02-1.88.04-2.82.06-.24,0-.48.01-.72.02-1.34.08-2.68.18-4.01.22-1.4.05-2.79.03-4.19.05-.51,0-1.02.1-1.52.1-.64,0-1.29-.06-1.93-.05-1.02,0-2.04.05-3.06.08-.48.02-.97.05-1.45.08-.48.03-.96.08-1.44.09-2.58.04-5.15-.08-7.73.15-.77.07-1.56.03-2.34,0-.8-.02-1.59.24-2.4.07-.25-.05-.54.1-.8.05-.57-.1-1.11.06-1.71.06-.32.59-.64,1.18-1.04,1.91Z"/>
      <path class="cls-2" d="m203.41,64.21c.2.49.17.92.18,1.35.02,1.56.03,3.12.04,4.67,0,.51,0,1.02,0,1.52-.11.05-.19.1-.26.1-.87-.04-1.71.16-2.56.28-.73.11-1.45.13-2.17.04-.97-.13-1.93-.13-2.89-.1-.56.01-1.13.02-1.69.03-.13,0-.26.03-.45.04.28.59.59,1.12.8,1.68.21.57.32,1.19.48,1.78.16.6.14,1.22.16,1.84.02.63-.13,1.22-.26,1.81.1,1.19.2,2.37.07,3.55-.14,1.31-.47,2.59-1.05,3.78-.14.29-.33.55-.5.83-.13.2-.28.39-.4.6-.35.61-.79,1.15-1.33,1.6-.02.02-.04.03-.06.05-.68.94-1.68,1.49-2.61,2.12-.4.28-.86.45-1.33.55-.84.19-1.68.33-2.53.48-.13.02-.27.03-.4.03-1.58.04-3.16.2-4.75.16-.24,0-.47.02-.75.03-.03.18-.07.34-.07.49-.03,2.42-.04,4.84.04,7.25.03.99.07,1.99.14,2.98.05.8.16,1.6.24,2.4.02.16.03.32.04.48.07.99.12,1.98.22,2.97.11,1.06.26,2.13.41,3.19.1.77.23,1.54.32,2.31.1.87-.13,1.64-.7,2.32-.14.16-.26.34-.39.51-.2.29-.44.54-.78.7h-.86c-.38.25-.69.45-.95.62-.5.03-.92.03-1.35-.07-.28-.07-.58-.03-.88-.05-.27-.22-.53-.43-.82-.66-.69.19-1.21-.13-1.67-.58-.34-.34-.72-.64-1-1.12,0-.25,0-.54,0-.84.02-1.4.04-2.79.05-4.19,0-.35-.04-.7-.04-1.05.03-2.42.08-4.83.1-7.25.02-1.93,0-3.87.02-5.8,0-1.02.02-2.04.03-3.06,0-.26-.01-.53-.02-.78-.29-.19-.57-.14-.82-.09-.72.13-1.44.12-2.17.13-.48,0-.97,0-1.45,0-.59,0-1.18-.02-1.77.09-.36.07-.75.02-1.13.02-.7,0-1.4,0-2.12,0-.1-.07-.21-.14-.31-.22-.23-.18-.49-.22-.76-.17-.18.03-.36.09-.54.15-.85.26-1.71.44-2.61.41-.48-.02-.97-.02-1.45,0-.47.02-.9-.08-1.34-.22-.2-.07-.4-.16-.61-.19-.83-.12-1.33-.65-1.66-1.37-.16-.36-.31-.74-.31-1.16.1-.21.2-.43.3-.64.02-.05.02-.1.04-.21-.03-.1-.09-.25-.11-.41-.03-.18-.06-.38-.02-.56.19-.82.57-1.55,1.04-2.16.11-.04.13-.06.16-.06.93-.07,1.86-.27,2.8-.22.11,0,.22,0,.32,0,1.44-.17,2.89-.15,4.34-.17.19,0,.37-.03.56-.06.59-.07,1.17-.12,1.76,0,.13.03.27.02.4.01.37-.02.75-.06,1.12-.06,1.93-.02,3.87-.04,5.8-.06.18,0,.37-.03.59-.04.03-.14.08-.27.09-.39.03-.75.05-1.5.12-2.25.07-.75.04-1.5.05-2.25.01-.94-.02-1.88.1-2.81.02-.13.01-.27.01-.4.01-1.91.02-3.81.03-5.72,0-.18-.03-.36-.05-.58-.56-.12-1.09-.08-1.62-.01-.32.04-.64.09-.96.09-.97,0-1.92.15-2.88.26-.61.07-1.22.2-1.84.21-.94.02-1.87.05-2.81-.14-1.18-.24-2.38-.44-3.48-.97-.73-.35-1.44-.72-2.14-1.11-1.08-.61-1.88-1.51-2.56-2.53-1.15-1.72-1.69-3.64-1.69-5.7,0-.83-.03-1.66.12-2.49.07-.39.03-.8.04-1.21,0-.35,0-.7.03-1.05.03-.7.16-1.38.41-2.04.3-.78.59-1.56.88-2.33.04-.1.08-.2.13-.29.5-.86.99-1.72,1.52-2.56.27-.43.61-.82.97-1.18.7-.7,1.41-1.4,2.16-2.05.42-.37.92-.64,1.39-.95.32-.2.65-.37.97-.58.94-.62,2-.93,3.08-1.11,1.77-.29,3.56-.46,5.37-.41.72.02,1.45-.07,2.17-.16.9-.12,1.81-.2,2.72-.29,2.01-.2,4.03-.09,6.04-.2.7-.04,1.39.09,2.08,0,.72-.1,1.45-.06,2.17-.03.29.01.59.06.88.06,2.2,0,4.4,0,6.61,0,1.1,0,2.2-.02,3.3.16.18.03.37.03.56.04,1.47.12,2.94.22,4.41.35.59.05,1.17.18,1.75.25.64.08,1.28.15,1.92.22.21.02.42.05.65.07.14.17.27.34.41.52.12,1.79.24,3.58.35,5.33-.1.25-.28.32-.47.32-.75,0-1.5,0-2.25-.06-.72-.05-1.44-.16-2.15-.25-1.65-.2-3.32-.26-4.98-.37-1.48-.1-2.95-.11-4.43-.08-.56.01-1.12.06-1.68.09-.19,0-.38.03-.56,0-1.04-.12-2.09.11-3.13-.09-1.42,0-2.85,0-4.27,0-.72,0-1.45.06-2.17.09-.1,0-.2.05-.33.08-.07.44-.03.87,0,1.29.04.53.09,1.07.12,1.6.08,1.26.16,2.52.24,3.77,0,.13.02.27.02.4.02,2.04.04,4.08.07,6.12,0,.48-.06.96.09,1.47.12.03.26.1.37.08.58-.12,1.18-.07,1.76-.1,1.39-.08,2.79-.11,4.18-.2,2.98-.2,5.96-.12,8.94-.12.75,0,1.5.04,2.25-.12.08-.02.16,0,.24-.01,2.12-.02,4.24-.04,6.37-.06.13,0,.26.03.42.05Zm-32.73-13.3c-.62.11-1.14.02-1.66-.1-.2-.05-.43,0-.63.05-.21.05-.41.13-.61.21-.35.14-.71.2-1.1.21-.62.02-1.22.13-1.82.3-1.28.37-2.73,1.52-3.75,2.29-.04.03-.08.07-.11.11-.64.75-1.3,1.5-1.92,2.27-.21.27-.35.6-.48.92-.29.72-.5,1.48-.6,2.25-.16,1.21-.11,2.41.44,3.54.26.54.6,1.01,1.08,1.38.67.51,1.38.92,2.2,1.13.86.23,1.72.39,2.62.37.32,0,.65-.03.97.01,1,.13,1.98-.03,2.96-.12.85-.08,1.7-.21,2.55-.27.18-.01.38.02.54-.21,0-.22.01-.49,0-.75-.04-.75-.06-1.5-.12-2.25-.11-1.36-.12-2.73-.17-4.09-.02-.56-.04-1.13-.06-1.69-.04-.99-.09-1.98-.12-2.97-.03-.83-.13-1.64-.22-2.6Zm8.44,35.18c.41-.02.73-.02,1.05-.06,1.06-.13,2.12-.26,3.18-.42.74-.11,1.47-.22,2.15-.6.86-.49,1.53-1.17,2.13-1.93.4-.52.59-1.12.71-1.77.1-.55.03-1.07-.03-1.6-.1-.86-.29-1.69-.72-2.45-.38-.67-.74-1.37-1.13-2.04-.26-.44-.59-.82-1.03-1.11-.45-.29-.87-.62-1.3-.94-.33-.25-.68-.43-1.09-.48-.59-.06-1.18-.1-1.76-.13-.54-.03-1.07-.03-1.61-.04-.26,0-.53-.05-.79.06-.03.08-.08.16-.08.23,0,1.1,0,2.2.03,3.3.02.72.08,1.45.11,2.17.03.67.04,1.34.07,2.01.02.54.09,1.07.1,1.6.01,1.18,0,2.36-.01,3.54,0,.18.02.36.04.64Z"/>
      <path class="cls-2" d="m193.76,107.67c-.01-.58.21-1.18.55-1.73.6-.96,1.31-1.83,2.07-2.66.28-.31.62-.5,1.02-.61.32-.09.63-.09.95,0,.71.19,1.36.49,1.88,1.02.17.17.35.35.57.44.79.33,1.25.98,1.68,1.67.13.2.24.42.37.62.18.28.29.58.28.91,0,.28.05.53.15.78.19.49.21,1,.08,1.5-.14.54-.3,1.09-.48,1.62-.19.54-.47,1.02-.88,1.43-.17.17-.31.37-.47.55-.53.64-1.2.98-2.03.94-.62-.03-1.24-.06-1.83-.25-.95-.3-1.83-.76-2.64-1.34-.67-.48-1.12-1.15-1.47-1.89-.28-.6-.34-1.25-.24-1.89.05-.33.25-.64.45-1.12Z"/>
    </g>
    <path class="cls-2" d="m765.09,98.88c.32.27.58.5.9.76-.07.26-1.27.33-1.5.54-1.92.26-3.79.34-5.72.34-2.25,0-4.48.08-6.7.17-.13,0-.27.02-.4.02-3.06.05-6.12.1-9.18.15-.68.01-1.35.04-2.03.05-.47.01-.95.02-1.43.03-1.91.01-3.84-.02-5.73.04-2.37.08-4.77.04-7.12.16-.26.01-.54.01-.82.01-2.59.03-5.15.13-7.73.2-1.76.05-3.54.06-5.31.08-2.45.03-4.9.06-7.36.08-1.5.01-3,.01-4.51.02-1.64.01-3.27.04-4.91.04-1.23,0-2.45-.01-3.68-.02-.82,0-1.64-.02-2.45-.03-2.32,0-4.65,0-6.97,0-1.36,0-2.73-.01-4.08.06-.53.03-1.09.02-1.64.02-8.4,0-16.81.02-25.21-.02-3.96-.02-7.91-.07-11.87-.06-1.7,0-3.4.04-5.11.07-.68,0-1.37,0-2.05.01-3.21.01-6.43-.02-9.63.04-3.55.08-7.09.05-10.64.06-1.29,0-2.59-.04-3.88-.04-5.87,0-11.75,0-17.62-.01-4.37,0-8.74-.01-13.12-.02-1.57,0-3.14,0-4.71-.02-1.02,0-2.04-.04-3.06-.06-.34,0-.68-.02-1.02-.02-2.6-.01-5.19-.03-7.79-.03-5.26,0-10.52,0-15.78,0-1.5,0-3,.02-4.49-.07-.59-.03-1.23-.02-1.84-.02-3.21,0-6.42-.01-9.63,0-2.25,0-4.5.05-6.75.07-.48,0-.96,0-1.43,0-11.2,0-22.41.01-33.61.02-5.06,0-10.11,0-15.16.04-2.18.02-4.36.07-6.54.07-4.17,0-8.34,0-12.5.05-3.48.05-6.97.07-10.44.03-3.28-.05-6.55-.04-9.83-.06-1.57,0-3.14-.02-4.7.06-.39.02-.82.01-1.23.01-7.45,0-14.89.03-22.34.02-6.35,0-12.7-.07-19.05-.09-4.85-.02-9.7,0-14.55,0-.2,0-.41,0-.61,0-1.98.02-3.95,0-5.93.07-2.03.06-4.09.03-6.14.05-.95,0-1.9.04-2.85.05-.68.01-1.36.02-2.05.02-6.76.01-13.53.01-20.29.03-1.5,0-2.99.04-4.49.07-.55,0-1.09,0-1.64,0-2.87,0-5.74,0-8.61.03-2.04.02-4.06.1-6.09.16-1.49.04-2.97.1-4.47.13-2.38.05-4.76.09-7.14.12-3.82.05-7.64.07-11.45.14-7.23.13-14.47.09-21.71.13-1.36,0-2.72.06-4.08.07-2.18.02-4.37.02-6.55.04-.41,0-.83,0-1.23.02-2.22.1-4.33-.05-6.44-.2-.84-.06-1.35-.24-2.09-.39-.54,0-1.15-.01-1.76-.02-2.52-.02-5.04.04-7.56-.07-1.13-.05-2.33-.04-3.47,0-1.43.05-2.85.06-4.28.07-.81,0-1.63.04-2.59.07-.29-.03-.75-.07-1.2-.11-.65-.14-1.22-.3-1.8-.49.21-.12.41-.23.59-.34.81-.15,1.82-.2,2.33-.45.15-.07.52-.12.82-.16,1.87-.23,3.72-.42,5.87-.4,5.05.06,10.1.09,15.15.09,4.98,0,9.97-.05,14.95-.1,2.59-.03,5.16-.12,7.74-.17,1.43-.03,2.87-.03,4.3-.04,2.94,0,5.88,0,8.81-.01,5.05-.03,10.11-.03,15.15-.12,5.87-.1,11.74-.1,17.61-.08,7.99.03,15.98-.08,23.97-.03,7.23-.15,14.48-.01,21.71-.11,1.9-.02,3.81-.06,5.71-.09,5.45-.1,10.92-.14,16.37-.07,5.26.07,10.52.02,15.76.11,4.1.07,8.19.06,12.28.07,1.98,0,3.96-.04,5.93-.06.34,0,.68,0,1.02,0,10.73,0,21.45,0,32.18,0,2.04,0,4.09.04,6.13.06.61,0,1.22-.02,1.83-.03.54-.01,1.09-.03,1.63-.04,2.25-.01,4.51,0,6.76-.04,5.93-.12,11.88-.03,17.81-.09,2.32-.02,4.64.01,6.97.01,8.2,0,16.39,0,24.59-.04,6.42-.03,12.83-.07,19.25-.05,2.25,0,4.5.02,6.75.05,5.8.05,11.61.06,17.41.04,1.23,0,2.46,0,3.69,0,1.91.01,3.81,0,5.72.07,1.89.07,3.82.04,5.73.05.96,0,1.91,0,2.87,0,1.16.01,2.31.04,3.47.06.61,0,1.23.02,1.84.02,5.6,0,11.2,0,16.81-.02,1.36,0,2.72-.05,4.09-.05,2.12-.01,4.23.03,6.34.06,3.48.05,6.97.03,10.45.03,1.09,0,2.19,0,3.28-.01,1.02-.01,2.04-.04,3.06-.06.48,0,.95-.02,1.43-.02,9.77,0,19.54-.02,29.31-.02.88,0,1.76.04,2.65.05.61.01,1.23.02,1.84.02,6.9,0,13.8,0,20.7,0,1.09,0,2.18-.03,3.27-.05.34,0,.7-.02,1.02,0,1.22.08,2.45.06,3.67.06,4.99,0,9.98.02,14.96-.02,2.79-.02,5.59-.03,8.38-.09,3.18-.07,6.35-.19,9.52-.28.47-.01.96,0,1.43-.01,3.4-.07,6.8-.11,10.2-.15,3.06-.04,6.15-.02,9.19-.11,2.37-.06,4.76-.05,7.12-.16,1.4-.07,2.85-.06,4.29-.08,2.04-.03,4.08,0,6.12.01.19,0,.39.03.63.05Z"/>
  </g>
</svg>