<?xml version="1.0" encoding="UTF-8"?>
<svg id="Layer_1" data-name="Layer 1" xmlns="http://www.w3.org/2000/svg" viewBox="0 0 902.12 160.86">
  <defs>
    <style>
      .cls-1 {
        fill: #fff;
        opacity: .9;
      }

      .cls-2, .cls-3 {
        fill: #18376c;
      }

      .cls-3 {
        font-family: PumpkinCheesecakeRegular, 'Pumpkin Cheesecake';
        font-size: 84.36px;
      }
    </style>
  </defs>
  <rect class="cls-1" width="902.12" height="161.88"/>
  <g>
    <text class="cls-3" transform="translate(195.87 70.39)"><tspan x="0" y="0">Thanks for Visiting!</tspan></text>
    <path class="cls-2" d="m753.86,84.32c.37.31.67.57,1.03.87-.08.29-1.45.37-1.72.61-2.2.29-4.34.39-6.56.39-2.58,0-5.13.09-7.68.19-.15,0-.31.02-.46.02-3.51.06-7.01.11-10.52.17-.78.01-1.55.04-2.32.06-.54.01-1.09.03-1.64.03-2.19.01-4.4-.03-6.57.05-2.71.09-5.46.04-8.16.19-.3.02-.62.01-.94.02-2.97.03-5.91.14-8.86.23-2.02.06-4.06.07-6.09.09-2.81.04-5.62.07-8.43.1-1.72.02-3.44.02-5.16.03-1.88.01-3.75.04-5.63.05-1.41,0-2.81-.01-4.22-.02-.94,0-1.88-.03-2.81-.03-2.66,0-5.32,0-7.98,0-1.56,0-3.13-.01-4.68.07-.61.03-1.25.02-1.87.02-9.63,0-19.26.03-28.88-.03-4.53-.03-9.07-.08-13.6-.07-1.95,0-3.9.05-5.85.07-.78,0-1.56,0-2.35.01-3.68.01-7.37-.03-11.03.05-4.07.09-8.13.06-12.19.07-1.48,0-2.97-.05-4.45-.05-6.73,0-13.46,0-20.19-.01-5.01,0-10.02-.01-15.03-.02-1.8,0-3.6,0-5.4-.02-1.17,0-2.33-.04-3.5-.07-.39,0-.78-.02-1.17-.02-2.97-.01-5.95-.03-8.92-.04-6.03,0-12.05,0-18.08,0-1.72,0-3.44.02-5.15-.07-.68-.04-1.4-.02-2.11-.02-3.68,0-7.36-.01-11.04,0-2.58,0-5.16.05-7.73.08-.55,0-1.1,0-1.64,0-12.84,0-25.67.02-38.51.03-5.79,0-11.59,0-17.38.04-2.5.02-4.99.08-7.5.08-4.77,0-9.55,0-14.32.06-3.99.05-7.99.09-11.96.03-3.76-.05-7.51-.05-11.26-.06-1.8,0-3.6-.03-5.38.07-.45.03-.94.01-1.41.01-8.53.01-17.06.04-25.6.02-7.28-.01-14.55-.08-21.83-.1-5.56-.02-11.11,0-16.67,0-.23,0-.47,0-.7,0-2.26.02-4.52.01-6.79.08-2.33.07-4.69.03-7.04.05-1.09,0-2.18.04-3.27.06-.78.01-1.56.02-2.34.03-7.75.01-15.5.02-23.25.03-1.72,0-3.43.05-5.15.08-.62,0-1.25,0-1.88.01-3.29.01-6.58,0-9.86.04-2.33.03-4.66.12-6.98.18-1.71.05-3.41.11-5.12.15-2.73.06-5.45.1-8.18.14-4.37.06-8.75.08-13.12.16-8.29.15-16.58.11-24.87.15-1.56,0-3.12.06-4.68.08-2.5.02-5.01.03-7.51.04-.47,0-.95,0-1.4.02-2.55.12-4.96-.06-7.38-.23-.96-.07-1.55-.28-2.4-.44-.62,0-1.31-.01-2.01-.02-2.89-.03-5.78.05-8.66-.08-1.3-.06-2.68-.05-3.98,0-1.64.06-3.27.07-4.91.08-.93,0-1.86.05-2.97.07-.34-.03-.86-.08-1.37-.12-.74-.16-1.4-.34-2.06-.56.24-.14.47-.27.68-.39.93-.17,2.09-.22,2.67-.51.17-.08.59-.14.94-.18,2.14-.26,4.26-.48,6.73-.45,5.78.07,11.57.11,17.36.1,5.71,0,11.42-.06,17.13-.12,2.96-.03,5.91-.14,8.87-.2,1.64-.03,3.28-.04,4.93-.04,3.37,0,6.73,0,10.1-.01,5.79-.03,11.58-.04,17.36-.13,6.73-.11,13.46-.11,20.18-.09,9.16.04,18.31-.09,27.46-.04,8.28-.17,16.59-.01,24.87-.12,2.18-.03,4.37-.07,6.54-.11,6.25-.12,12.51-.16,18.76-.08,6.02.08,12.05.02,18.06.13,4.7.08,9.38.07,14.07.08,2.27,0,4.53-.05,6.8-.07.39,0,.78,0,1.17,0,12.29,0,24.58,0,36.87,0,2.34,0,4.68.05,7.03.06.7,0,1.4-.02,2.1-.04.62-.01,1.24-.04,1.87-.04,2.58-.02,5.17,0,7.74-.04,6.8-.14,13.61-.04,20.41-.1,2.66-.02,5.32.01,7.98.01,9.39,0,18.79,0,28.18-.04,7.35-.03,14.71-.08,22.06-.06,2.58,0,5.16.03,7.74.05,6.65.06,13.3.07,19.95.05,1.41,0,2.82,0,4.23,0,2.18.01,4.36,0,6.55.07,2.16.08,4.37.04,6.57.05,1.1,0,2.19,0,3.29,0,1.33.01,2.65.05,3.97.07.7.01,1.41.02,2.11.02,6.42,0,12.84,0,19.26-.02,1.56,0,3.12-.05,4.68-.06,2.42-.01,4.84.04,7.26.07,3.98.05,7.98.03,11.97.04,1.25,0,2.51,0,3.76-.01,1.17-.01,2.34-.04,3.5-.07.55-.01,1.09-.02,1.64-.02,11.19,0,22.39-.02,33.58-.02,1.01,0,2.02.04,3.03.06.7.01,1.4.03,2.11.03,7.91,0,15.81.01,23.72,0,1.25,0,2.49-.04,3.74-.06.39,0,.8-.03,1.17,0,1.39.09,2.8.06,4.21.06,5.71,0,11.43.02,17.14-.03,3.2-.03,6.41-.03,9.6-.1,3.65-.08,7.27-.22,10.91-.32.54-.02,1.1,0,1.64-.02,3.89-.08,7.79-.13,11.69-.18,3.51-.04,7.04-.03,10.53-.12,2.71-.07,5.45-.05,8.15-.18,1.61-.08,3.27-.07,4.91-.09,2.34-.03,4.67,0,7.01.01.22,0,.44.03.72.05Z"/>
  </g>
</svg>