<?xml version="1.0" encoding="UTF-8"?>
<svg id="Layer_1" data-name="Layer 1" xmlns="http://www.w3.org/2000/svg" viewBox="0 0 200 140">
  <defs>
    <style>
      .cls-1 {
        fill: #fff;
      }

      .cls-2 {
        fill: #4c9b2f;
      }

      .cls-3 {
        fill: #71c056;
      }
    </style>
  </defs>
  <rect class="cls-2" x="5.88" y="23.17" width="188.25" height="101.67" rx="50.83" ry="50.83"/>
  <rect class="cls-3" x="5.88" y="23.17" width="188.25" height="101.67" rx="50.83" ry="50.83"/>
  <g>
    <path class="cls-1" d="m65.26,67.04c-.55.5-1.08.57-1.78.7-.75.14-1.58.07-2.45.06-1.83-.02-3.5-.04-5.43-.07-.3,0-.62-.02-.91-.02-1.51,0-2.33-.56-2.52-2.05-.2-1.58-.33-3.18-.41-4.77-.2-3.78-.35-7.72-.58-13.01-.23-2.75-.1-7.01-.22-11.27,0-.24-.01-.47.01-.71.14-1.34,1.1-2.29,2.43-2.37.59-.03,1.18.02,1.77.03,2.13.04,4.26.07,6.39.13.77.02,1.53.1,2.29.21.34.05.69.18.99.36,1.21.73,1.21,2.33-.01,3.05-.68.4-1.44.51-2.22.5-1.89-.03-3.79-.04-5.68-.08-1.9-.05-1.83-.07-1.8,1.84.05,2.72.1,5.44.17,8.16.02.78.18.91.97.89,1.24-.03,2.48-.09,3.72-.13.66-.02,1.3.08,1.89.4,1.26.68,1.34,2.24.16,3.05-.45.3-.95.48-1.49.52-1,.09-2,.18-3,.25-.47.04-.94.05-1.42.08-.35.03-.52.25-.55.58-.02.23-.02.47,0,.71.13,2.78.26,5.71.41,8.49.04.79.17,1.52,1.01,1.43,1.7-.18,3.41-.07,5.11-.22.64-.06,1.3-.04,1.95.02.6.06.92.28,1.19.55.8.81.88,1.92.03,2.68Z"/>
    <path class="cls-1" d="m97.99,62.94c0,.77-.03,1.54-.06,2.3-.02.54-.16,1.05-.41,1.53-.36.68-.93,1.09-1.71,1.05-.69-.04-1.23-.42-1.52-1.06-.14-.32-.25-.67-.3-1.01-.07-.47-.07-.94-.08-1.41-.06-5.2-.11-10.4-.18-15.61,0-.5.01-1.36-.15-1.96-.26.43-.54,1.22-.68,1.66-1.15,3.67-2.29,8.31-3.46,11.97-.43,1.35-.9,3.67-1.37,5-.16.44-.35.89-.61,1.27-.98,1.41-2.75,1.41-3.68-.03-.35-.54-.58-1.16-.79-1.77-1.55-4.4-3.09-10.76-4.63-15.17-.25-.72-.71-1.97-.98-2.7-.2.5-.26,1.28-.25,1.65.12,3.84.25,7.68.38,11.52.05,1.48.12,3.12.16,4.59.02.72-.08,1.42-.42,2.06-.67,1.28-2.23,1.34-3.02.12-.26-.4-.43-.84-.48-1.32-.08-.76-.19-1.53-.23-2.29-.36-6.85-.64-13.86-.42-20.73.05-1.42.03-4.3.04-5.72,0-.3-.01-.59,0-.89.13-1.83,1.08-2.65,2.91-2.53.86.05,1.45.48,1.82,1.21.21.42.35.88.51,1.32,2.13,6.08,4.1,15.08,6.25,21.16.19.54.36,1.02.92,1.78.43-1.37.82-2.61,1.21-3.85,1.4-4.52,2.98-12.6,4.73-17,.35-.88.73-1.75,1.13-2.6.2-.42.45-.84.77-1.18,1.12-1.24,2.93-.98,3.68.51.33.64.43,1.34.46,2.06.08,1.89.21,5.89.24,7.79.08,6.09.13,12.18.18,18.27Z"/>
    <path class="cls-1" d="m124.03,66.86c-.53,1-1.64,1.27-2.56.62-.5-.35-.83-.85-1.01-1.42-.26-.79-.49-1.91-.68-2.71-.51-2.06-1-5.27-1.49-7.34-.41-1.73-.44-1.52-1.84-1.49-1.48.03-2.95.11-4.43.2-.71.04-.76.09-.92.82-.2.92-.37,2.99-.55,3.92-.39,1.91-.77,3.82-1.17,5.73-.07.35-.16.69-.28,1.03-.44,1.21-1.36,1.76-2.45,1.49-1-.25-1.55-1.11-1.47-2.43.02-.12.05-.35.1-.58,1.26-6.25,2.27-13.68,3.12-17.74.65-3.12,1.39-6.23,2.42-9.25.23-.67.47-1.34.75-1.99.19-.43.4-.86.69-1.23,1-1.28,2.54-1.37,3.7-.23.6.59.97,1.35,1.24,2.13.61,1.73,1.22,3.45,1.76,5.21,1.67,5.52,3.31,14.43,5.13,22.18.12.51.17,1.37.22,1.9.04.42-.07.82-.27,1.2Zm-7.4-16.52c-.13-1.66-1.56-7.8-2.4-9.42-.88,2.26-1.92,7.92-1.92,9.51,1.44.11,2.88.08,4.32-.09Z"/>
    <path class="cls-1" d="m136.16,65.16c-.04.41-.08.83-.2,1.22-.27.9-.97,1.44-1.8,1.45-.9.02-1.67-.57-1.9-1.55-.12-.51-.12-1.05-.13-1.58-.01-1.24.03-2.48,0-3.72-.09-3.25-.2-6.5-.31-9.95,0-4.06-.13-9.78-.31-14.04-.03-.59-.05-1.19.05-1.77.17-1.04.99-1.74,1.94-1.76.96-.02,1.75.62,1.98,1.7.12.57.15,1.17.17,1.76.14,5.5.27,12.46.41,17.96.05,2.01.11,4.02.19,6.03.06,1.42.06,2.84-.08,4.25Z"/>
    <path class="cls-1" d="m161.55,65.84c-.04.79-.71,1.49-1.6,1.67-.46.09-.94.09-1.41.09-1.71,0-3.43,0-5.14,0v.05c-1.18.05-2.36.11-3.54.15-.53.02-1.06.03-1.59.03-2.34-.01-3.11-.66-3.35-2.94-.23-2.23-.44-4.47-.55-6.71-.3-5.9-.79-14.23-.85-20.14,0-.59-.07-1.18-.08-1.77-.01-.35-.03-.71.02-1.06.14-.91.76-1.53,1.6-1.66.85-.13,1.61.27,2.07,1.06.31.53.36,1.12.39,1.71.09,2.18.19,4.37.27,6.55.22,5.61.58,13.65,1.01,19.24.01.18.02.35.04.53.1.94.16,1.04,1.05,1.02,1.77-.03,3.54-.1,5.31-.18,1.3-.06,2.6-.1,3.89.1.47.07.93.14,1.35.38.72.42,1.15,1.02,1.11,1.87Z"/>
    <path class="cls-1" d="m84.2,110.34c-.04.79-.71,1.49-1.6,1.67-.46.09-.94.09-1.41.09-1.71,0-3.43,0-5.14,0v.05c-1.18.05-2.36.11-3.54.15-.53.02-1.06.03-1.59.03-2.34-.01-3.11-.66-3.35-2.94-.23-2.23-.44-4.47-.55-6.71-.3-5.9-.79-14.23-.85-20.14,0-.59-.07-1.18-.08-1.77-.01-.35-.03-.71.02-1.06.14-.91.76-1.53,1.6-1.66.85-.13,1.61.27,2.07,1.06.31.53.36,1.12.39,1.71.09,2.18.19,4.37.27,6.55.22,5.61.58,13.65,1.01,19.24.01.18.02.35.04.53.1.94.16,1.04,1.05,1.02,1.77-.03,3.54-.1,5.31-.18,1.3-.06,2.6-.1,3.89.1.47.07.93.14,1.35.38.72.42,1.15,1.02,1.11,1.87Z"/>
    <path class="cls-1" d="m94.36,109.66c-.04.41-.08.83-.2,1.22-.27.9-.97,1.44-1.8,1.45-.9.02-1.67-.57-1.9-1.55-.12-.51-.12-1.05-.13-1.58-.01-1.24.03-2.48,0-3.72-.09-3.25-.2-6.5-.31-9.95,0-4.06-.13-9.78-.31-14.04-.03-.59-.05-1.19.05-1.77.17-1.04.99-1.74,1.94-1.76.96-.02,1.75.62,1.98,1.7.12.57.15,1.17.17,1.76.14,5.5.27,12.46.41,17.96.05,2.01.11,4.02.19,6.03.06,1.42.06,2.84-.08,4.25Z"/>
    <path class="cls-1" d="m118.84,90.68c-.04.77-.01,1.54-.15,2.29-.18.95-.99,1.54-1.9,1.55-.99,0-1.76-.64-1.96-1.7-.08-.4-.07-.82-.1-1.23-.08-1.24-.14-2.48-.25-3.71-.09-1.07-.33-2.1-.8-3.07-.31-.65-.74-1.21-1.3-1.66-1.44-1.14-3.45-1.4-5.03.45-2.2,2.57-2.13,5.52-.09,8.46.4.58.78,1.05,1.22,1.61,1.25,1.59,2.2,3.07,3.54,4.4,1.13,1.13,2.87,3.2,3.75,4.53.52.79.97,1.62,1.22,2.54,1.07,3.87-1.5,7.21-5.52,7.18-1.45-.01-2.8-.44-4-1.26-1.47-1-2.75-2.23-3.96-3.53-.37-.39-.64-.84-.8-1.36-.21-.68-.09-1.29.39-1.81.5-.54,1.13-.62,1.8-.43.63.18,1.17.55,1.67.98.67.58,1.32,1.19,1.99,1.77.4.35.81.69,1.25.98.55.38,1.18.53,1.85.49,1.14-.05,1.73-.82,1.37-1.92-.18-.55-.49-1.08-.8-1.57-.74-1.14-1.41-2.42-2.38-3.38-1.56-1.76-3.17-3.95-4.65-5.4-1.56-1.52-2.61-3.34-3.15-5.45-1.07-4.12.07-7.62,3.15-10.45,2.13-1.96,4.68-2.43,7.42-1.4,1.95.73,3.46,2,4.49,3.83.64,1.15,1.11,2.36,1.3,3.66.21,1.52.47,3.04.47,4.59Z"/>
    <path class="cls-1" d="m143.87,81.07c-.81.53-1.77.65-2.71.75-1,.11-2,.16-3,.26-1,.1-1.04.14-1.05,1.22-.02,1.42,0,3-.02,4.42-.03,2.78-.06,4.58-.1,7.35-.06,4.32.23,8.62.51,12.92.07,1.01.13,2.01-.19,2.98-.24.72-.68,1.24-1.49,1.33-.8.09-1.44-.27-1.84-1.09-.37-.75-.5-1.57-.55-2.4-.28-4.42-.57-8.84-.4-13.28,0-3.96,0-7.1,0-11.06,0-.47,0-.95-.02-1.42-.03-.55-.23-1.09-.77-1.06-1.12.07-2.24.17-3.36.27-.29.03-.58.13-.87.13-.88,0-1.6-.53-1.89-1.36-.29-.82-.04-1.51.54-2.11.33-.35.76-.57,1.24-.64.76-.11,1.52-.26,2.28-.3,3.42-.18,6.84-.02,10.27-.16.76-.03,1.54.02,2.3.08.34.03.7.14,1,.3,1.24.67,1.3,2.08.12,2.85Z"/>
  </g>
</svg>