<?xml version="1.0" encoding="UTF-8"?>
<svg id="Layer_1" data-name="Layer 1" xmlns="http://www.w3.org/2000/svg" viewBox="0 0 1341 4">
  <defs>
    <style>
      .cls-1 {
        fill: #18212d;
        opacity: .4;
      }
    </style>
  </defs>
  <path class="cls-1" d="m1338.78.07c.79.27,1.45.5,2.22.76-.17.26-3.14.33-3.72.54-4.76.26-9.39.34-14.17.34-5.58,0-11.09.08-16.59.17-.33,0-.66.02-1,.02-7.58.05-15.16.1-22.74.15-1.68.01-3.35.04-5.02.05-1.18.01-2.36.02-3.53.03-4.74.01-9.52-.02-14.2.04-5.87.08-11.81.04-17.63.16-.66.01-1.35.01-2.02.01-6.42.03-12.77.13-19.14.2-4.36.05-8.77.06-13.16.08-6.07.03-12.15.06-18.22.08-3.72.01-7.44.01-11.16.02-4.05.01-8.11.04-12.16.04-3.04,0-6.08-.01-9.12-.02-2.03,0-4.05-.02-6.08-.03-5.75,0-11.51,0-17.26,0-3.38,0-6.76-.01-10.11.06-1.31.03-2.7.02-4.05.02-20.82,0-41.64.02-62.44-.02-9.8-.02-19.6-.07-29.41-.06-4.22,0-8.43.04-12.65.07-1.69,0-3.38,0-5.07.01-7.95.01-15.94-.02-23.85.04-8.8.08-17.57.05-26.36.06-3.21,0-6.41-.04-9.62-.04-14.55,0-29.1,0-43.65-.01-10.83,0-21.66-.01-32.49-.02-3.89,0-7.79,0-11.68-.02-2.53,0-5.05-.04-7.57-.06-.84,0-1.69-.02-2.53-.02-6.43-.01-12.86-.03-19.29-.03-13.03,0-26.06,0-39.09,0-3.71,0-7.43.02-11.12-.07-1.47-.03-3.04-.02-4.56-.02-7.95,0-15.91-.01-23.86,0-5.57,0-11.15.05-16.72.07-1.18,0-2.37,0-3.55,0-27.75,0-55.5.01-83.26.02-12.52,0-25.05,0-37.56.04-5.4.02-10.79.07-16.2.07-10.32,0-20.66,0-30.96.05-8.63.05-17.27.07-25.86.03-8.12-.05-16.23-.04-24.34-.06-3.88,0-7.78-.02-11.63.06-.98.02-2.02.01-3.04.01-18.45,0-36.89.03-55.34.02-15.73,0-31.46-.07-47.19-.09-12.01-.02-24.03,0-36.04,0-.51,0-1.01,0-1.52,0-4.89.02-9.78,0-14.68.07-5.03.06-10.14.03-15.21.05-2.36,0-4.71.04-7.07.05-1.69.01-3.38.02-5.07.02-16.75.01-33.51.01-50.26.03-3.71,0-7.42.04-11.13.07-1.35,0-2.71,0-4.06,0-7.11,0-14.22,0-21.32.03-5.04.02-10.07.1-15.09.16-3.69.04-7.37.1-11.07.13-5.89.05-11.79.09-17.69.12-9.45.05-18.92.07-28.36.14-17.91.13-35.85.09-53.77.13-3.37,0-6.74.06-10.11.07-5.41.02-10.82.02-16.24.04-1.01,0-2.04,0-3.04.02-5.51.1-10.72-.05-15.95-.2-2.09-.06-3.34-.24-5.18-.39-1.34,0-2.84-.01-4.35-.02-6.24-.02-12.49.04-18.73-.07-2.8-.05-5.78-.04-8.61,0-3.54.05-7.07.06-10.61.07-2.02,0-4.03.04-6.43.07-.73-.03-1.85-.07-2.96-.11-1.6-.14-3.03-.3-4.46-.49.52-.12,1.01-.23,1.47-.34,2.01-.15,4.51-.2,5.78-.45.37-.07,1.29-.12,2.04-.16,4.62-.23,9.21-.42,14.55-.4,12.5.06,25.02.09,37.53.09,12.34,0,24.69-.05,37.02-.1,6.41-.03,12.78-.12,19.18-.17,3.54-.03,7.1-.03,10.65-.04,7.28,0,14.56,0,21.83-.01,12.51-.03,25.04-.03,37.53-.12,14.54-.1,29.09-.1,43.63-.08,19.8.03,39.57-.08,59.36-.03,17.91-.15,35.86-.01,53.77-.11,4.72-.02,9.44-.06,14.15-.09,13.51-.1,27.05-.14,40.55-.07,13.02.07,26.06.02,39.05.11,10.15.07,20.28.06,30.43.07,4.9,0,9.8-.04,14.7-.06.85,0,1.69,0,2.54,0,26.57,0,53.13,0,79.7,0,5.06,0,10.13.04,15.19.06,1.51,0,3.03-.02,4.54-.03,1.35-.01,2.69-.03,4.03-.04,5.58-.01,11.18,0,16.74-.04,14.7-.12,29.42-.03,44.12-.09,5.74-.02,11.5.01,17.26.01,20.3,0,40.61,0,60.91-.04,15.9-.03,31.79-.07,47.69-.05,5.58,0,11.16.02,16.73.05,14.38.05,28.76.06,43.14.04,3.05,0,6.09,0,9.14,0,4.72.01,9.43,0,14.17.07,4.67.07,9.46.04,14.19.05,2.37,0,4.74,0,7.11,0,2.87.01,5.72.04,8.59.06,1.52,0,3.04.02,4.56.02,13.88,0,27.75,0,41.63-.02,3.37,0,6.74-.05,10.12-.05,5.24-.01,10.47.03,15.7.06,8.61.05,17.25.03,25.88.03,2.71,0,5.42,0,8.12-.01,2.53-.01,5.05-.04,7.57-.06,1.18,0,2.36-.02,3.54-.02,24.2,0,48.4-.02,72.59-.02,2.19,0,4.37.04,6.56.05,1.52.01,3.04.02,4.55.02,17.09,0,34.18,0,51.28,0,2.7,0,5.39-.03,8.09-.05.84,0,1.73-.02,2.52,0,3.01.08,6.06.06,9.1.06,12.35,0,24.71.02,37.05-.02,6.91-.02,13.85-.03,20.75-.09,7.88-.07,15.73-.19,23.59-.28,1.17-.01,2.37,0,3.55-.01,8.41-.07,16.84-.11,25.27-.15,7.59-.04,15.22-.02,22.77-.11,5.87-.06,11.78-.05,17.63-.16,3.47-.07,7.07-.06,10.61-.08,5.05-.03,10.11,0,15.16.01.48,0,.96.03,1.56.05Z"/>
</svg>