<?xml version="1.0" encoding="UTF-8"?>
<svg id="Layer_1" data-name="Layer 1" xmlns="http://www.w3.org/2000/svg" xmlns:xlink="http://www.w3.org/1999/xlink" viewBox="0 0 166.4 196.79">
  <defs>
    <style>
      .cls-1 {
        fill: #fff;
        stroke-width: 0px;
      }

      .cls-2 {
        filter: url(#drop-shadow-2);
      }
    </style>
    <filter id="drop-shadow-2" filterUnits="userSpaceOnUse">
      <feOffset dx="0" dy="3.6"/>
      <feGaussianBlur result="blur" stdDeviation="5"/>
      <feFlood flood-color="#231f20" flood-opacity=".5"/>
      <feComposite in2="blur" operator="in"/>
      <feComposite in="SourceGraphic"/>
    </filter>
  </defs>
  <g class="cls-2">
    <path class="cls-1" d="m129.07,18.16H37.32c-5.32,0-9.66,4.33-9.66,9.66v141.16c0,5.32,4.33,9.66,9.66,9.66h91.75c5.32,0,9.66-4.33,9.66-9.66V27.82c0-5.32-4.33-9.66-9.66-9.66Zm1.56,150.82c0,.86-.7,1.56-1.56,1.56H37.32c-.86,0-1.56-.7-1.56-1.56V27.82c0-.86.7-1.56,1.56-1.56h91.75c.86,0,1.56.7,1.56,1.56v141.16Z"/>
    <path class="cls-1" d="m117.44,71.7h0s-33.4,0-33.4,0v-26.74h33.4v-.02c2.12,0,3.84-2.27,3.84-5.06s-1.72-5.06-3.84-5.06v.02h-43.24c-.89-.06-3.86-.18-7.61.38-5.95.89-11.01,3.13-14.63,6.47-2.18,2-3.87,4.41-5.03,7.15-1.25,2.96-1.89,6.33-1.89,10.02,0,3.43.6,6.58,1.79,9.37,1.1,2.58,2.7,4.85,4.77,6.76,3.65,3.37,8.59,5.54,14.7,6.44,2.39.36,4.48.44,5.91.44.78,0,1.36-.02,1.71-.04v26.83h-25.55c-2.12,0-3.84,2.27-3.84,5.06s1.72,5.06,3.84,5.06h0s25.54,0,25.54,0v39.89h0s0,.05,0,.08v.05h0c.09,2.06,2.32,3.72,5.06,3.72s4.97-1.65,5.06-3.72h0v-.05s0-.05,0-.08h0v-39.88c.05,0,.11,0,.17,0,1.31,0,3.94-.09,7.1-.67,6.1-1.12,11.03-3.45,14.67-6.93,4.36-4.17,6.57-9.7,6.57-16.43,0-5.01-1.45-9.35-4.3-12.94h9.19c2.12,0,3.84-2.26,3.84-5.06s-1.72-5.06-3.84-5.06Zm-43.52,0h-.26s-.21.02-.21.02c-2.72.19-10.7-.18-15.01-4.19-2.21-2.05-3.28-4.89-3.28-8.67,0-4.27,1.18-7.44,3.62-9.69,5.2-4.82,14.48-4.24,14.83-4.22l.18.02h.13v26.74Zm25.09,32.15c-4.83,4.65-13.37,4.82-14.97,4.81v-26.74c1.67.06,10.73.57,15.49,5.3,1.96,1.95,2.91,4.41,2.91,7.53,0,3.9-1.12,6.87-3.42,9.09Z"/>
    <circle class="cls-1" cx="107.22" cy="145.65" r="7.44"/>
  </g>
</svg>