<?xml version="1.0" encoding="UTF-8"?>
<svg id="Layer_1" data-name="Layer 1" xmlns="http://www.w3.org/2000/svg" viewBox="0 0 900 297.5">
  <defs>
    <style>
      .cls-1 {
        fill: #fff;
        opacity: .9;
      }

      .cls-2 {
        fill: #18376c;
      }
    </style>
  </defs>
  <rect class="cls-1" width="900" height="297.5"/>
  <g>
    <g>
      <path class="cls-2" d="m194.62,39.47c-1.36.8-2.89,1.03-4.45,1.01-3.79-.05-7.58-.08-11.36-.17-3.8-.09-3.67.18-3.6,4,.09,5.44.2,10.89.33,16.33.04,1.56.36,1.82,1.95,1.78,2.48-.07,4.97-.18,7.45-.27,1.32-.04,2.6.16,3.78.8,2.51,1.37,2.67,4.48.31,6.1-.89.61-1.9.95-2.98,1.05-2,.17-4.01.35-6.01.51-.94.07-1.89.09-2.83.16-.7.05-1.04.5-1.1,1.15-.04.47-.04.95-.01,1.42.27,5.56.52,11.44.82,17,0,0,.06.44.13,1.23.09,1,.2,2.87.22,4.76.05,3.39-.77,4.02-1.18,4.22-.44.22-1.77.4-1.77.4-3.03.01-4.66-1.12-5.04-4.11-.4-3.17-.66-6.69-.82-9.88-.39-7.57-.69-15.46-1.17-26.05-.45-5.5-.2-14.03-.43-22.55-.01-.47-.02-.95.03-1.42.28-2.69,2.19-4.58,4.87-4.74,1.18-.07,2.36.04,3.55.06,4.26.08,8.53-.19,12.79-.07,1.53.04,3.07.21,4.59.42.68.1,1.38.37,1.97.73,2.43,1.46,2.41,4.67-.02,6.11Z"/>
      <path class="cls-2" d="m239.46,99.38c-1.1.99-2.17,1.14-3.57,1.4-1.51.28-3.16.14-4.91.12-3.67-.04-7.01-.09-10.88-.14-.59,0-1.23-.04-1.82-.04-3.03.02-4.66-1.12-5.04-4.11-.4-3.17-.66-6.36-.82-9.55-.39-7.57-.69-15.46-1.17-26.05-.45-5.5-.2-14.03-.43-22.55-.01-.47-.02-.95.03-1.42.28-2.69,2.19-4.58,4.87-4.74,1.18-.07,2.36.04,3.55.06,4.26.08,8.53.13,12.79.26,1.53.04,3.07.21,4.59.42.68.1,1.38.37,1.97.73,2.43,1.46,2.41,4.67-.02,6.11-1.36.8-2.89,1.03-4.45,1.01-3.79-.05-7.58-.08-11.37-.17-3.8-.09-3.67-.14-3.6,3.68.09,5.45.2,10.89.33,16.34.04,1.56.36,1.82,1.95,1.78,2.49-.07,4.97-.18,7.45-.27,1.32-.04,2.6.16,3.78.8,2.51,1.37,2.67,4.48.31,6.1-.89.61-1.9.95-2.98,1.05-2,.17-4.01.35-6.01.51-.94.07-1.89.09-2.83.16-.7.05-1.04.5-1.1,1.15-.04.47-.04.95-.01,1.42.27,5.56.52,11.44.82,17,.08,1.59.33,3.05,2.01,2.87,3.41-.37,6.82-.14,10.24-.45,1.29-.12,2.6-.09,3.9.04,1.2.12,1.84.56,2.38,1.11,1.59,1.63,1.75,3.84.06,5.36Z"/>
      <path class="cls-2" d="m293.11,94.26c-.07.94-.12,1.91-.38,2.81-.55,1.93-1.66,3.44-3.78,3.81-2.1.37-3.72-.54-4.86-2.24-.72-1.07-1.33-2.24-1.87-3.42-2.81-6.13-5.56-15.22-8.36-21.36-2.07-4.52-4.15-9.03-6.28-13.52-.86-1.82-1.62-3.52-2.56-5.3-.22-.41-1.9-3.76-1.9-3.76,0,0,.17,3.65.17,4.17-.14,8.53-.14,17.05.24,25.57.17,3.9.33,7.81.46,11.71.04,1.18,0,2.37-.04,3.55-.03.96-.29,1.87-.8,2.69-1.44,2.36-4.25,2.45-5.85.18-.91-1.3-1.22-2.81-1.31-4.37-.2-3.66-.45-7.33-.6-10.99-.47-12.07-.36-24.15-.25-36.23.02-2.13-.06-7.85-.02-9.98.01-.94.07-1.91.32-2.81.51-1.78,2.38-3.13,4.06-2.73,2.3.54,3.64,1.21,4.96,3.49.41.72.86,1.41,1.27,2.14,5.42,9.59,11.35,23,15.78,33.08.71,1.62,1.45,3.24,2.17,4.87.19.42.85,2.13,1.32,3.44,0-.85,0-3.92-.03-4.62-.59-9.58-1.11-24.06-.97-33.65.02-1.3.12-2.6.25-3.9.07-.7.21-1.42.43-2.08.68-1.97,2.19-3.08,3.94-2.97,1.61.1,2.82,1.22,3.42,3.14.39,1.27.31,2.58.28,3.88-.19,8.64.4,22.17.67,30.82.1,3.31.19,6.63.33,9.94.16,3.91.07,10.75-.2,14.65Z"/>
      <path class="cls-2" d="m343.16,97.5c-.63.52-1.36.99-2.12,1.27-3.24,1.16-6.57,2.12-10.01,2.18-4.09.07-7.98-1.04-11.49-3.17-4.69-2.85-8.13-6.81-10.14-11.96-.86-2.22-1.53-4.5-1.9-6.83-1.64-10.33-1.13-21.83,2.08-31.83,1.02-3.18,2.48-6.14,4.53-8.8,6.54-8.46,15.63-6.8,21.13-.93,1.3,1.39,2.44,2.91,3.33,4.59,2.71,5.09,4.12,12.84,4.51,18.57.06.93-.05,1.91-.3,2.81-.49,1.78-2.3,2.99-4.02,2.87s-3.13-1.3-3.56-3c-.17-.68-.16-1.41-.22-2.11-.33-3.55-1.16-9.28-2.4-12.62-.71-1.9-1.74-3.62-3.07-5.16-.7-.81-1.5-1.49-2.48-1.98-1.77-.9-3.46-.83-4.94.52-.86.79-1.63,1.72-2.3,2.68-1.16,1.66-1.9,3.53-2.51,5.46-1.69,5.35-2.5,10.83-2.36,16.44.03,3.79.11,8.87.99,12.59.89,3.76,2.38,7.19,5.37,9.79,3.72,3.24,7.94,4.56,12.83,3.33,1.26-.32,2.53-.64,3.8-.87,1.29-.23,2.6-.33,3.87.05,1.31.4,2.33,1.17,2.61,2.62.27,1.4-.13,2.6-1.23,3.5Z"/>
      <path class="cls-2" d="m396.92,99.4c-.47.34-1.03.6-1.58.77-.67.21-1.38.39-2.08.43-6.27.42-21,.78-27.17-.92-1.27-.35-2.49-.75-3.6-1.45-2.83-1.79-3.89-4.45-2.89-7.64.42-1.35,1.03-2.65,1.68-3.91,3.9-7.58,7.72-15.2,11.79-22.69,4.13-7.6,7.99-12.89,12.03-20.53.32-.6.65-1.69.83-2.69-1.57-.26-2.77-.29-4.06-.33-6.71-.18-12.03-.52-17.1.47-.82.08-1.66.2-2.47.1-1.79-.22-3.12-1.54-3.39-3.16-.29-1.73.42-3.38,1.98-4.2.82-.43,1.76-.77,2.68-.88,8.59-.99,17.17-.05,25.82-.28.94-.02,1.91-.03,2.83.13,3.3.57,4.82,2.99,3.89,6.25-.32,1.13-.81,2.22-1.33,3.28-4.41,9.04-9.07,15.51-13.81,24.4-3.45,6.48-6.85,12.98-10.25,19.49-.87,1.67-1.65,3.39-2.44,5.04.7,1.03,1.66,1.18,2.55,1.23,2.36.15,13.2.22,15.56.25,2.6.03,5.21-.07,7.79.47.94.2,1.85.43,2.64.98,2,1.4,2.06,3.95.1,5.38Z"/>
      <path class="cls-2" d="m422.06,95.61c-.08.82-.16,1.66-.4,2.45-.55,1.8-1.94,2.87-3.61,2.9-1.8.03-3.34-1.13-3.81-3.1-.25-1.02-.25-2.11-.26-3.17-.03-2.49.07-4.97,0-7.46-.17-6.51-.41-13.02-.63-19.92,0-8.13-.26-19.59-.63-28.1-.05-1.18-.1-2.39.1-3.54.35-2.09,1.99-3.48,3.89-3.52,1.92-.04,3.5,1.23,3.96,3.39.25,1.15.31,2.35.34,3.52.29,11.01.55,24.95.83,35.96.1,4.02.22,8.05.39,12.07.11,2.84.11,5.68-.16,8.52Z"/>
      <path class="cls-2" d="m473.79,100.32c-1.49.88-3.35.57-4.85-.89-.59-.57-1.14-1.23-1.53-1.94-3.23-5.98-9.63-13.36-13.75-18.69-2.24-2.9-4.36-5.9-6.54-8.85-.35-.47-.73-.93-1.13-1.37-.13-.14-.69-.89-.87-1-.18.33-.21,1.21-.22,1.53-.02.95-.01,1.89.04,2.84.39,6.38.8,12.75,1.2,19.13.1,1.53.2,3.07.25,4.61.04,1.21-.24,2.37-.84,3.41-1.31,2.29-4.33,2.51-5.94.42-.42-.55-.74-1.22-.94-1.89-.27-.9-.48-1.85-.53-2.78-.62-10.75-1.85-21.46-1.5-32.25,0-7.22,0-16.72,0-23.94,0-1.18,0-2.37.42-3.51.65-1.76,1.99-2.84,3.65-2.88,1.79-.05,3.27,1.11,3.92,3.02.35,1.04.32,2.1.3,3.16-.03,3.19-.08,8.67-.11,11.87,0,.59.01,1.18.08,1.77.02.19.01,1,.17,1.14.21.18.67-.22,1-.65.58-.59,1.03-1.22,1.58-1.84,4.42-4.94,8.95-10.76,12.95-16.05.28-.38.58-.76.92-1.08,1.46-1.38,3.29-1.61,4.88-.64,1.52.93,2.21,2.82,1.71,4.64-.35,1.29-1.1,2.35-1.93,3.36-1.88,2.28-3.76,4.57-5.71,6.79-2.89,3.28-5.85,7.49-8.79,10.74-1.49,1.65-1.56,1.69-.17,3.55,4.46,5.97,8.93,11.94,13.49,17.83,2.61,3.38,7.05,9.11,9.08,12.87.5.93,1.02,1.89,1.3,2.9.56,2.01-.11,3.8-1.59,4.67Z"/>
      <path class="cls-2" d="m550.1,57.62c-.09,1.53-.02,3.09-.3,4.59-.35,1.89-1.99,3.09-3.81,3.1-1.99.01-3.52-1.28-3.92-3.4-.15-.81-.15-1.65-.2-2.47-.16-2.48-.29-4.96-.49-7.44-.18-2.13-.66-4.2-1.6-6.15-.62-1.3-1.48-2.42-2.61-3.31-2.89-2.28-6.9-2.81-10.08.9-4.41,5.15-4.26,11.06-.18,16.94.8,1.15,1.56,2.11,2.44,3.22,2.49,3.18,4.4,6.14,7.08,8.81,2.27,2.26,5.75,6.4,7.51,9.08,1.04,1.59,1.94,3.25,2.45,5.1,2.13,7.74-3.01,14.44-11.05,14.36-2.91-.03-5.61-.88-8.01-2.51-2.95-2-5.5-4.47-7.93-7.07-.73-.78-1.28-1.69-1.61-2.73-.43-1.37-.19-2.58.77-3.62.99-1.07,2.27-1.24,3.6-.86,1.27.36,2.35,1.11,3.34,1.97,1.34,1.17,2.63,2.38,3.97,3.54.8.69,1.63,1.37,2.51,1.97,1.1.75,2.36,1.05,3.7.99,2.29-.1,3.46-1.64,2.74-3.84-.36-1.11-.97-2.16-1.61-3.14-1.49-2.29-2.81-4.85-4.76-6.77-3.13-3.52-6.35-7.92-9.32-10.81-3.13-3.05-5.22-6.69-6.31-10.92-2.14-8.25.14-15.25,6.3-20.91,4.27-3.92,9.36-4.86,14.86-2.8,3.91,1.46,6.94,4,8.98,7.67,1.28,2.29,2.23,4.73,2.59,7.32.43,3.04.95,6.09.95,9.19Z"/>
      <path class="cls-2" d="m600.21,38.37c-1.63,1.06-3.53,1.3-5.42,1.51-2,.21-4.01.32-6.01.53-2.01.21-2.08.28-2.1,2.44-.03,2.84,0,6-.03,8.84-.05,5.56-.12,9.16-.2,14.72-.12,8.64.45,17.26,1.02,25.87.13,2.02.27,4.02-.39,5.98-.48,1.44-1.36,2.49-2.98,2.67-1.61.18-2.89-.55-3.69-2.19-.73-1.51-1-3.15-1.1-4.81-.55-8.85-1.13-17.71-.81-26.59,0-7.93,0-14.22,0-22.15,0-.95.01-1.89-.04-2.84-.06-1.11-.46-2.18-1.53-2.12-2.24.13-4.48.35-6.72.54-.59.05-1.17.25-1.75.25-1.76,0-3.2-1.07-3.78-2.72-.58-1.64-.08-3.03,1.07-4.22.67-.69,1.52-1.14,2.48-1.28,1.52-.22,3.04-.52,4.57-.6,6.85-.37,13.7-.04,20.56-.32,1.53-.06,3.07.03,4.6.16.68.06,1.4.28,2.01.6,2.48,1.33,2.6,4.18.23,5.71Z"/>
      <path class="cls-2" d="m655.03,67.14c-.47,6.14-.99,12.27-2.46,18.28-.53,2.19-1.17,4.34-2.1,6.4-.93,2.07-2.15,3.94-3.79,5.53-2.61,2.52-5.76,3.73-9.35,3.6-1.76-.06-3.54-.36-5.26-.77-6.27-1.49-10.4-5.33-12.38-11.5-1.02-3.18-1.62-6.42-1.96-9.72-.48-4.71-.8-9.44-.86-14.18-.03-2.25-.17-4.5-.26-6.74-.03,0-.05,0-.08,0-.08-4.74-.18-15.34-.24-20.07-.01-.94-.01-1.91.19-2.82.45-2.05,2.14-3.31,4.1-3.22,1.86.09,3.25,1.26,3.65,3.28.23,1.15.24,2.35.28,3.53.31,9.7.28,25.29,1.03,34.97.22,2.83.58,5.65.95,8.47.14,1.05.44,2.09.76,3.1,1.52,4.93,4.42,7.13,9.59,7.46,2.25.14,3.89-.73,5.14-2.51.97-1.38,1.54-2.93,2.02-4.52,1.01-3.29,1.58-6.68,2-10.09.84-6.82,1.22-13.68,1.11-20.55-.06-3.91-.1-13.03-.15-16.93-.02-1.32.08-2.61.62-3.82.62-1.41,1.66-2.3,3.25-2.35,1.58-.06,2.71.72,3.45,2.07.63,1.17.9,2.46.92,3.76.09,8.05.45,21.31-.17,29.36Z"/>
      <path class="cls-2" d="m704.92,71.61c-.01,3.69-.37,8.3-1.68,11.78-2.36,6.26-6.44,10.95-12.54,13.8-3.67,1.71-7.56,2.7-11.5,3.49-1.38.28-2.82.41-4.23.09-1.53-.35-2.55-1.34-2.74-2.88-.36-2.93-.69-5.86-.92-8.8-.9-11.66-.93-24.36-1.28-36.07-.14-4.85-.17-9.7-.34-14.54-.07-1.92.5-3.43,1.93-4.73,1.54-1.4,3.26-1.9,5.23-1.3,3.05.93,6.13,1.78,9.02,3.16,5.73,2.75,10.16,6.88,13.11,12.51,3.85,7.35,5.92,15.16,5.94,23.49Zm-14.1-21.1c-2.37-4.01-6.01-6.6-10.32-8.25-.64-.24-1.31-.58-2.04-.24-.48.62-.36,1.35-.34,2.04.37,15.57.22,32.13,1.73,47.91,2.68-.45,4.82-1.11,6.88-2,4.36-1.89,7.27-5.13,8.86-9.59.6-1.68.97-4.4,1.08-6.16.5-8.5-1.52-16.41-5.84-23.71Z"/>
      <path class="cls-2" d="m728.6,95.61c-.08.82-.16,1.66-.4,2.45-.55,1.8-1.94,2.87-3.61,2.9-1.8.03-3.34-1.13-3.81-3.1-.25-1.02-.25-2.11-.26-3.17-.03-2.49.07-4.97,0-7.46-.17-6.51-.41-13.02-.63-19.92,0-8.13-.26-19.59-.63-28.1-.05-1.18-.1-2.39.1-3.54.35-2.09,1.99-3.48,3.89-3.52,1.92-.04,3.5,1.23,3.96,3.39.25,1.15.31,2.35.34,3.52.29,11.01.55,24.95.83,35.96.1,4.02.22,8.05.39,12.07.11,2.84.11,5.68-.16,8.52Z"/>
      <path class="cls-2" d="m779.77,85.42c-.47,2.33-1.18,4.59-2.29,6.69-5.3,10.09-15.77,11.36-23.87,4.76-3.83-3.12-6.45-7.19-8.04-11.91-1.69-4.98-2.39-11.75-2.44-16.98-.05-5.83.78-11.55,2.59-17.11,2.32-7.09,6.46-12.83,12.58-17.13,1.41-.99,2.98-1.43,4.68-1.35,5.02.23,9.14,2.17,12.08,6.36,2.08,2.96,3.17,6.33,4.01,9.79,1.53,6.36,2.07,12.83,2.02,19.36.05,5.33-.26,12.27-1.32,17.51Zm-6.91-17.23c-.09-2.84-.12-5.68-.3-8.51-.11-1.77-.4-3.52-.67-5.28-.45-2.93-1.13-5.81-2.27-8.55-.73-1.76-1.7-3.39-3.48-4.35-.99-.53-1.93-.67-3.05-.27-1.97.71-3.5,1.94-4.83,3.49-2.19,2.55-3.68,5.51-4.7,8.69-2.72,8.43-3.01,18.58-.77,27.17.88,3.39,2.5,6.37,4.92,8.91.9.95,1.89,1.8,3.1,2.33,3.48,1.54,5.96,1.29,8.63-2.31.69-.93,1.16-2.07,1.55-3.17.43-1.22.7-2.5.95-3.78.84-4.2.83-10.1.91-14.36Z"/>
      <path class="cls-2" d="m829.86,57.62c-.09,1.53-.02,3.09-.3,4.59-.35,1.89-1.99,3.09-3.81,3.1-1.99.01-3.52-1.28-3.92-3.4-.15-.81-.15-1.65-.2-2.47-.16-2.48-.29-4.96-.49-7.44-.18-2.13-.66-4.2-1.6-6.15-.62-1.3-1.48-2.42-2.61-3.31-2.89-2.28-6.9-2.81-10.08.9-4.41,5.15-4.26,11.06-.18,16.94.8,1.15,1.56,2.11,2.44,3.22,2.49,3.18,4.4,6.14,7.08,8.81,2.27,2.26,5.75,6.4,7.51,9.08,1.04,1.59,1.94,3.25,2.45,5.1,2.13,7.74-3.01,14.44-11.05,14.36-2.91-.03-5.61-.88-8.01-2.51-2.95-2-5.5-4.47-7.93-7.07-.73-.78-1.28-1.69-1.61-2.73-.43-1.37-.19-2.58.77-3.62.99-1.07,2.27-1.24,3.6-.86,1.27.36,2.35,1.11,3.34,1.97,1.34,1.17,2.63,2.38,3.97,3.54.8.69,1.63,1.37,2.51,1.97,1.1.75,2.36,1.05,3.7.99,2.29-.1,3.46-1.64,2.74-3.84-.36-1.11-.97-2.16-1.61-3.14-1.49-2.29-2.81-4.85-4.76-6.77-3.13-3.52-6.35-7.92-9.32-10.81-3.13-3.05-5.22-6.69-6.31-10.92-2.14-8.25.14-15.25,6.3-20.91,4.27-3.92,9.36-4.86,14.86-2.8,3.91,1.46,6.94,4,8.98,7.67,1.28,2.29,2.23,4.73,2.59,7.32.43,3.04.95,6.09.95,9.19Z"/>
    </g>
    <g>
      <path class="cls-2" d="m204.69,132.32c-.58.37-1.25.46-1.91.53-.71.08-1.41.11-2.12.19-.71.07-.73.1-.74.86-.01,1,0,2.12-.01,3.12-.02,1.96-.04,3.23-.07,5.2-.04,3.05.16,6.09.36,9.13.05.71.09,1.42-.14,2.11-.17.51-.48.88-1.05.94-.57.06-1.02-.19-1.3-.77-.26-.53-.35-1.11-.39-1.7-.2-3.12-.4-6.25-.29-9.38,0-2.8,0-5.02,0-7.81,0-.33,0-.67-.01-1-.02-.39-.16-.77-.54-.75-.79.05-1.58.12-2.37.19-.21.02-.41.09-.62.09-.62,0-1.13-.38-1.33-.96-.2-.58-.03-1.07.38-1.49.24-.25.53-.4.88-.45.54-.08,1.07-.18,1.61-.21,2.42-.13,4.83-.01,7.25-.11.54-.02,1.08.01,1.62.06.24.02.49.1.71.21.87.47.92,1.47.08,2.02Z"/>
      <path class="cls-2" d="m223.52,132.24c-.07,3.01-.15,6.13-.22,9.14l-.07,9.15c0,.54-.01,1.09-.05,1.63-.02.33-.08.67-.17.98-.24.81-.8,1.28-1.39,1.21-.61-.07-1.08-.61-1.19-1.43-.07-.49-.07-1-.07-1.5,0-1.55.02-4.47.03-6.02,0-.29,0-.59-.02-.88-.02-.23-.17-.39-.39-.41-.79-.09-1.58-.23-2.37-.23-1.21,0-2.42.09-3.63.15-.62.03-.69.09-.7.77-.02,1.34-.01,4.05-.01,5.39,0,.5.04,1.35.02,1.85-.02.42-.06.84-.16,1.24-.17.67-.64,1.09-1.2,1.12-.57.03-1.06-.33-1.29-.99-.11-.31-.17-.65-.22-.98-.04-.25-.03-.5-.04-.75-.05-3.89-.03-9.5.13-13.38.08-2,.12-4.01.17-6.01.01-.42,0-.84.15-1.24.22-.6.74-1,1.31-1,.57,0,1.1.39,1.33.97.14.36.15.74.14,1.11-.03,1.17-.06,2.34-.1,3.51-.04,1.46-.1,2.92-.14,4.39,0,.25,0,.5.02.75.02.18.14.3.33.31.21.01.42,0,.62,0,.92-.03,1.84-.05,2.76-.08.92-.03,1.84.01,2.75.18.38.07.53-.07.55-.46.01-.21,0-.42.01-.63.07-2.55.14-5.21.22-7.76,0-.33.02-.67.09-1,.18-.78.83-1.27,1.53-1.2.67.07,1.17.59,1.25,1.35.03.25.01.5,0,.75Z"/>
      <path class="cls-2" d="m238.71,153.84c-.39.35-.77.4-1.26.49-.53.1-1.12.05-1.73.04-1.29-.01-2.47-.03-3.84-.05-.21,0-.43-.01-.64-.01-1.07,0-1.64-.4-1.78-1.45-.14-1.12-.23-2.25-.29-3.37-.14-2.67-.25-5.46-.41-9.19-.16-1.94-.07-4.95-.15-7.96,0-.17,0-.34,0-.5.1-.95.77-1.62,1.72-1.67.42-.02.84.01,1.25.02,1.5.03,3.01.05,4.51.09.54.02,1.08.07,1.62.15.24.03.49.13.7.26.86.52.85,1.65,0,2.16-.48.28-1.02.36-1.57.36-1.34-.02-2.67-.03-4.01-.06-1.34-.03-1.29-.05-1.27,1.3.03,1.92.07,3.84.12,5.76.01.55.13.64.69.63.88-.02,1.75-.07,2.63-.1.47-.02.92.06,1.33.28.89.48.94,1.58.11,2.15-.32.22-.67.34-1.05.37-.71.06-1.41.12-2.12.18-.33.03-.67.03-1,.06-.25.02-.37.18-.39.41-.02.17-.01.33,0,.5.09,1.96.19,4.04.29,6,.03.56.12,1.08.71,1.01,1.2-.13,2.41-.05,3.61-.16.45-.04.92-.03,1.37.01.42.04.65.2.84.39.56.57.62,1.35.02,1.89Z"/>
      <path class="cls-2" d="m266.22,148.92c-.17.82-.42,1.62-.81,2.36-1.87,3.56-5.56,4.01-8.42,1.68-1.35-1.1-2.27-2.54-2.84-4.2-.59-1.76-.84-4.15-.86-5.99-.02-2.06.27-4.07.91-6.04.82-2.5,2.28-4.53,4.44-6.04.5-.35,1.05-.5,1.65-.48,1.77.08,3.22.77,4.26,2.25.73,1.04,1.12,2.23,1.41,3.45.54,2.24.73,4.53.71,6.83.02,1.88-.09,4.33-.47,6.18Zm-2.44-6.08c-.03-1-.04-2-.11-3-.04-.62-.14-1.24-.24-1.86-.16-1.03-.4-2.05-.8-3.02-.26-.62-.6-1.2-1.23-1.53-.35-.19-.68-.24-1.07-.1-.69.25-1.24.68-1.71,1.23-.77.9-1.3,1.95-1.66,3.06-.96,2.97-1.06,6.56-.27,9.59.31,1.2.88,2.25,1.74,3.14.32.34.67.63,1.09.82,1.23.54,2.1.46,3.05-.81.24-.33.41-.73.55-1.12.15-.43.25-.88.34-1.33.3-1.48.29-3.56.32-5.07Z"/>
      <path class="cls-2" d="m281.53,132.71c-.48.28-1.02.36-1.57.35-1.34-.02-2.67-.03-4.01-.06-1.34-.03-1.29.06-1.27,1.41.03,1.92.07,3.84.12,5.76.01.55.13.64.69.63.88-.02,1.75-.07,2.63-.1.47-.02.92.06,1.33.28.89.48.94,1.58.11,2.15-.32.22-.67.34-1.05.37-.71.06-1.41.12-2.12.18-.33.03-.67.03-1,.06-.25.02-.37.18-.39.41-.02.17-.01.33,0,.5.09,1.96.19,4.04.29,6,0,0,.02.16.05.43.03.35.07,1.01.08,1.68.02,1.2-.27,1.42-.42,1.49-.16.08-.63.14-.63.14-1.07,0-1.64-.4-1.78-1.45-.14-1.12-.23-2.36-.29-3.48-.14-2.67-.24-5.46-.41-9.19-.16-1.94-.07-4.95-.15-7.96,0-.17,0-.34,0-.5.1-.95.77-1.62,1.72-1.67.42-.02.83.01,1.25.02,1.5.03,3.01-.07,4.51-.02.54.02,1.08.07,1.62.15.24.03.49.13.7.26.86.52.85,1.65,0,2.16Z"/>
      <path class="cls-2" d="m297.04,132.71c-.48.28-1.02.36-1.57.35-1.34-.02-2.67-.03-4.01-.06-1.34-.03-1.29.06-1.27,1.41.03,1.92.07,3.84.12,5.76.01.55.13.64.69.63.88-.02,1.75-.07,2.63-.1.47-.02.92.06,1.33.28.89.48.94,1.58.11,2.15-.32.22-.67.34-1.05.37-.71.06-1.41.12-2.12.18-.33.03-.67.03-1,.06-.25.02-.37.18-.39.41-.01.17-.01.33,0,.5.09,1.96.19,4.04.29,6,0,0,.02.16.05.43.03.35.07,1.01.08,1.68.02,1.2-.27,1.42-.42,1.49-.16.08-.62.14-.62.14-1.07,0-1.64-.4-1.78-1.45-.14-1.12-.23-2.36-.29-3.48-.14-2.67-.25-5.46-.41-9.19-.16-1.94-.07-4.95-.15-7.96,0-.17,0-.34.01-.5.1-.95.77-1.62,1.72-1.67.42-.02.84.01,1.25.02,1.5.03,3.01-.07,4.51-.02.54.02,1.08.07,1.62.15.24.03.49.13.7.26.86.52.85,1.65,0,2.16Z"/>
      <path class="cls-2" d="m306.05,152.51c-.03.29-.06.59-.14.86-.19.64-.68,1.01-1.27,1.02-.63.01-1.18-.4-1.35-1.09-.09-.36-.09-.74-.09-1.12,0-.88.02-1.76,0-2.63-.06-2.3-.14-4.59-.22-7.03,0-2.87-.09-6.91-.22-9.92-.02-.42-.03-.84.03-1.25.12-.74.7-1.23,1.37-1.24.68-.02,1.23.44,1.4,1.2.09.4.11.83.12,1.24.1,3.88.19,8.8.29,12.69.04,1.42.08,2.84.13,4.26.04,1,.04,2-.05,3Z"/>
      <path class="cls-2" d="m323.68,153.18c-.22.18-.48.35-.75.45-1.14.41-2.32.75-3.53.77-1.44.02-2.81-.37-4.05-1.12-1.66-1.01-2.87-2.4-3.58-4.22-.3-.78-.54-1.59-.67-2.41-.58-3.64-.4-7.7.73-11.23.36-1.12.87-2.17,1.6-3.1,2.31-2.99,5.51-2.4,7.46-.33.46.49.86,1.03,1.17,1.62.96,1.8,1.45,4.53,1.59,6.55.02.33-.02.67-.11.99-.17.63-.81,1.06-1.42,1.01-.59-.04-1.11-.46-1.26-1.06-.06-.24-.06-.5-.08-.75-.12-1.25-.41-3.27-.85-4.45-.25-.67-.61-1.28-1.08-1.82-.25-.29-.53-.53-.87-.7-.63-.32-1.22-.29-1.74.18-.3.28-.57.61-.81.95-.41.59-.67,1.25-.89,1.93-.6,1.89-.88,3.82-.83,5.8,0,1.34.04,3.13.35,4.44.31,1.33.84,2.54,1.89,3.46,1.31,1.14,2.8,1.61,4.53,1.17.45-.11.89-.22,1.34-.31.45-.08.92-.12,1.37.02.46.14.82.41.92.93.1.49-.05.92-.43,1.23Z"/>
      <path class="cls-2" d="m332.52,152.51c-.03.29-.06.59-.14.86-.19.64-.68,1.01-1.27,1.02-.63.01-1.18-.4-1.35-1.09-.09-.36-.09-.74-.09-1.12,0-.88.02-1.76,0-2.63-.06-2.3-.14-4.59-.22-7.03,0-2.87-.09-6.91-.22-9.92-.02-.42-.03-.84.03-1.25.12-.74.7-1.23,1.37-1.24.68-.02,1.23.44,1.4,1.2.09.4.11.83.12,1.24.1,3.88.19,8.8.29,12.69.04,1.42.08,2.84.13,4.26.04,1,.04,2-.05,3Z"/>
      <path class="cls-2" d="m350.97,153.71c-.37.7-1.16.9-1.8.44-.35-.25-.58-.6-.72-1-.18-.56-.34-1.35-.48-1.91-.36-1.46-.71-3.73-1.05-5.19-.29-1.22-.31-1.08-1.3-1.06-1.04.02-2.09.08-3.13.14-.51.03-.54.06-.65.58-.15.65-.26,2.12-.39,2.77-.27,1.35-.55,2.7-.83,4.05-.05.24-.11.49-.2.72-.31.85-.96,1.24-1.73,1.06-.71-.17-1.09-.78-1.04-1.72.01-.08.03-.25.07-.41.89-4.42,1.61-9.67,2.21-12.53.46-2.21.98-4.4,1.71-6.54.16-.47.33-.95.53-1.4.13-.3.28-.61.49-.87.7-.91,1.8-.97,2.62-.16.43.42.68.95.88,1.5.43,1.22.86,2.44,1.24,3.68,1.18,3.9,2.34,10.19,3.62,15.67.08.36.12.97.15,1.34.03.29-.05.58-.19.84Zm-5.23-11.67c-.09-1.18-1.1-5.51-1.7-6.66-.62,1.59-1.35,5.6-1.36,6.72,1.02.07,2.04.06,3.05-.06Z"/>
      <path class="cls-2" d="m369.04,152.99c-.03.56-.5,1.05-1.13,1.18-.32.07-.66.06-.99.06-1.21,0-2.42,0-3.63,0v.03c-.83.04-1.67.08-2.5.11-.38.02-.75.02-1.13.02-1.65,0-2.2-.46-2.37-2.08-.16-1.58-.31-3.16-.39-4.74-.21-4.17-.56-10.05-.6-14.23,0-.42-.05-.83-.06-1.25,0-.25-.02-.5.02-.75.1-.64.54-1.08,1.13-1.17.6-.09,1.14.19,1.46.75.22.38.26.79.27,1.21.07,1.54.13,3.08.19,4.63.16,3.96.41,9.64.71,13.59.01.12.02.25.03.37.07.67.11.73.74.72,1.25-.02,2.5-.07,3.75-.13.92-.04,1.84-.07,2.75.07.33.05.66.1.96.27.51.3.81.72.78,1.32Z"/>
      <path class="cls-2" d="m393.19,138.77c-.48,1.92-1.64,3.26-3.44,4.03-1.16.5-2.37.82-3.63.91-.21.02-.42.04-.62.07-.18.03-.31.15-.32.33-.02.33-.03.67-.02,1,.08,2.21.18,4.43.26,6.64.02.46.02.92-.04,1.38-.1.72-.58,1.2-1.2,1.26-.59.06-1.17-.35-1.43-1.01-.16-.4-.17-.82-.18-1.23l-.36-9.9c-.07-3.18-.14-6.35-.21-9.53,0-.17,0-.34,0-.5.08-1.17.91-2.01,2.1-2.07,2.96-.15,5.53.76,7.57,2.94,1.5,1.6,2.06,3.49,1.52,5.67Zm-3.16-3.02c-1.06-1.62-2.62-2.54-4.6-2.62-.37-.02-.51.14-.52.53,0,1.08,0,2.17,0,3.25v3.54c0,.33.33.42.65.4,1.09-.07,2.15-.29,3.14-.76,1.66-.79,2.33-2.81,1.32-4.34Z"/>
      <path class="cls-2" d="m411.39,148.92c-.17.82-.42,1.62-.81,2.36-1.87,3.56-5.56,4.01-8.42,1.68-1.35-1.1-2.27-2.54-2.84-4.2-.59-1.76-.84-4.15-.86-5.99-.02-2.06.27-4.07.91-6.04.82-2.5,2.28-4.53,4.44-6.04.5-.35,1.05-.5,1.65-.48,1.77.08,3.22.77,4.26,2.25.73,1.04,1.12,2.23,1.41,3.45.54,2.24.73,4.53.71,6.83.02,1.88-.09,4.33-.47,6.18Zm-2.44-6.08c-.03-1-.04-2-.11-3-.04-.62-.14-1.24-.24-1.86-.16-1.03-.4-2.05-.8-3.02-.26-.62-.6-1.2-1.23-1.53-.35-.19-.68-.24-1.07-.1-.69.25-1.24.68-1.71,1.23-.77.9-1.3,1.95-1.66,3.06-.96,2.97-1.06,6.56-.27,9.59.31,1.2.88,2.25,1.74,3.14.32.34.67.63,1.09.82,1.23.54,2.1.46,3.05-.81.24-.33.41-.73.55-1.12.15-.43.25-.88.34-1.33.3-1.48.29-3.56.32-5.07Z"/>
      <path class="cls-2" d="m430.08,154.09c-.43.36-.92.36-1.42.18-.52-.2-.92-.58-1.27-.99-1.03-1.21-2.21-2.51-3.34-3.62-1.07-1.06-2.19-2.07-3.46-2.88-.17-.11-.32-.27-.76-.21.04.97.08,1.93.13,2.89.05.96.11,1.92.14,2.88.01.37-.02.76-.12,1.11-.14.52-.5.87-1.06.95-.56.08-1.06-.19-1.34-.72-.18-.34-.26-.7-.3-1.08-.05-.62-.14-1.25-.17-1.87-.16-3.63-.33-7.26-.17-10.9.1-2.25.08-4.86.12-7.11,0-.33-.02-.67.03-1,.15-1.08.81-1.64,1.89-1.57.45.03.91.13,1.35.25,2.1.56,3.98,1.51,5.46,3.14,1.65,1.82,2.33,4.27,1.83,6.7-.4,1.93-1.45,3.34-3.31,4.11-.38.16-.82.18-1.13.49-.01.32.26.39.44.54,2.13,1.82,4.15,3.98,6.01,6.08.3.34.59.71.74,1.15.21.59.1,1.16-.29,1.5Zm-7.03-12.38c1-.35,1.56-1.09,1.75-2.1.23-1.25-.02-2.75-.83-3.76-.91-1.14-2.08-1.91-3.46-2.38-.3-.1-.49.02-.51.34l-.17,3.88c0,.75,0,1.85,0,2.6.02,2.51-.48,2.31,2.25,1.72.32-.07.64-.18.96-.29Z"/>
      <path class="cls-2" d="m446.94,132.32c-.58.37-1.25.46-1.91.53-.71.08-1.41.11-2.12.19-.71.07-.73.1-.74.86-.01,1,0,2.12-.01,3.12-.02,1.96-.04,3.23-.07,5.2-.04,3.05.16,6.09.36,9.13.05.71.1,1.42-.14,2.11-.17.51-.48.88-1.05.94-.57.06-1.02-.19-1.3-.77-.26-.53-.35-1.11-.39-1.7-.19-3.12-.4-6.25-.29-9.38v-7.81c0-.33,0-.67-.02-1-.02-.39-.16-.77-.54-.75-.79.05-1.58.12-2.37.19-.21.02-.41.09-.62.09-.62,0-1.13-.38-1.33-.96-.2-.58-.03-1.07.38-1.49.24-.25.53-.4.88-.45.54-.08,1.07-.18,1.61-.21,2.42-.13,4.84-.01,7.25-.11.54-.02,1.09.01,1.62.06.24.02.5.1.71.21.88.47.92,1.47.08,2.02Z"/>
      <path class="cls-2" d="m462.41,132.71c-.48.28-1.02.36-1.57.35-1.34-.02-2.67-.03-4.01-.06-1.34-.03-1.29.06-1.27,1.41.03,1.92.07,3.84.12,5.76.01.55.13.64.69.63.88-.02,1.75-.07,2.63-.1.47-.02.92.06,1.33.28.89.48.94,1.58.11,2.15-.32.22-.67.34-1.05.37-.71.06-1.41.12-2.12.18-.33.03-.67.03-1,.06-.25.02-.37.18-.39.41-.02.17-.01.33,0,.5.09,1.96.19,4.04.29,6,0,0,.02.16.05.43.03.35.07,1.01.08,1.68.02,1.2-.27,1.42-.42,1.49-.16.08-.63.14-.63.14-1.07,0-1.64-.4-1.78-1.45-.14-1.12-.23-2.36-.29-3.48-.14-2.67-.24-5.46-.41-9.19-.16-1.94-.07-4.95-.15-7.96,0-.17,0-.34,0-.5.1-.95.77-1.62,1.72-1.67.42-.02.83.01,1.25.02,1.5.03,3.01-.07,4.51-.02.54.02,1.08.07,1.62.15.24.03.49.13.7.26.86.52.85,1.65,0,2.16Z"/>
      <path class="cls-2" d="m481.04,148.92c-.17.82-.42,1.62-.81,2.36-1.87,3.56-5.56,4.01-8.42,1.68-1.35-1.1-2.27-2.54-2.84-4.2-.59-1.76-.84-4.15-.86-5.99-.02-2.06.27-4.07.91-6.04.82-2.5,2.28-4.53,4.44-6.04.5-.35,1.05-.5,1.65-.48,1.77.08,3.22.77,4.26,2.25.73,1.04,1.12,2.23,1.41,3.45.54,2.24.73,4.53.71,6.83.02,1.88-.09,4.33-.47,6.18Zm-2.44-6.08c-.03-1-.04-2-.11-3-.04-.62-.14-1.24-.24-1.86-.16-1.03-.4-2.05-.8-3.02-.26-.62-.6-1.2-1.23-1.53-.35-.19-.68-.24-1.07-.1-.69.25-1.24.68-1.71,1.23-.77.9-1.3,1.95-1.66,3.06-.96,2.97-1.06,6.56-.27,9.59.31,1.2.88,2.25,1.74,3.14.32.34.67.63,1.09.82,1.23.54,2.1.46,3.05-.81.24-.33.41-.73.55-1.12.15-.43.25-.88.34-1.33.3-1.48.29-3.56.32-5.07Z"/>
      <path class="cls-2" d="m499.36,152.99c-.03.56-.5,1.05-1.13,1.18-.32.07-.66.06-.99.06-1.21,0-2.42,0-3.63,0v.03c-.83.04-1.67.08-2.5.11-.38.02-.75.02-1.13.02-1.65,0-2.2-.46-2.37-2.08-.16-1.58-.31-3.16-.39-4.74-.21-4.17-.56-10.05-.6-14.23,0-.42-.05-.83-.06-1.25,0-.25-.02-.5.02-.75.1-.64.54-1.08,1.13-1.17.6-.09,1.14.19,1.46.75.22.38.26.79.27,1.21.07,1.54.13,3.08.19,4.63.16,3.96.41,9.64.71,13.59.01.12.02.25.03.37.07.67.11.73.74.72,1.25-.02,2.5-.07,3.75-.13.92-.04,1.84-.07,2.75.07.33.05.66.1.96.27.51.3.81.72.78,1.32Z"/>
      <path class="cls-2" d="m506.53,152.51c-.03.29-.06.59-.14.86-.19.64-.68,1.01-1.27,1.02-.63.01-1.18-.4-1.35-1.09-.09-.36-.09-.74-.09-1.12-.01-.88.02-1.76,0-2.63-.06-2.3-.14-4.59-.22-7.03,0-2.87-.09-6.91-.22-9.92-.02-.42-.03-.84.03-1.25.12-.74.7-1.23,1.37-1.24.68-.02,1.23.44,1.4,1.2.09.4.11.83.12,1.24.1,3.88.19,8.8.29,12.69.04,1.42.08,2.84.14,4.26.04,1,.04,2-.06,3Z"/>
      <path class="cls-2" d="m524.58,148.92c-.17.82-.42,1.62-.81,2.36-1.87,3.56-5.56,4.01-8.42,1.68-1.35-1.1-2.27-2.54-2.84-4.2-.59-1.76-.84-4.15-.86-5.99-.02-2.06.28-4.07.92-6.04.82-2.5,2.28-4.53,4.44-6.04.5-.35,1.05-.5,1.65-.48,1.77.08,3.22.77,4.26,2.25.73,1.04,1.12,2.23,1.41,3.45.54,2.24.73,4.53.71,6.83.02,1.88-.09,4.33-.47,6.18Zm-2.44-6.08c-.03-1-.04-2-.11-3-.04-.62-.14-1.24-.24-1.86-.16-1.03-.4-2.05-.8-3.02-.26-.62-.6-1.2-1.23-1.53-.35-.19-.68-.24-1.07-.1-.69.25-1.24.68-1.71,1.23-.77.9-1.3,1.95-1.66,3.06-.96,2.97-1.06,6.56-.27,9.59.31,1.2.88,2.25,1.74,3.14.32.34.67.63,1.09.82,1.23.54,2.1.46,3.05-.81.24-.33.41-.73.55-1.12.15-.43.25-.88.34-1.33.3-1.48.29-3.56.32-5.07Z"/>
      <path class="cls-2" d="m552.11,148.92c-.17.82-.42,1.62-.81,2.36-1.87,3.56-5.56,4.01-8.42,1.68-1.35-1.1-2.27-2.54-2.84-4.2-.59-1.76-.84-4.15-.86-5.99-.02-2.06.28-4.07.92-6.04.82-2.5,2.28-4.53,4.44-6.04.5-.35,1.05-.5,1.65-.48,1.77.08,3.22.77,4.26,2.25.74,1.04,1.12,2.23,1.41,3.45.54,2.24.73,4.53.71,6.83.02,1.88-.09,4.33-.47,6.18Zm-2.44-6.08c-.03-1-.04-2-.11-3-.04-.62-.14-1.24-.24-1.86-.16-1.03-.4-2.05-.8-3.02-.26-.62-.6-1.2-1.23-1.53-.35-.19-.68-.24-1.07-.1-.69.25-1.23.68-1.7,1.23-.77.9-1.3,1.95-1.66,3.06-.96,2.97-1.06,6.56-.27,9.59.31,1.2.88,2.25,1.74,3.14.32.34.67.63,1.09.82,1.23.54,2.1.46,3.04-.81.24-.33.41-.73.55-1.12.15-.43.25-.88.34-1.33.3-1.48.29-3.56.32-5.07Z"/>
      <path class="cls-2" d="m567.42,132.71c-.48.28-1.02.36-1.57.35-1.34-.02-2.67-.03-4.01-.06-1.34-.03-1.29.06-1.27,1.41.03,1.92.07,3.84.12,5.76.01.55.13.64.69.63.88-.02,1.75-.07,2.63-.1.47-.02.92.06,1.33.28.89.48.94,1.58.11,2.15-.32.22-.67.34-1.05.37-.71.06-1.41.12-2.12.18-.33.03-.67.03-1,.06-.25.02-.37.18-.39.41-.02.17-.01.33,0,.5.09,1.96.19,4.04.29,6,0,0,.02.16.05.43.03.35.07,1.01.08,1.68.02,1.2-.27,1.42-.42,1.49-.16.08-.63.14-.63.14-1.07,0-1.64-.4-1.78-1.45-.14-1.12-.23-2.36-.29-3.48-.14-2.67-.24-5.46-.41-9.19-.16-1.94-.07-4.95-.15-7.96,0-.17,0-.34,0-.5.1-.95.77-1.62,1.72-1.67.42-.02.83.01,1.25.02,1.5.03,3.01-.07,4.51-.02.54.02,1.08.07,1.62.15.24.03.49.13.7.26.86.52.85,1.65,0,2.16Z"/>
      <path class="cls-2" d="m594.38,139.11c-.03.54,0,1.09-.11,1.62-.12.67-.7,1.09-1.35,1.1-.7,0-1.24-.45-1.38-1.2-.05-.29-.05-.58-.07-.87-.06-.88-.1-1.75-.17-2.62-.06-.75-.23-1.48-.56-2.17-.22-.46-.52-.85-.92-1.17-1.02-.8-2.44-.99-3.56.32-1.55,1.82-1.5,3.9-.06,5.98.28.41.55.74.86,1.14.88,1.12,1.55,2.17,2.5,3.11.8.8,2.03,2.26,2.65,3.2.37.56.69,1.15.86,1.8.75,2.73-1.06,5.1-3.9,5.07-1.03,0-1.98-.31-2.83-.89-1.04-.71-1.94-1.58-2.8-2.49-.26-.28-.45-.6-.57-.96-.15-.48-.07-.91.27-1.28.35-.38.8-.44,1.27-.3.45.13.83.39,1.18.7.47.41.93.84,1.4,1.25.28.24.58.48.88.7.39.27.83.37,1.31.35.81-.04,1.22-.58.97-1.36-.13-.39-.34-.76-.57-1.11-.52-.81-.99-1.71-1.68-2.39-1.1-1.24-2.24-2.79-3.29-3.81-1.1-1.08-1.84-2.36-2.23-3.85-.75-2.91.05-5.38,2.22-7.38,1.51-1.38,3.3-1.71,5.24-.99,1.38.52,2.45,1.41,3.17,2.71.45.81.79,1.67.91,2.58.15,1.07.33,2.15.33,3.24Z"/>
      <path class="cls-2" d="m612.06,132.32c-.58.37-1.25.46-1.91.53-.71.08-1.41.11-2.12.19-.71.07-.73.1-.74.86-.01,1,0,2.12-.01,3.12-.02,1.96-.04,3.23-.07,5.2-.04,3.05.16,6.09.36,9.13.05.71.1,1.42-.14,2.11-.17.51-.48.88-1.05.94-.57.06-1.02-.19-1.3-.77-.26-.53-.35-1.11-.39-1.7-.2-3.12-.4-6.25-.29-9.38,0-2.8,0-5.02,0-7.81,0-.33,0-.67-.01-1-.02-.39-.16-.77-.54-.75-.79.05-1.58.12-2.37.19-.21.02-.41.09-.62.09-.62,0-1.13-.38-1.33-.96-.2-.58-.03-1.07.38-1.49.24-.25.54-.4.88-.45.54-.08,1.07-.18,1.61-.21,2.42-.13,4.83-.01,7.25-.11.54-.02,1.08.01,1.62.06.24.02.49.1.71.21.87.47.92,1.47.08,2.02Z"/>
      <path class="cls-2" d="m627.84,153.84c-.39.35-.77.4-1.26.49-.53.1-1.12.05-1.73.04-1.29-.01-2.47-.03-3.84-.05-.21,0-.44-.01-.64-.01-1.07,0-1.64-.4-1.78-1.45-.14-1.12-.23-2.25-.29-3.37-.14-2.67-.24-5.46-.41-9.19-.16-1.94-.07-4.95-.15-7.96,0-.17,0-.34.01-.5.1-.95.77-1.62,1.72-1.67.42-.02.83.01,1.25.02,1.5.03,3.01.05,4.51.09.54.02,1.08.07,1.62.15.24.03.49.13.7.26.86.52.85,1.65,0,2.16-.48.28-1.02.36-1.57.36-1.34-.02-2.67-.03-4.01-.06-1.34-.03-1.29-.05-1.27,1.3.03,1.92.07,3.84.12,5.76.01.55.13.64.69.63.88-.02,1.75-.07,2.63-.1.47-.02.92.06,1.33.28.89.48.94,1.58.11,2.15-.32.22-.67.34-1.05.37-.71.06-1.41.12-2.12.18-.33.03-.67.03-1,.06-.25.02-.37.18-.39.41-.02.17-.01.33,0,.5.09,1.96.19,4.04.29,6,.03.56.12,1.08.71,1.01,1.2-.13,2.41-.05,3.61-.16.45-.04.92-.03,1.38.01.42.04.65.2.84.39.56.57.62,1.35.02,1.89Z"/>
      <path class="cls-2" d="m647.37,132.36c-.28,1.86-.68,3.7-1.13,5.52-.61,2.47-1.16,7.72-1.99,10.13-.46,1.34-.97,2.67-1.62,3.93-.3.6-.63,1.18-1.09,1.68-1.03,1.12-2.42,1.02-3.29-.23-.36-.52-.58-1.11-.78-1.7-.82-2.5-1.54-5.03-2.19-7.58-.68-2.67-1.24-8.01-1.73-10.72-.09-.49-.14-.99-.21-1.49-.04-.3-.01-.58.09-.86.18-.52.54-.84,1.08-.93.59-.09,1.06.13,1.39.63.24.36.28.78.35,1.19.82,4.91,1.96,12.38,3.43,17.13.11.36.24.71.38,1.11.45-.3.51-.65.63-.94.73-1.73,1.3-3.52,1.76-5.35.77-3.08,1.58-8.9,2.07-12.05.05-.32.16-.65.31-.95.27-.53.74-.79,1.34-.75.61.05.98.42,1.18.98.15.41.09.82.02,1.23Z"/>
      <path class="cls-2" d="m662.59,153.84c-.39.35-.77.4-1.26.49-.53.1-1.12.05-1.73.04-1.29-.01-2.47-.03-3.84-.05-.21,0-.44-.01-.64-.01-1.07,0-1.64-.4-1.78-1.45-.14-1.12-.23-2.25-.29-3.37-.14-2.67-.24-5.46-.41-9.19-.16-1.94-.07-4.95-.15-7.96,0-.17,0-.34.01-.5.1-.95.77-1.62,1.72-1.67.42-.02.83.01,1.25.02,1.5.03,3.01.05,4.51.09.54.02,1.08.07,1.62.15.24.03.49.13.7.26.86.52.85,1.65,0,2.16-.48.28-1.02.36-1.57.36-1.34-.02-2.67-.03-4.01-.06-1.34-.03-1.29-.05-1.27,1.3.03,1.92.07,3.84.12,5.76.01.55.13.64.69.63.88-.02,1.75-.07,2.63-.1.47-.02.92.06,1.33.28.89.48.94,1.58.11,2.15-.32.22-.67.34-1.05.37-.71.06-1.41.12-2.12.18-.33.03-.67.03-1,.06-.25.02-.37.18-.39.41-.02.17-.01.33,0,.5.09,1.96.19,4.04.29,6,.03.56.12,1.08.71,1.01,1.2-.13,2.41-.05,3.61-.16.45-.04.92-.03,1.38.01.42.04.65.2.84.39.56.57.62,1.35.02,1.89Z"/>
      <path class="cls-2" d="m681.51,152.03c-.02.33-.04.67-.13.99-.2.68-.59,1.21-1.33,1.35-.74.13-1.31-.19-1.71-.79-.26-.38-.47-.79-.66-1.21-.99-2.16-1.96-5.37-2.95-7.54-.73-1.59-1.46-3.19-2.22-4.77-.3-.64-.57-1.24-.9-1.87-.08-.15-.67-1.33-.67-1.33,0,0,.06,1.29.06,1.47-.05,3.01-.05,6.02.08,9.02.06,1.38.12,2.76.16,4.13.01.42,0,.83-.02,1.25-.01.34-.1.66-.28.95-.51.83-1.5.87-2.06.06-.32-.46-.43-.99-.46-1.54-.07-1.29-.16-2.59-.21-3.88-.17-4.26-.13-8.52-.09-12.78,0-.75-.02-2.77,0-3.52,0-.33.02-.67.11-.99.18-.63.84-1.1,1.43-.97.81.19,1.28.43,1.75,1.23.15.25.3.5.45.75,1.91,3.38,4.01,8.11,5.57,11.67.25.57.51,1.15.76,1.72.07.15.3.75.47,1.21,0-.3,0-1.38-.01-1.63-.21-3.38-.39-8.49-.34-11.87,0-.46.04-.92.09-1.38.02-.25.07-.5.15-.73.24-.7.77-1.09,1.39-1.05.57.04,1,.43,1.21,1.11.14.45.11.91.1,1.37-.07,3.05.14,7.82.24,10.87.04,1.17.07,2.34.12,3.51.06,1.38.02,3.79-.07,5.17Z"/>
      <path class="cls-2" d="m705.57,132.71c-.48.28-1.02.36-1.57.35-1.34-.02-2.67-.03-4.01-.06-1.34-.03-1.29.06-1.27,1.41.03,1.92.07,3.84.12,5.76.01.55.13.64.69.63.88-.02,1.75-.07,2.63-.1.47-.02.92.06,1.33.28.89.48.94,1.58.11,2.15-.32.22-.67.34-1.05.37-.71.06-1.41.12-2.12.18-.33.03-.67.03-1,.06-.25.02-.37.18-.39.41-.02.17-.01.33,0,.5.09,1.96.19,4.04.29,6,0,0,.02.16.05.43.03.35.07,1.01.08,1.68.02,1.2-.27,1.42-.42,1.49-.16.08-.63.14-.63.14-1.07,0-1.64-.4-1.78-1.45-.14-1.12-.23-2.36-.29-3.48-.14-2.67-.24-5.46-.41-9.19-.16-1.94-.07-4.95-.15-7.96,0-.17,0-.34,0-.5.1-.95.77-1.62,1.72-1.67.42-.02.83.01,1.25.02,1.5.03,3.01-.07,4.51-.02.54.02,1.08.07,1.62.15.24.03.49.13.7.26.86.52.85,1.65,0,2.16Z"/>
      <path class="cls-2" d="m721.38,153.84c-.39.35-.77.4-1.26.49-.53.1-1.12.05-1.73.04-1.29-.01-2.47-.03-3.84-.05-.21,0-.44-.01-.64-.01-1.07,0-1.64-.4-1.78-1.45-.14-1.12-.23-2.25-.29-3.37-.14-2.67-.24-5.46-.41-9.19-.16-1.94-.07-4.95-.15-7.96,0-.17,0-.34,0-.5.1-.95.77-1.62,1.72-1.67.42-.02.83.01,1.25.02,1.5.03,3.01.05,4.51.09.54.02,1.08.07,1.62.15.24.03.49.13.7.26.86.52.85,1.65,0,2.16-.48.28-1.02.36-1.57.36-1.34-.02-2.67-.03-4.01-.06-1.34-.03-1.29-.05-1.27,1.3.03,1.92.07,3.84.12,5.76.01.55.13.64.69.63.88-.02,1.75-.07,2.63-.1.47-.02.92.06,1.33.28.89.48.94,1.58.11,2.15-.32.22-.67.34-1.05.37-.71.06-1.41.12-2.12.18-.33.03-.67.03-1,.06-.25.02-.37.18-.39.41-.02.17-.01.33,0,.5.09,1.96.19,4.04.29,6,.03.56.12,1.08.71,1.01,1.2-.13,2.41-.05,3.61-.16.45-.04.92-.03,1.38.01.42.04.65.2.84.39.56.57.62,1.35.02,1.89Z"/>
      <path class="cls-2" d="m740.31,152.03c-.02.33-.04.67-.13.99-.19.68-.58,1.21-1.33,1.35-.74.13-1.31-.19-1.71-.79-.26-.38-.47-.79-.66-1.21-.99-2.16-1.96-5.37-2.95-7.54-.73-1.59-1.46-3.19-2.22-4.77-.3-.64-.57-1.24-.9-1.87-.08-.15-.67-1.33-.67-1.33,0,0,.06,1.29.06,1.47-.05,3.01-.05,6.02.08,9.02.06,1.38.12,2.76.16,4.13.01.42,0,.83-.02,1.25-.01.34-.1.66-.28.95-.51.83-1.5.87-2.06.06-.32-.46-.43-.99-.46-1.54-.07-1.29-.16-2.59-.21-3.88-.17-4.26-.13-8.52-.09-12.78,0-.75-.02-2.77,0-3.52,0-.33.02-.67.11-.99.18-.63.84-1.1,1.43-.97.81.19,1.28.43,1.75,1.23.15.25.3.5.45.75,1.91,3.38,4.01,8.11,5.57,11.67.25.57.51,1.15.76,1.72.07.15.3.75.47,1.21,0-.3,0-1.38-.01-1.63-.21-3.38-.39-8.49-.34-11.87,0-.46.04-.92.09-1.38.02-.25.07-.5.15-.73.24-.7.77-1.09,1.39-1.05.57.04,1,.43,1.21,1.11.14.45.11.91.1,1.37-.07,3.05.14,7.82.24,10.87.04,1.17.07,2.34.12,3.51.06,1.38.02,3.79-.07,5.17Z"/>
      <path class="cls-2" d="m757.97,153.18c-.22.18-.48.35-.75.45-1.14.41-2.32.75-3.53.77-1.44.02-2.81-.37-4.05-1.12-1.66-1.01-2.87-2.4-3.58-4.22-.3-.78-.54-1.59-.67-2.41-.58-3.64-.4-7.7.73-11.23.36-1.12.87-2.17,1.6-3.1,2.31-2.99,5.51-2.4,7.45-.33.46.49.86,1.03,1.18,1.62.96,1.8,1.45,4.53,1.59,6.55.02.33-.02.67-.11.99-.17.63-.81,1.06-1.42,1.01-.59-.04-1.11-.46-1.26-1.06-.06-.24-.06-.5-.08-.75-.12-1.25-.41-3.27-.85-4.45-.25-.67-.61-1.28-1.08-1.82-.25-.29-.53-.53-.87-.7-.63-.32-1.22-.29-1.74.18-.3.28-.57.61-.81.95-.41.59-.67,1.25-.89,1.93-.6,1.89-.88,3.82-.83,5.8,0,1.34.04,3.13.35,4.44.31,1.33.84,2.54,1.89,3.46,1.31,1.14,2.8,1.61,4.53,1.17.44-.11.89-.22,1.34-.31.45-.08.92-.12,1.37.02.46.14.82.41.92.93.1.49-.05.92-.43,1.23Z"/>
      <path class="cls-2" d="m776.93,153.85c-.17.12-.36.21-.56.27-.24.08-.49.14-.74.15-2.21.15-7.41.28-9.59-.33-.45-.12-.88-.26-1.27-.51-1-.63-1.37-1.57-1.02-2.7.15-.48.36-.94.59-1.38,1.38-2.67,2.72-5.36,4.16-8.01,1.46-2.68,2.82-4.55,4.24-7.24.11-.21.23-.6.29-.95-.56-.09-.98-.1-1.43-.12-2.37-.06-4.24-.18-6.03.17-.29.03-.59.07-.87.03-.63-.08-1.1-.54-1.2-1.12-.1-.61.15-1.19.7-1.48.29-.15.62-.27.94-.31,3.03-.35,6.06-.02,9.11-.1.33,0,.67,0,1,.05,1.17.2,1.7,1.06,1.37,2.21-.11.4-.29.78-.47,1.16-1.55,3.19-3.2,5.47-4.87,8.61-1.22,2.29-2.42,4.58-3.62,6.88-.31.59-.58,1.2-.86,1.78.25.36.58.42.9.44.83.05,4.66.08,5.49.09.92.01,1.84-.03,2.75.16.33.07.65.15.93.35.71.5.73,1.39.03,1.9Z"/>
      <path class="cls-2" d="m785.8,152.51c-.03.29-.06.59-.14.86-.19.64-.68,1.01-1.27,1.02-.63.01-1.18-.4-1.35-1.09-.09-.36-.09-.74-.09-1.12-.01-.88.02-1.76,0-2.63-.06-2.3-.14-4.59-.22-7.03,0-2.87-.09-6.91-.22-9.92-.02-.42-.03-.84.03-1.25.12-.74.7-1.23,1.37-1.24.68-.02,1.23.44,1.4,1.2.09.4.11.83.12,1.24.1,3.88.19,8.8.29,12.69.04,1.42.08,2.84.14,4.26.04,1,.04,2-.05,3Z"/>
      <path class="cls-2" d="m804.05,154.17c-.52.31-1.18.2-1.71-.31-.21-.2-.4-.43-.54-.68-1.14-2.11-3.4-4.71-4.85-6.6-.79-1.02-1.54-2.08-2.31-3.12-.12-.17-.26-.33-.4-.48-.05-.05-.24-.31-.31-.35-.06.12-.08.43-.08.54,0,.33,0,.67.02,1,.14,2.25.28,4.5.42,6.75.03.54.07,1.08.09,1.63.01.43-.09.84-.3,1.2-.46.81-1.53.89-2.1.15-.15-.19-.26-.43-.33-.67-.09-.32-.17-.65-.19-.98-.22-3.79-.65-7.57-.53-11.38,0-2.55,0-5.9,0-8.45,0-.42,0-.83.15-1.24.23-.62.7-1,1.29-1.02.63-.02,1.16.39,1.38,1.07.12.36.11.74.11,1.12-.01,1.13-.03,3.06-.04,4.19,0,.21,0,.42.03.62,0,.07,0,.35.06.4.07.06.24-.08.35-.23.2-.21.36-.43.56-.65,1.56-1.74,3.16-3.79,4.57-5.66.1-.13.2-.27.32-.38.51-.49,1.16-.57,1.72-.23.54.33.78.99.6,1.64-.12.46-.39.83-.68,1.19-.66.81-1.32,1.61-2.02,2.4-1.02,1.16-2.07,2.64-3.1,3.79-.53.58-.55.6-.06,1.25,1.58,2.11,3.15,4.21,4.76,6.29.92,1.19,2.49,3.22,3.2,4.54.18.33.36.67.46,1.02.2.71-.04,1.34-.56,1.65Z"/>
    </g>
    <g>
      <path class="cls-2" d="m40.8,29.97c.86-1.49,1.95-2.87,3.04-4.26.7-.05,1.34-.19,1.97-.46.27-.12.63-.07.94-.07,1.66,0,3.32.01,4.99,0,.53,0,1.05-.08,1.58-.11.32-.02.63-.04.95-.04,3.39-.04,6.79-.07,10.18-.12,1.55-.02,3.1-.08,4.65-.14.81-.04,1.62-.17,2.43-.19,1.45-.04,2.9-.02,4.35-.04,1.38-.02,2.75,0,4.13-.13,1.09-.11,2.19-.07,3.29-.07,2.26,0,4.52.03,6.78-.19.56-.05,1.13-.02,1.7-.05.78-.03,1.55-.08,2.33-.12.28-.01.57-.02.85-.03.92-.02,1.83-.05,2.75-.17.77-.1,1.55-.05,2.33-.08.6-.03,1.2-.09,1.79-.13.28-.02.56-.05.85-.05,2.72,0,5.44-.02,8.17-.01.6,0,1.19.1,1.79.14.32.02.63.04.95.05,2.29.08,4.59.16,6.88.24.21,0,.42,0,.64.02,2.58.08,5.16.16,7.73.24.99.03,1.98.07,2.96.16,1.19.1,2.39.18,3.58.35,1.43.2,2.88.29,4.33.26.42,0,.84.02,1.31.03.22.22.51.41.64.68.34.69.86,1.19,1.44,1.61.39.86.37,1.75.42,2.62.09,1.41.12,2.82.17,4.23.02.67.02,1.34.04,2.01.02,1.16.02,2.33.1,3.49.09,1.2.05,2.4.02,3.6-.02,1.2-.11,2.4-.13,3.6-.02,2.12-.01,4.24,0,6.36,0,2.19.02,4.38.02,6.58,0,1.52-.04,3.04.02,4.56.18,4.27.1,8.55.14,12.83.05,4.28.01,8.56.01,12.83,0,9.51,0,19.02,0,28.53,0,2.09-.03,4.17.03,6.26.06,1.94.24,3.87.34,5.81.05,1.06,0,2.12.08,3.18.13,1.8.04,3.61.22,5.39.13,1.38.12,2.75.14,4.13.02,1.03,0,2.05.03,3.08.01.42.06.85.13,1.26.18,1.15.02,2.24-.51,3.28-.1.19-.22.37-.28.57-.26.84-.86,1.45-1.45,2.05-.27.28-.52.55-.7.91-.36.7-.88,1.27-1.66,1.55-.43.16-.83.39-1.36.65-.54.02-1.21.05-1.88.06-.81.01-1.63-.02-2.44.03-.7.04-1.4.16-2.1.25-.35.04-.7.13-1.04.13-1.24.02-2.47,0-3.71.03-.6.01-1.19.1-1.79.12-1.02.04-2.05.08-3.07.08-3.08.01-6.15,0-9.23,0-1.45,0-2.9.05-4.34-.08-1.49-.12-2.96-.11-4.45-.1-.74,0-1.48.11-2.22.12-1.34.02-2.69.01-4.03.02-2.05,0-4.1.03-6.15.02-1.2,0-2.4-.08-3.6-.12-.25,0-.49-.02-.74-.01-.85.03-1.69.09-2.54.11-.85.02-1.7.03-2.54.01-1.17-.02-2.33-.05-3.49-.12-1.97-.1-3.95-.13-5.93.06-.35.03-.71.03-1.06.03-2.4.02-4.81.05-7.21.06-1.84,0-3.67-.03-5.51-.04-1.17,0-2.33-.01-3.49.17-.31.05-.64,0-.95.03-1.26.12-2.52.26-3.79.37-.84.07-1.69.08-2.6.12-.13.08-.3.19-.54.33h-4.38c-.88-.65-1.82-1.35-2.74-2.03-.15-.32-.28-.6-.41-.88-.86-.73-1.09-.64-.98-2.16,0-.14,0-.28,0-.41.17-.25.32-.49.47-.71-.12-.65-.22-1.27-.35-1.89-.03-.16-.16-.31-.3-.55,0-2.42,0-4.93,0-7.44,0-5.59.03-11.17.03-16.76,0-1.31-.03-2.62-.06-3.92,0-.18-.03-.35-.05-.53-.04-.53-.12-1.05-.12-1.58,0-1.98-.03-3.96.03-5.94.03-1.09-.07-2.19,0-3.27.11-1.73.05-3.46.1-5.19.02-.6-.02-1.19-.1-1.79-.08-.66-.06-1.34.02-2.01.12-1.06.12-2.11.1-3.17-.02-.95-.04-1.91-.08-2.85-.05-1.06-.08-2.12-.08-3.18,0-.67.08-1.34.11-2.01.02-.42.03-.85.04-1.27.03-1.87.05-3.75.08-5.62,0-.21-.01-.43.04-.63.16-.63.15-1.27.14-1.9-.02-1.59.04-3.17.23-4.76.09-.77.12-1.54.13-2.31.05-4.21.09-8.41.12-12.62,0-.85-.02-1.7,0-2.55,0-.49.09-.98.1-1.47.02-.49.06-1-.02-1.48-.1-.64-.08-1.26-.03-1.89.08-1.02.11-2.04,0-3.06-.1-.94-.13-1.9.05-2.85.02-.1.04-.21.04-.31,0-1.27.22-2.53.2-3.8-.02-1.84.02-3.68.05-5.51,0-.46.11-.91.12-1.37.05-1.84.09-3.67.11-5.51,0-.34-.14-.68-.26-1.19Zm6.31,6.41c0,.16,0,.44,0,.72,0,2.37,0,4.74,0,7.11,0,2.44-.04,4.88.02,7.32.1,4.52,0,9.04.14,13.57.15,5.12.1,10.25.14,15.38,0,.35.04.71.05,1.06.02.71.05,1.41.04,2.12,0,.71-.07,1.41-.07,2.12,0,.63.07,1.27.08,1.9.03,4.21.07,8.41.08,12.62.01,8.31,0,16.62,0,24.92,0,.32-.05.65.02.95.2.98.12,1.97.13,2.96.02,1.38-.03,2.76.01,4.14.05,1.8-.09,3.6.22,5.39.02.14.02.28.02.42.01,1.94.04,3.89.03,5.83,0,.7-.03,1.41-.19,2.11-.09.39-.13.83.1,1.27.22,0,.43,0,.64,0,3.32,0,6.65,0,9.97.03,2.15.02,4.31.08,6.46.11,1.66.02,3.32,0,4.99,0,.25,0,.5.02.74,0,1.34-.16,2.68-.11,4.02-.1,1.73.02,3.46.1,5.19.1,4.74.01,9.47,0,14.21,0,7.39,0,14.78,0,22.17,0,3.61,0,7.21.02,10.82.02,2.79,0,5.59-.02,8.38-.04.24,0,.47-.05.76-.08.01-.36.04-.68.04-.99,0-5.55-.01-11.1-.03-16.65,0-1.13.03-2.27-.07-3.39-.09-1.06-.12-2.11-.11-3.17,0-.64,0-1.27,0-1.91,0-3.64.03-7.28.02-10.92,0-1.31,0-2.62-.19-3.92-.04-.31-.01-.63-.01-.95,0-.32.01-.63,0-.95-.03-1.59-.16-3.18-.06-4.77.04-.63.05-1.27.03-1.9-.04-1.2-.09-2.4.11-3.6.03-.17.02-.35.02-.53.02-2.86.05-5.73.07-8.59,0-.28-.03-.57.02-.85.17-.84.12-1.69.14-2.54.02-.85.03-1.7.08-2.54.02-.35.04-.69,0-1.05-.06-.56-.01-1.13.02-1.69.03-.6.12-1.19.13-1.79.03-1.1.02-2.19.05-3.29.02-.81.11-1.62.12-2.43.03-2.19.03-4.38.06-6.57,0-.7.11-1.41.11-2.11.02-3.25.01-6.51.03-9.76,0-.74,0-1.49.09-2.22.09-.67.1-1.34.11-2.01.02-2.4.04-4.81.05-7.21,0-.21.02-.42.02-.64,0-1.87.02-3.75.01-5.62,0-.19-.13-.37-.19-.53-.52-.07-.97-.14-1.42-.19-.74-.08-1.47-.19-2.21-.23-.95-.05-1.91-.05-2.86-.07-.32,0-.63-.02-.95-.04-.42-.03-.84-.08-1.26-.1-.49-.03-.99-.03-1.48-.05-.84-.04-1.69-.14-2.53-.14-3.85-.02-7.7,0-11.55-.26-.67-.04-1.33-.14-2-.16-1.1-.03-2.19-.04-3.29-.02-1.8.04-3.6.1-5.4.17-1.34.05-2.68.12-4.02.19-.49.03-.98.1-1.47.16-.18.02-.35.04-.53.04-1.24.03-2.47.05-3.71.07-.32,0-.64.01-.95.03-1.76.1-3.52.23-5.28.29-1.84.06-3.68.03-5.51.07-.67.01-1.34.13-2.01.14-.85,0-1.69-.07-2.54-.07-1.34.01-2.68.06-4.02.11-.64.02-1.27.07-1.91.11-.63.04-1.27.11-1.9.12-3.39.06-6.78-.1-10.17.19-1.02.09-2.05.04-3.07.01-1.06-.03-2.09.31-3.16.09-.33-.07-.71.13-1.05.07-.75-.13-1.47.07-2.25.08-.42.78-.84,1.55-1.37,2.52Z"/>
      <path class="cls-2" d="m124.77,68.93c.26.64.23,1.22.23,1.78.03,2.05.04,4.1.05,6.15,0,.67,0,1.34,0,2-.15.06-.25.13-.34.13-1.14-.06-2.25.21-3.36.37-.95.14-1.91.17-2.85.05-1.27-.17-2.54-.17-3.81-.14-.74.02-1.48.02-2.23.04-.17,0-.34.03-.59.06.37.77.78,1.47,1.05,2.21.28.76.42,1.56.63,2.34.21.8.18,1.61.21,2.42.03.83-.17,1.61-.34,2.39.13,1.56.26,3.12.1,4.67-.18,1.72-.62,3.4-1.38,4.98-.18.38-.43.73-.66,1.09-.17.27-.37.52-.53.79-.47.8-1.04,1.51-1.75,2.11-.03.02-.06.04-.08.07-.89,1.24-2.21,1.96-3.43,2.79-.53.36-1.13.59-1.75.73-1.1.25-2.21.43-3.32.64-.17.03-.35.04-.53.04-2.08.05-4.16.26-6.25.2-.31,0-.62.02-.99.04-.04.24-.09.44-.09.64-.04,3.18-.05,6.36.05,9.54.04,1.31.09,2.61.18,3.92.07,1.05.21,2.1.32,3.15.02.21.04.42.05.63.09,1.3.15,2.61.29,3.91.14,1.4.35,2.8.53,4.19.13,1.01.3,2.02.42,3.04.13,1.14-.17,2.16-.92,3.05-.18.22-.35.45-.51.68-.27.38-.58.71-1.03.92h-1.14c-.5.32-.91.59-1.25.82-.66.04-1.21.04-1.77-.09-.37-.09-.76-.05-1.16-.06-.35-.28-.7-.57-1.07-.87-.91.25-1.59-.16-2.2-.76-.45-.44-.95-.85-1.32-1.47,0-.33,0-.72,0-1.1.02-1.84.05-3.67.06-5.51,0-.46-.05-.92-.05-1.38.04-3.18.1-6.36.13-9.54.02-2.54.01-5.09.02-7.63,0-1.34.03-2.69.03-4.03,0-.35-.01-.7-.02-1.02-.38-.24-.75-.18-1.08-.12-.95.17-1.9.16-2.85.17-.64,0-1.27,0-1.91,0-.78,0-1.55-.03-2.32.12-.48.09-.99.03-1.48.03-.92,0-1.84,0-2.79,0-.13-.09-.28-.19-.41-.29-.3-.24-.64-.29-1-.23-.24.04-.48.12-.72.19-1.12.35-2.25.59-3.43.54-.64-.02-1.27-.02-1.91,0-.61.02-1.19-.11-1.76-.29-.27-.09-.53-.21-.81-.25-1.1-.16-1.76-.86-2.19-1.8-.22-.48-.41-.97-.41-1.53.13-.28.27-.56.4-.85.03-.06.03-.14.05-.28-.04-.14-.12-.33-.14-.54-.03-.24-.08-.5-.02-.73.25-1.08.75-2.04,1.37-2.84.14-.06.17-.08.2-.08,1.23-.09,2.45-.35,3.69-.29.14,0,.28,0,.42,0,1.9-.22,3.8-.2,5.71-.22.25,0,.49-.04.74-.07.77-.09,1.54-.16,2.32,0,.17.04.35.02.52.02.49-.02.98-.08,1.48-.08,2.54-.03,5.09-.05,7.63-.08.24,0,.48-.03.77-.05.04-.19.11-.35.12-.51.04-.99.07-1.97.16-2.96.09-.98.06-1.98.07-2.97.01-1.24-.03-2.47.14-3.7.02-.17.02-.35.02-.53.02-2.51.03-5.02.04-7.53,0-.24-.04-.48-.06-.77-.74-.15-1.44-.1-2.13-.02-.42.05-.84.12-1.26.12-1.28,0-2.53.19-3.79.35-.81.1-1.61.26-2.42.28-1.23.03-2.46.07-3.69-.18-1.56-.32-3.13-.58-4.57-1.28-.95-.46-1.9-.94-2.82-1.46-1.42-.8-2.47-1.99-3.36-3.32-1.51-2.27-2.22-4.79-2.22-7.5,0-1.09-.04-2.19.16-3.28.09-.51.04-1.06.05-1.59.01-.46.01-.92.03-1.38.04-.92.21-1.82.54-2.69.39-1.02.77-2.05,1.16-3.07.05-.13.1-.27.17-.39.66-1.13,1.3-2.27,2-3.37.36-.56.81-1.08,1.28-1.55.92-.93,1.86-1.84,2.84-2.7.55-.48,1.21-.84,1.84-1.25.42-.27.86-.49,1.27-.77,1.23-.82,2.63-1.22,4.06-1.46,2.34-.39,4.69-.6,7.07-.54.95.02,1.91-.09,2.85-.21,1.19-.16,2.38-.27,3.58-.39,2.64-.26,5.3-.12,7.94-.26.92-.05,1.83.11,2.74,0,.95-.13,1.9-.08,2.85-.03.39.02.77.07,1.16.07,2.9,0,5.8-.01,8.69,0,1.45,0,2.9-.02,4.34.21.24.04.49.03.74.05,1.94.15,3.87.29,5.81.46.77.07,1.53.23,2.3.33.84.11,1.68.19,2.53.29.28.03.56.06.85.09.18.23.36.45.55.69.16,2.35.31,4.71.46,7.01-.13.33-.37.42-.62.42-.99-.01-1.98,0-2.97-.08-.95-.07-1.89-.22-2.83-.33-2.17-.27-4.36-.35-6.55-.49-1.94-.13-3.88-.15-5.82-.11-.74.02-1.47.08-2.21.11-.25.01-.5.04-.74.01-1.37-.16-2.75.14-4.11-.12-1.87,0-3.75,0-5.62.01-.95.01-1.9.07-2.86.12-.13,0-.26.06-.44.1-.1.59-.04,1.14,0,1.7.05.7.11,1.41.16,2.11.11,1.66.21,3.31.32,4.97.01.18.03.35.03.53.03,2.69.05,5.37.09,8.06,0,.63-.08,1.27.12,1.94.16.04.34.13.49.1.77-.15,1.55-.09,2.32-.14,1.83-.1,3.67-.14,5.5-.26,3.92-.26,7.84-.15,11.76-.16.99,0,1.98.05,2.96-.15.1-.02.21-.01.32-.01,2.79-.03,5.59-.06,8.38-.08.17,0,.34.04.55.06Zm-43.07-17.5c-.81.14-1.49.02-2.18-.14-.26-.06-.56.01-.83.07-.27.06-.54.16-.8.27-.46.19-.94.26-1.44.28-.81.03-1.61.17-2.39.39-1.68.48-3.6,2-4.93,3.02-.06.04-.1.1-.15.15-.85.99-1.71,1.97-2.53,2.99-.28.35-.46.79-.63,1.21-.38.95-.66,1.94-.79,2.96-.21,1.59-.15,3.17.58,4.66.34.71.8,1.33,1.43,1.81.88.67,1.82,1.21,2.9,1.49,1.13.3,2.27.51,3.44.49.42,0,.85-.04,1.27.01,1.31.17,2.61-.04,3.9-.16,1.12-.11,2.24-.27,3.36-.35.24-.02.5.03.72-.27,0-.29.01-.64,0-.99-.05-.98-.08-1.97-.15-2.95-.14-1.79-.16-3.59-.23-5.39-.03-.74-.05-1.48-.08-2.22-.05-1.3-.12-2.6-.16-3.91-.03-1.09-.17-2.16-.29-3.42Zm11.1,46.29c.54-.03.97-.02,1.38-.07,1.4-.17,2.8-.34,4.19-.55.97-.15,1.93-.29,2.82-.8,1.14-.65,2.02-1.54,2.8-2.54.53-.68.78-1.47.94-2.33.13-.72.04-1.4-.04-2.1-.13-1.13-.38-2.22-.95-3.22-.51-.89-.97-1.8-1.49-2.68-.34-.58-.78-1.08-1.36-1.46-.59-.39-1.15-.82-1.72-1.24-.43-.32-.9-.57-1.44-.63-.77-.08-1.55-.13-2.32-.17-.71-.03-1.41-.05-2.12-.05-.34,0-.7-.07-1.04.08-.04.11-.1.21-.1.3,0,1.45,0,2.9.04,4.34.02.95.1,1.9.14,2.85.04.88.05,1.77.09,2.65.03.7.12,1.41.13,2.11.01,1.55-.01,3.11-.02,4.66,0,.24.03.48.06.84Z"/>
      <path class="cls-2" d="m112.07,126.11c-.02-.76.28-1.55.73-2.28.78-1.26,1.72-2.41,2.72-3.51.37-.4.82-.66,1.34-.8.42-.12.83-.12,1.25-.01.94.25,1.79.64,2.48,1.35.22.22.46.46.75.58,1.04.44,1.65,1.29,2.21,2.2.17.27.32.55.49.82.24.37.38.76.36,1.2-.01.36.06.7.19,1.03.25.65.27,1.31.1,1.98-.18.72-.39,1.43-.64,2.13-.25.7-.62,1.34-1.16,1.88-.22.22-.41.48-.61.73-.69.84-1.57,1.29-2.68,1.24-.81-.04-1.63-.08-2.4-.32-1.25-.4-2.41-1-3.47-1.76-.88-.63-1.47-1.52-1.93-2.48-.37-.78-.45-1.64-.32-2.48.07-.44.33-.84.59-1.47Z"/>
    </g>
    <path class="cls-2" d="m863.9,114.55c.42.36.77.65,1.18,1-.09.34-1.67.43-1.98.71-2.53.34-4.99.44-7.53.44-2.96,0-5.89.1-8.82.22-.18,0-.35.02-.53.02-4.03.06-8.06.13-12.08.19-.89.01-1.78.05-2.67.07-.62.01-1.25.03-1.88.03-2.52.02-5.06-.03-7.54.05-3.12.1-6.28.05-9.37.22-.35.02-.72.01-1.07.02-3.41.04-6.78.17-10.17.27-2.32.07-4.66.08-6.99.11-3.23.04-6.45.08-9.68.11-1.98.02-3.95.02-5.93.03-2.15.02-4.31.05-6.46.06-1.61,0-3.23-.02-4.85-.03-1.08,0-2.15-.03-3.23-.03-3.06,0-6.11,0-9.17,0-1.79,0-3.59-.02-5.37.08-.7.04-1.43.02-2.15.02-11.06,0-22.12.03-33.17-.03-5.21-.03-10.41-.09-15.62-.08-2.24,0-4.48.06-6.72.09-.9.01-1.8.01-2.7.01-4.22.01-8.47-.03-12.67.06-4.67.1-9.34.06-14,.08-1.7,0-3.41-.05-5.11-.06-7.73-.01-15.46,0-23.19-.02-5.75,0-11.51-.02-17.26-.03-2.07,0-4.14,0-6.2-.02-1.34-.01-2.68-.05-4.02-.08-.45,0-.9-.02-1.34-.02-3.42-.02-6.83-.04-10.25-.04-6.92,0-13.84,0-20.76-.01-1.97,0-3.95.02-5.91-.09-.78-.04-1.61-.02-2.42-.02-4.23,0-8.45-.01-12.68,0-2.96.01-5.92.06-8.88.09-.63,0-1.26,0-1.89,0-14.74.01-29.49.02-44.23.03-6.65,0-13.31,0-19.96.05-2.87.02-5.73.09-8.61.09-5.48,0-10.97,0-16.45.07-4.59.06-9.17.1-13.74.03-4.31-.06-8.62-.05-12.93-.07-2.06,0-4.13-.03-6.18.08-.52.03-1.08.01-1.61.01-9.8.01-19.6.04-29.4.03-8.36-.01-16.71-.09-25.07-.12-6.38-.02-12.76,0-19.15,0-.27,0-.54,0-.81,0-2.6.02-5.19.01-7.8.09-2.67.08-5.39.04-8.08.06-1.25.01-2.5.05-3.75.07-.9.01-1.79.03-2.69.03-8.9.01-17.8.02-26.7.04-1.97,0-3.94.06-5.91.09-.72.01-1.44,0-2.16.01-3.78.01-7.55,0-11.32.04-2.68.03-5.35.13-8.02.21-1.96.06-3.91.13-5.88.17-3.13.06-6.26.12-9.4.16-5.02.07-10.05.1-15.07.19-9.52.17-19.04.12-28.57.17-1.79,0-3.58.07-5.37.09-2.87.03-5.75.03-8.63.05-.54,0-1.09,0-1.61.02-2.93.14-5.7-.06-8.47-.27-1.11-.08-1.78-.32-2.75-.51-.71,0-1.51-.02-2.31-.02-3.31-.03-6.63.05-9.95-.09-1.49-.07-3.07-.05-4.57,0-1.88.07-3.75.08-5.64.09-1.07,0-2.14.05-3.41.09-.39-.03-.98-.09-1.57-.14-.85-.19-1.61-.39-2.37-.64.28-.16.53-.31.78-.45,1.07-.19,2.4-.26,3.07-.59.2-.1.68-.16,1.09-.21,2.46-.3,4.89-.55,7.73-.52,6.64.08,13.29.12,19.94.12,6.56,0,13.12-.06,19.67-.14,3.4-.04,6.79-.16,10.19-.23,1.88-.04,3.77-.05,5.66-.05,3.87-.01,7.73,0,11.6-.02,6.65-.04,13.3-.04,19.94-.15,7.73-.13,15.46-.13,23.18-.1,10.52.04,21.02-.11,31.54-.04,9.51-.2,19.05-.02,28.57-.14,2.51-.03,5.01-.08,7.52-.12,7.18-.14,14.37-.18,21.54-.09,6.92.09,13.84.02,20.74.14,5.39.09,10.78.08,16.16.09,2.6,0,5.2-.05,7.81-.08.45,0,.9-.01,1.35-.01,14.11,0,28.23,0,42.34,0,2.69,0,5.38.06,8.07.07.8,0,1.61-.03,2.41-.05.71-.02,1.43-.04,2.14-.05,2.96-.02,5.94.01,8.89-.05,7.81-.16,15.63-.04,23.44-.11,3.05-.03,6.11.02,9.17.01,10.79-.01,21.57,0,32.36-.05,8.45-.03,16.89-.09,25.34-.07,2.96,0,5.93.03,8.89.06,7.64.07,15.28.08,22.92.05,1.62,0,3.24,0,4.85,0,2.51.01,5.01,0,7.53.09,2.48.09,5.02.05,7.54.06,1.26,0,2.52,0,3.78,0,1.52.02,3.04.05,4.56.08.81.01,1.62.03,2.42.02,7.37,0,14.74,0,22.11-.02,1.79,0,3.58-.06,5.38-.07,2.78-.01,5.56.04,8.34.08,4.58.06,9.17.04,13.75.04,1.44,0,2.88,0,4.31-.01,1.34-.01,2.68-.05,4.02-.08.63-.01,1.25-.02,1.88-.02,12.85-.01,25.71-.02,38.56-.03,1.16,0,2.32.05,3.48.07.81.01,1.61.03,2.42.03,9.08,0,18.16.01,27.24,0,1.43,0,2.87-.04,4.3-.07.45,0,.92-.03,1.34,0,1.6.11,3.22.07,4.83.07,6.56,0,13.13.03,19.68-.03,3.67-.03,7.36-.04,11.02-.12,4.19-.09,8.35-.25,12.53-.37.62-.02,1.26,0,1.89-.02,4.47-.09,8.95-.15,13.42-.2,4.03-.05,8.09-.03,12.1-.14,3.12-.08,6.26-.06,9.37-.21,1.84-.09,3.76-.08,5.64-.11,2.68-.04,5.37,0,8.05.01.26,0,.51.04.83.06Z"/>
  </g>
</svg>