<?xml version="1.0" encoding="UTF-8"?><svg id="Layer_1" xmlns="http://www.w3.org/2000/svg" viewBox="0 0 122.31 99.95"><defs><style>.cls-1{fill:#6fdaf1;}.cls-2{fill:#fff;}.cls-3{fill:#d1d1d1;}.cls-4{fill:#40c9e7;}.cls-5{fill:#0d9681;}.cls-6{fill:#9c6144;}.cls-7{fill:#fa5655;}.cls-8{fill:none;stroke:#d1d1d1;stroke-miterlimit:10;stroke-width:.25px;}.cls-9{fill:#df2c2c;}.cls-10{fill:#af7653;}.cls-11{fill:#18376c;}.cls-12{fill:#cfd3d4;}.cls-13{fill:#e2e4e5;}</style></defs><g><g><circle class="cls-11" cx="62" cy="48.46" r="45.44" transform="translate(-16.11 58.03) rotate(-45)"/><path class="cls-2" d="M62,6.04c23.43,0,42.42,18.99,42.42,42.42s-18.99,42.42-42.42,42.42S19.58,71.89,19.58,48.46,38.57,6.04,62,6.04m0-6.04C35.28,0,13.54,21.74,13.54,48.46s21.74,48.46,48.46,48.46,48.46-21.74,48.46-48.46S88.72,0,62,0h0Z"/></g><g><path class="cls-13" d="M88.09,64.32H35.88c0-1.8,1.38-3.18,3.18-3.18h45.72c1.93-.14,3.32,1.38,3.32,3.18h0Z"/><rect class="cls-2" x="39.2" y="31.73" width="45.72" height="29.42"/><path class="cls-9" d="M43.34,31.73c0,1.8-1.66,3.31-3.73,3.31s-3.73-1.52-3.73-3.31h7.46Z"/><path class="cls-12" d="M50.8,31.73c0,1.8-1.66,3.31-3.73,3.31s-3.73-1.52-3.73-3.31h7.46Z"/><path class="cls-9" d="M58.26,31.73c0,1.8-1.66,3.31-3.73,3.31s-3.73-1.52-3.73-3.31h7.46Z"/><path class="cls-12" d="M65.72,31.73c0,1.8-1.66,3.31-3.73,3.31s-3.73-1.52-3.73-3.31h7.46Z"/><path class="cls-12" d="M80.63,31.73c0,1.8-1.66,3.31-3.73,3.31s-3.73-1.52-3.73-3.31h7.46Z"/><path class="cls-9" d="M73.17,31.73c0,1.8-1.66,3.31-3.73,3.31s-3.73-1.52-3.73-3.31h7.46Z"/><path class="cls-9" d="M88.09,31.73c0,1.8-1.66,3.31-3.73,3.31s-3.73-1.52-3.73-3.31h7.46Z"/><polygon class="cls-7" points="35.88 31.73 43.34 31.73 49.83 15.43 43.34 15.43 35.88 31.73"/><polygon class="cls-2" points="43.34 31.73 50.8 31.73 55.49 15.43 49.83 15.43 43.34 31.73"/><polygon class="cls-7" points="50.8 31.73 58.26 31.73 61.02 15.43 55.49 15.43 50.8 31.73"/><polygon class="cls-2" points="58.26 31.73 65.72 31.73 65.72 15.43 61.02 15.43 58.26 31.73"/><polygon class="cls-7" points="88.09 31.73 80.63 31.73 75.94 15.43 81.6 15.43 88.09 31.73"/><polygon class="cls-2" points="80.63 31.73 73.17 31.73 70.41 15.43 75.94 15.43 80.63 31.73"/><polygon class="cls-7" points="73.17 31.73 65.72 31.73 65.72 15.43 70.41 15.43 73.17 31.73"/><rect class="cls-1" x="42.37" y="38.22" width="22.79" height="13.12"/><polygon class="cls-4" points="65.3 51.34 42.37 51.34 65.3 38.22 65.3 51.34"/><rect class="cls-4" x="70.14" y="38.22" width="11.46" height="10.64"/><rect class="cls-4" x="70.14" y="51.34" width="11.46" height="9.81"/><path class="cls-5" d="M64.47,55.35c.28-2.62-2.76-4.56-6.08-4.56-1.93,0-3.59,.69-4.7,1.66-.55-.97-1.38-1.66-2.35-1.66-.83,0-1.66,.55-2.21,1.38-.69-1.52-2.07-2.62-3.87-2.62-2.07,0-3.73,1.52-4.14,3.45-.28-.28-.69-.41-.97-.41-1.1,0-1.93,1.24-1.8,2.76h26.11Z"/><rect class="cls-6" x="38.37" y="55.35" width="26.11" height="5.66"/><rect class="cls-10" x="38.37" y="55.35" width="26.11" height="1.66"/></g></g><g><path class="cls-2" d="M20.26,99.47s-.89,.93-8.83,.21S0,94.4,0,94.4c0,0,7-3.77,3.94-8.33-2.72-4.06-1.57-6.73-1.57-6.73,0,0,6.47,2.17,11.16,0,5.66-2.61,12.26-1.97,12.26-1.97l-1.72,15.87-3.81,6.23Z"/><path class="cls-2" d="M102.05,99.47s.89,.93,8.83,.21,11.43-5.27,11.43-5.27c0,0-7-3.77-3.94-8.33,2.72-4.06,1.57-6.73,1.57-6.73,0,0-6.47,2.17-11.16,0-5.66-2.61-12.26-1.97-12.26-1.97l1.72,15.87,3.81,6.23Z"/><path class="cls-3" d="M11.43,93.4c.03,3.13,3.55,1.63,6.61,2.38,5.64,1.39,1.55,3.89,1.55,3.89,0,0,4.14-.75,4.86-3.58s.39-7.72,.39-7.72l-13.41,5.04Z"/><path class="cls-3" d="M110.74,93.4c-.03,3.13-3.55,1.63-6.61,2.38-5.64,1.39-1.55,3.89-1.55,3.89,0,0-4.14-.75-4.86-3.58s-.39-7.72-.39-7.72l13.41,5.04Z"/><path class="cls-2" d="M110.74,74.01c0-5.37-4.01-10-9.6-11.1-8.41-1.65-22.1-3.57-40.12-3.57s-31.71,1.93-40.12,3.57c-5.6,1.09-9.6,5.72-9.6,11.1v19.39s19.9-5.87,49.72-5.87,49.72,5.87,49.72,5.87v-19.39Z"/><line class="cls-8" x1="11.2" y1="80.06" x2="11.43" y2="93.55"/><line class="cls-8" x1="110.92" y1="80.01" x2="110.61" y2="93.55"/></g><g><path class="cls-11" d="M32.73,69.6c-.11-.81-.42-1.34-.92-1.59-.5-.25-1.2-.31-2.09-.18-1.52,.23-2.88,.8-4.05,1.7-1.17,.9-1.68,1.76-1.53,2.56,.09,.51,.41,.91,.96,1.18,.54,.28,1.85,.5,3.92,.72,2.16,.23,3.79,.64,4.88,1.18,1.09,.54,1.69,1.29,1.81,2.25,.2,1.58-.87,3.18-3.13,4.86-2.26,1.68-4.65,2.75-7.25,3.25-.85,.16-1.56,.12-2.13-.12-.58-.25-.92-.62-1.03-1.13-.08-.4-.05-.81,.12-1.2,.16-.4,.41-.63,.73-.69,.2-.04,.39-.04,.57-.01,.95,.19,1.8,.22,2.56,.08,1.3-.24,2.7-.85,4.22-1.82,1.52-.97,2.25-1.79,2.15-2.48-.04-.29-.29-.53-.74-.74-.45-.2-1.35-.41-2.7-.6-1.96-.28-3.45-.5-4.47-.7-1.01-.2-1.83-.55-2.44-1.06-.61-.51-1-1.19-1.17-2.04-.3-1.52,.37-3.13,2.09-4.8,1.72-1.67,3.95-2.73,6.63-3.13,1.54-.23,2.8-.12,3.76,.31,.96,.43,1.48,1.01,1.57,1.71,.18,1.45-.59,2.27-2.31,2.51Z"/><path class="cls-11" d="M42.73,74.87c-.19,.47-.25,1.72-.16,3.73,.06,1.17-.01,2.18-.23,3-.21,.82-.55,1.25-1.02,1.3-.52,.05-.98-.06-1.37-.35-.39-.29-.62-.74-.69-1.35-.06-.54-.02-1.3,.12-2.29,.32-2.21,.46-6.79,.5-13.74,.02-.28,.18-.57,.48-.86,.3-.29,.63-.45,.99-.48,1.21-.11,1.87,.52,1.98,1.87,.05,.61,0,1.59-.17,2.94-.18,1.55-.38,2.97-.18,3.38,.03,.06,.4,.09,.96,.04,1.23-.1,2.97-.32,5.22-.63,2.25-.3,3.47-.57,3.63-.87s.32-1.14,.46-2.53c.15-1.39,.2-2.87,.15-4.43,0-.23,.18-.52,.55-.85,.38-.34,.79-.51,1.23-.52,.51-.01,.93,.13,1.27,.41,.34,.28,.51,.64,.52,1.07,0,.62-.15,1.75-.46,3.38-.35,1.83-.62,4.18-.81,7.05-.19,2.87-.27,4.77-.25,5.71,0,.45-.2,.89-.62,1.34s-.8,.68-1.15,.69c-.37,.01-.73-.11-1.08-.37-.35-.26-.54-.6-.56-1.03-.01-.28,.06-1.25,.23-2.9,.17-1.65,.24-2.77,.22-3.39-.01-.4-.1-.59-.27-.59-.41,.02-1.22,.09-2.42,.24-1.21,.16-2.04,.26-2.48,.29-.32,.02-1.16,.12-2.51,.31-1.35,.2-2.06,.34-2.12,.41Z"/><path class="cls-11" d="M64.89,82.03c-1.41-.04-2.64-.73-3.73-2.09-1.09-1.35-1.66-2.74-1.66-4.17,0-1.69,.53-3.58,1.66-5.68,1.13-2.09,2.61-3.79,4.45-5.06,1.84-1.28,3.77-1.86,5.75-1.74,1.53,.09,2.79,.35,3.76,.75,.97,.41,1.84,.97,2.61,1.68,.77,.71,1.26,1.43,1.46,2.13,.21,.71,.25,1.65,.13,2.84-.11,1.05-.6,2.28-1.45,3.7-.85,1.43-2,2.74-3.43,3.97-1.43,1.22-2.83,2.16-4.22,2.81-1.39,.65-3.16,.92-5.33,.86Zm-2.12-6.34c-.02,1.02,.28,1.87,.89,2.56,.61,.69,1.3,1.05,2.11,1.08,2.26,.08,4.43-.88,6.59-2.87,2.16-1.99,3.39-4.15,3.59-6.53,.07-.84-.05-1.53-.35-2.08-.31-.54-.87-1.02-1.69-1.42-.82-.4-1.72-.63-2.69-.69-1.75-.1-3.63,.97-5.55,3.22-1.92,2.25-2.85,4.51-2.89,6.73Z"/><path class="cls-11" d="M85.3,77.23c-.48,1.87-.79,3.38-.94,4.53-.06,.45-.25,.83-.57,1.15s-.72,.44-1.19,.38c-1.02-.13-1.46-.78-1.32-1.95,.08-.65,.57-2.82,1.53-6.49,.78-2.97,1.22-4.75,1.29-5.33,.08-.66,.1-1.05,.05-1.14-.55-.34-.78-.87-.7-1.57,.08-.69,1.38-1.16,3.92-1.32s4.7-.08,6.46,.22c2.06,.35,3.62,1.04,4.68,2.04,1.06,.99,1.45,2.14,1.18,3.42-.38,1.85-1.8,3.24-4.2,4.23-2.4,1-5.13,1.54-8.24,1.69-1.14,.06-1.79,.11-1.95,.15Zm2.46-9.06c-.69,2.54-1.03,3.81-1.69,6.35,2.56-.05,4.86-.39,6.95-1.05,2.08-.66,3.25-1.54,3.47-2.68,.26-1.36-.8-2.27-3.17-2.68-1.65-.28-3.5-.27-5.55,.06Z"/></g><path class="cls-8" d="M35.6,89.08s4.79-.62,6.62-.76,4.69-.2,4.69-.2"/><path class="cls-8" d="M88.2,89.33s-4.64-.69-6.47-.84-4.92-.27-4.92-.27"/></svg>