<?xml version="1.0" encoding="UTF-8"?>
<svg id="Layer_1" data-name="Layer 1" xmlns="http://www.w3.org/2000/svg" viewBox="0 0 900 297.5">
  <defs>
    <style>
      .cls-1 {
        fill: #fff;
        opacity: .9;
      }

      .cls-2 {
        fill: #18376c;
      }
    </style>
  </defs>
  <rect class="cls-1" y="0" width="900" height="297.5"/>
  <g>
    <g>
      <path class="cls-2" d="m111.03,46.15c-1.45.94-3.14,1.16-4.82,1.34-1.78.19-3.56.28-5.34.47-1.79.18-1.85.25-1.87,2.17-.03,2.52,0,5.33-.03,7.84-.05,4.93-.11,8.13-.18,13.06-.11,7.67.4,15.31.91,22.96.12,1.79.24,3.57-.34,5.3-.43,1.28-1.21,2.21-2.65,2.37-1.43.16-2.57-.49-3.28-1.95-.65-1.34-.89-2.79-.98-4.27-.49-7.85-1.01-15.71-.72-23.59,0-7.03,0-12.62,0-19.65,0-.84,0-1.68-.04-2.52-.05-.98-.41-1.93-1.36-1.88-1.99.12-3.98.31-5.97.48-.52.05-1.04.23-1.56.22-1.56,0-2.84-.95-3.36-2.41-.51-1.45-.07-2.69.95-3.74.6-.62,1.35-1.01,2.21-1.14,1.35-.2,2.7-.46,4.06-.53,6.09-.32,12.19-.03,18.28-.29,1.36-.06,2.73.03,4.09.15.61.05,1.25.24,1.79.53,2.2,1.18,2.31,3.7.21,5.07Z"/>
      <path class="cls-2" d="m158.48,45.95c-.18,7.56-.37,15.42-.55,22.98l-.18,23.01c0,1.37-.04,2.73-.13,4.09-.06.83-.19,1.67-.43,2.47-.61,2.04-2.03,3.21-3.51,3.03-1.54-.19-2.73-1.52-3.01-3.59-.17-1.24-.17-2.51-.17-3.77,0-3.89.06-11.24.09-15.13,0-.74.01-1.47-.04-2.21-.04-.59-.42-.97-.99-1.04-1.99-.23-3.98-.57-5.97-.57-3.05,0-6.1.22-9.15.38-1.57.08-1.73.22-1.76,1.92-.05,3.36-.03,10.19-.02,13.55,0,1.26.11,3.39.05,4.65-.04,1.04-.15,2.11-.4,3.12-.42,1.7-1.61,2.73-3.01,2.81-1.43.08-2.67-.82-3.26-2.49-.28-.78-.42-1.62-.54-2.45-.09-.62-.08-1.26-.09-1.89-.13-9.77-.07-23.88.32-33.65.2-5.04.29-10.08.43-15.12.03-1.05,0-2.1.38-3.11.56-1.51,1.85-2.51,3.29-2.52,1.43-.01,2.77.97,3.36,2.44.36.91.37,1.85.35,2.79-.07,2.94-.16,5.88-.25,8.82-.11,3.68-.24,7.35-.35,11.03-.02.63,0,1.26.06,1.89.05.45.36.75.83.78.52.03,1.05.02,1.57,0,2.32-.06,4.63-.13,6.95-.21,2.32-.07,4.63.03,6.92.46.97.18,1.33-.17,1.4-1.17.04-.52.02-1.05.04-1.58.18-6.41.35-13.1.54-19.51.03-.84.04-1.69.23-2.5.46-1.96,2.09-3.19,3.87-3.02,1.68.16,2.94,1.49,3.15,3.41.07.62.03,1.26.01,1.89Z"/>
      <path class="cls-2" d="m204.88,99.93c-.94,1.77-2.92,2.26-4.55,1.11-.89-.63-1.47-1.51-1.81-2.52-.46-1.4-.87-3.39-1.22-4.81-.91-3.67-1.78-9.37-2.66-13.04-.73-3.07-.79-2.71-3.27-2.66-2.63.05-5.26.2-7.88.36-1.27.08-1.36.16-1.65,1.45-.36,1.64-.65,5.32-.99,6.96-.69,3.39-1.38,6.79-2.08,10.18-.13.62-.29,1.23-.5,1.82-.78,2.15-2.42,3.13-4.37,2.65-1.78-.43-2.76-1.97-2.61-4.32.03-.21.09-.62.17-1.04,2.24-11.1,4.05-24.3,5.56-31.51,1.16-5.54,2.48-11.06,4.32-16.43.41-1.19.84-2.38,1.34-3.53.33-.76.72-1.53,1.23-2.19,1.77-2.28,4.53-2.43,6.59-.4,1.08,1.06,1.72,2.39,2.21,3.78,1.09,3.07,2.18,6.13,3.13,9.25,2.98,9.8,5.9,25.63,9.13,39.4.21.91.31,2.44.39,3.37.06.74-.12,1.45-.48,2.12Zm-13.18-29.34c-.23-2.96-2.78-13.86-4.27-16.74-1.57,4.01-3.41,14.07-3.42,16.9,2.57.19,5.13.15,7.69-.16Z"/>
      <path class="cls-2" d="m252,95.72c-.06.83-.11,1.69-.34,2.49-.49,1.71-1.48,3.05-3.36,3.38-1.87.33-3.31-.48-4.32-1.99-.64-.95-1.19-1.99-1.67-3.03-2.5-5.44-4.94-13.51-7.44-18.95-1.84-4.01-3.69-8.01-5.59-12-.77-1.61-1.44-3.13-2.28-4.7-.2-.37-1.69-3.34-1.69-3.34,0,0,.16,3.24.15,3.7-.12,7.56-.12,15.12.21,22.68.15,3.46.29,6.93.41,10.39.04,1.05,0,2.1-.04,3.15-.03.85-.26,1.66-.71,2.39-1.28,2.09-3.78,2.18-5.2.16-.81-1.15-1.08-2.49-1.16-3.87-.18-3.25-.4-6.5-.53-9.75-.42-10.71-.32-21.42-.22-32.14.02-1.89-.05-6.96-.02-8.85.01-.83.06-1.7.29-2.49.45-1.58,2.12-2.78,3.61-2.42,2.04.48,3.24,1.07,4.41,3.09.37.64.77,1.26,1.13,1.9,4.82,8.51,10.1,20.4,14.04,29.35.63,1.44,1.29,2.88,1.93,4.32.17.38.75,1.89,1.18,3.05,0-.75,0-3.47-.03-4.1-.53-8.5-.99-21.35-.86-29.85.02-1.15.11-2.31.22-3.46.06-.62.18-1.26.39-1.85.6-1.75,1.95-2.74,3.5-2.64,1.43.09,2.51,1.08,3.04,2.79.35,1.13.28,2.29.25,3.44-.17,7.67.36,19.67.59,27.34.09,2.94.17,5.88.29,8.82.14,3.47.06,9.53-.18,12.99Z"/>
      <path class="cls-2" d="m298.08,101.1c-1.32.78-2.98.51-4.32-.79-.52-.51-1.02-1.09-1.36-1.72-2.87-5.3-8.56-11.85-12.22-16.58-1.99-2.58-3.88-5.23-5.82-7.85-.31-.42-.65-.83-1-1.21-.12-.13-.61-.79-.77-.89-.16.29-.19,1.08-.2,1.36-.02.84-.01,1.68.04,2.52.35,5.66.71,11.31,1.07,16.97.09,1.36.18,2.72.22,4.09.04,1.07-.22,2.1-.74,3.03-1.16,2.03-3.85,2.23-5.28.37-.38-.49-.66-1.08-.83-1.67-.24-.8-.42-1.64-.47-2.47-.56-9.53-1.65-19.04-1.34-28.61,0-6.4,0-14.83,0-21.24,0-1.05,0-2.1.37-3.11.58-1.57,1.77-2.52,3.25-2.56,1.59-.04,2.91.99,3.48,2.68.31.92.28,1.86.27,2.81-.03,2.83-.07,7.69-.1,10.53,0,.52.01,1.05.07,1.57.02.16.01.89.15,1.01.19.16.6-.2.89-.57.51-.53.91-1.09,1.4-1.63,3.93-4.38,7.96-9.54,11.52-14.24.25-.33.51-.67.82-.96,1.3-1.23,2.93-1.43,4.33-.57,1.36.83,1.96,2.5,1.52,4.12-.31,1.15-.98,2.09-1.72,2.98-1.67,2.02-3.34,4.06-5.08,6.03-2.57,2.91-5.21,6.65-7.82,9.53-1.33,1.46-1.39,1.5-.15,3.15,3.97,5.3,7.94,10.59,12,15.82,2.32,3,6.27,8.08,8.07,11.42.45.83.91,1.68,1.16,2.57.5,1.78-.1,3.37-1.42,4.15Z"/>
      <path class="cls-2" d="m343.03,63.22c-.08,1.36-.02,2.74-.27,4.07-.31,1.68-1.77,2.75-3.39,2.75-1.77.01-3.13-1.13-3.48-3.02-.14-.72-.13-1.46-.18-2.19-.15-2.2-.26-4.4-.44-6.6-.16-1.89-.59-3.73-1.42-5.46-.56-1.15-1.31-2.15-2.32-2.94-2.57-2.02-6.14-2.49-8.96.8-3.92,4.57-3.79,9.81-.16,15.03.71,1.02,1.39,1.87,2.17,2.86,2.22,2.82,3.91,5.45,6.3,7.82,2.02,2.01,5.11,5.68,6.68,8.05.93,1.41,1.73,2.89,2.18,4.52,1.9,6.87-2.68,12.81-9.83,12.74-2.59-.02-4.99-.78-7.13-2.23-2.62-1.78-4.89-3.97-7.05-6.27-.65-.69-1.14-1.5-1.43-2.42-.38-1.21-.17-2.29.69-3.21.88-.95,2.02-1.1,3.2-.76,1.13.32,2.09.98,2.97,1.75,1.19,1.04,2.34,2.11,3.54,3.14.71.62,1.45,1.22,2.23,1.75.98.67,2.1.93,3.29.88,2.04-.09,3.08-1.45,2.44-3.41-.32-.98-.87-1.91-1.43-2.79-1.32-2.03-2.5-4.3-4.23-6-2.78-3.13-5.65-7.02-8.29-9.59-2.78-2.71-4.64-5.94-5.62-9.68-1.9-7.32.12-13.53,5.61-18.55,3.8-3.48,8.33-4.31,13.22-2.49,3.47,1.29,6.17,3.55,7.99,6.8,1.14,2.04,1.98,4.19,2.31,6.49.38,2.7.84,5.4.84,8.15Z"/>
      <path class="cls-2" d="m403.41,47.12c-1.21.71-2.57.91-3.96.89-3.37-.05-6.74-.07-10.11-.15-3.38-.08-3.26.16-3.2,3.55.08,4.83.17,9.66.3,14.49.03,1.38.32,1.61,1.73,1.58,2.21-.06,4.42-.16,6.63-.24,1.18-.04,2.32.14,3.36.71,2.24,1.22,2.38,3.98.28,5.41-.8.54-1.69.85-2.65.93-1.78.16-3.56.31-5.35.45-.84.07-1.68.08-2.52.14-.62.04-.92.44-.98,1.02-.04.42-.03.84-.01,1.26.24,4.93.47,10.15.73,15.08,0,0,.05.39.12,1.09.08.88.18,2.54.2,4.22.04,3.01-.68,3.57-1.05,3.75-.39.19-1.58.36-1.58.36-2.69.01-4.14-1-4.48-3.65-.36-2.81-.58-5.93-.73-8.76-.35-6.71-.62-13.72-1.04-23.11-.4-4.88-.18-12.45-.38-20.01-.01-.42-.02-.84.02-1.26.25-2.38,1.95-4.07,4.33-4.2,1.05-.06,2.1.04,3.16.06,3.79.07,7.58-.17,11.37-.06,1.36.04,2.73.18,4.08.38.61.09,1.23.33,1.75.65,2.16,1.29,2.15,4.14-.02,5.42Z"/>
      <path class="cls-2" d="m450.38,87.88c-.42,2.07-1.05,4.07-2.04,5.94-4.72,8.95-14.02,10.08-21.23,4.22-3.41-2.77-5.73-6.38-7.15-10.56-1.5-4.42-2.13-10.43-2.17-15.07-.04-5.17.69-10.25,2.31-15.18,2.06-6.29,5.75-11.38,11.19-15.19,1.25-.88,2.65-1.27,4.16-1.2,4.46.2,8.13,1.93,10.74,5.64,1.85,2.63,2.82,5.61,3.56,8.68,1.36,5.64,1.84,11.38,1.79,17.18.05,4.73-.23,10.88-1.17,15.54Zm-6.15-15.28c-.08-2.52-.11-5.04-.27-7.55-.1-1.57-.36-3.13-.59-4.68-.4-2.6-1-5.16-2.02-7.59-.65-1.56-1.51-3-3.09-3.86-.88-.47-1.71-.59-2.71-.24-1.75.63-3.11,1.72-4.3,3.09-1.95,2.27-3.27,4.89-4.18,7.71-2.42,7.48-2.68,16.48-.69,24.1.79,3.01,2.23,5.65,4.38,7.9.81.84,1.68,1.59,2.76,2.07,3.1,1.37,5.3,1.15,7.67-2.05.62-.83,1.03-1.83,1.38-2.81.38-1.08.62-2.22.85-3.35.75-3.73.73-8.96.81-12.74Z"/>
      <path class="cls-2" d="m497.51,100.9c-1.08.91-2.32.91-3.57.44-1.32-.49-2.31-1.46-3.2-2.5-2.61-3.04-5.58-6.3-8.42-9.11-2.7-2.66-5.51-5.19-8.72-7.25-.43-.28-.81-.68-1.9-.52.11,2.45.21,4.85.32,7.25.12,2.41.29,4.82.35,7.24.03.93-.04,1.91-.29,2.8-.36,1.29-1.25,2.17-2.66,2.38-1.4.2-2.66-.48-3.38-1.82-.45-.85-.66-1.76-.75-2.71-.14-1.57-.35-3.14-.42-4.71-.41-9.13-.83-18.26-.44-27.4.24-5.67.2-12.21.29-17.88.01-.84-.04-1.69.08-2.52.39-2.72,2.05-4.12,4.75-3.94,1.15.08,2.29.32,3.41.62,5.29,1.4,10.02,3.79,13.76,7.9,4.17,4.58,5.87,10.74,4.6,16.86-1,4.84-3.65,8.4-8.34,10.33-.96.39-2.07.46-2.86,1.23-.04.8.67.98,1.11,1.36,5.36,4.59,10.47,10.01,15.14,15.3.77.87,1.48,1.78,1.88,2.89.53,1.49.26,2.92-.74,3.77Zm-17.72-31.13c2.53-.87,3.94-2.74,4.41-5.29.58-3.15-.04-6.92-2.08-9.46-2.3-2.87-5.25-4.81-8.72-5.98-.75-.25-1.25.05-1.28.84l-.42,9.75c0,1.89-.01,4.64,0,6.53.04,6.3-1.2,5.81,5.67,4.32.82-.18,1.62-.45,2.41-.73Z"/>
      <path class="cls-2" d="m566.5,46.25c-.7,4.68-1.71,9.29-2.84,13.88-1.53,6.22-2.93,19.4-5.01,25.47-1.16,3.38-2.44,6.71-4.07,9.9-.77,1.5-1.59,2.97-2.74,4.21-2.6,2.81-6.09,2.57-8.3-.58-.92-1.3-1.46-2.79-1.95-4.29-2.07-6.28-3.89-12.64-5.52-19.05-1.71-6.72-3.12-20.15-4.36-26.96-.23-1.24-.36-2.49-.54-3.74-.11-.74-.03-1.47.22-2.17.46-1.29,1.35-2.12,2.72-2.33,1.5-.23,2.68.33,3.52,1.59.6.9.71,1.95.88,2.99,2.07,12.34,4.95,31.13,8.65,43.08.28.9.6,1.78.95,2.8,1.13-.74,1.27-1.63,1.59-2.38,1.85-4.36,3.28-8.86,4.43-13.45,1.93-7.74,3.99-22.39,5.22-30.29.13-.82.39-1.65.77-2.38.68-1.33,1.86-2,3.37-1.88,1.53.12,2.47,1.04,2.97,2.45.37,1.03.22,2.06.06,3.11Z"/>
      <path class="cls-2" d="m587.71,96.92c-.07.73-.14,1.47-.35,2.17-.49,1.6-1.73,2.55-3.21,2.58-1.6.03-2.97-1.01-3.39-2.75-.22-.9-.22-1.87-.23-2.81-.03-2.21.06-4.41,0-6.62-.16-5.78-.36-11.55-.56-17.67,0-7.22-.23-17.38-.56-24.93-.05-1.04-.09-2.12.08-3.14.31-1.85,1.77-3.08,3.46-3.12,1.71-.04,3.11,1.1,3.52,3.01.22,1.02.27,2.08.3,3.13.26,9.76.49,22.13.74,31.9.09,3.57.2,7.14.34,10.71.1,2.52.1,5.04-.14,7.55Z"/>
      <path class="cls-2" d="m631.29,63.22c-.08,1.36-.02,2.74-.27,4.07-.31,1.68-1.77,2.75-3.39,2.75-1.77.01-3.13-1.13-3.48-3.02-.14-.72-.13-1.46-.18-2.19-.15-2.2-.26-4.4-.44-6.6-.16-1.89-.59-3.73-1.42-5.46-.56-1.15-1.31-2.15-2.32-2.94-2.57-2.02-6.14-2.49-8.96.8-3.92,4.57-3.79,9.81-.16,15.03.71,1.02,1.39,1.87,2.17,2.86,2.22,2.82,3.91,5.45,6.3,7.82,2.02,2.01,5.11,5.68,6.68,8.05.93,1.41,1.73,2.89,2.18,4.52,1.9,6.87-2.68,12.81-9.83,12.74-2.59-.02-4.99-.78-7.13-2.23-2.62-1.78-4.89-3.97-7.05-6.27-.65-.69-1.14-1.5-1.43-2.42-.38-1.21-.17-2.29.69-3.21.88-.95,2.02-1.1,3.2-.76,1.13.32,2.09.98,2.97,1.75,1.19,1.04,2.34,2.11,3.54,3.14.71.62,1.45,1.22,2.23,1.75.98.67,2.1.93,3.29.88,2.04-.09,3.08-1.45,2.44-3.41-.32-.98-.87-1.91-1.43-2.79-1.32-2.03-2.5-4.3-4.23-6-2.78-3.13-5.65-7.02-8.29-9.59-2.78-2.71-4.64-5.94-5.62-9.68-1.9-7.32.12-13.53,5.61-18.55,3.8-3.48,8.33-4.31,13.22-2.49,3.47,1.29,6.17,3.55,7.99,6.8,1.14,2.04,1.98,4.19,2.31,6.49.38,2.7.84,5.4.84,8.15Z"/>
      <path class="cls-2" d="m652.39,96.92c-.07.73-.14,1.47-.35,2.17-.49,1.6-1.73,2.55-3.21,2.58-1.6.03-2.97-1.01-3.39-2.75-.22-.9-.22-1.87-.23-2.81-.03-2.21.06-4.41,0-6.62-.16-5.78-.36-11.55-.56-17.67,0-7.22-.23-17.38-.56-24.93-.05-1.04-.09-2.12.08-3.14.31-1.85,1.77-3.08,3.46-3.12,1.71-.04,3.11,1.1,3.52,3.01.22,1.02.27,2.08.3,3.13.26,9.76.49,22.13.74,31.9.09,3.57.2,7.14.34,10.71.1,2.52.1,5.04-.14,7.55Z"/>
      <path class="cls-2" d="m697.12,46.15c-1.45.94-3.14,1.16-4.82,1.34-1.78.19-3.56.28-5.34.47-1.79.18-1.85.25-1.87,2.17-.03,2.52,0,5.33-.03,7.84-.05,4.93-.11,8.13-.18,13.06-.11,7.67.4,15.31.91,22.96.12,1.79.24,3.57-.34,5.3-.43,1.28-1.21,2.21-2.65,2.37-1.43.16-2.57-.49-3.28-1.95-.65-1.34-.89-2.79-.98-4.27-.49-7.85-1.01-15.71-.72-23.59,0-7.03,0-12.62,0-19.65,0-.84,0-1.68-.04-2.52-.05-.98-.41-1.93-1.36-1.88-1.99.12-3.98.31-5.97.48-.52.05-1.04.23-1.56.22-1.56,0-2.84-.95-3.36-2.41-.51-1.45-.07-2.69.95-3.74.6-.62,1.35-1.01,2.21-1.14,1.35-.2,2.7-.46,4.06-.53,6.09-.32,12.19-.03,18.28-.29,1.36-.06,2.73.03,4.09.15.61.05,1.25.24,1.79.53,2.2,1.18,2.31,3.7.21,5.07Z"/>
      <path class="cls-2" d="m719.75,96.92c-.07.73-.14,1.47-.35,2.17-.49,1.6-1.73,2.55-3.21,2.58-1.6.03-2.97-1.01-3.39-2.75-.22-.9-.22-1.87-.23-2.81-.03-2.21.06-4.41,0-6.62-.16-5.78-.36-11.55-.56-17.67,0-7.22-.23-17.38-.56-24.93-.05-1.04-.09-2.12.08-3.14.31-1.85,1.77-3.08,3.46-3.12,1.71-.04,3.11,1.1,3.52,3.01.22,1.02.27,2.08.3,3.13.26,9.76.49,22.13.74,31.9.09,3.57.2,7.14.34,10.71.1,2.52.1,5.04-.14,7.55Z"/>
      <path class="cls-2" d="m766.52,95.72c-.06.83-.11,1.69-.34,2.49-.49,1.71-1.48,3.05-3.36,3.38-1.87.33-3.31-.48-4.32-1.99-.64-.95-1.19-1.99-1.67-3.03-2.5-5.44-4.94-13.51-7.44-18.95-1.84-4.01-3.69-8.01-5.59-12-.77-1.61-1.44-3.13-2.28-4.7-.2-.37-1.69-3.34-1.69-3.34,0,0,.16,3.24.15,3.7-.12,7.56-.12,15.12.21,22.68.15,3.46.29,6.93.41,10.39.04,1.05,0,2.1-.04,3.15-.03.85-.26,1.66-.71,2.39-1.28,2.09-3.78,2.18-5.2.16-.81-1.15-1.08-2.49-1.16-3.87-.18-3.25-.4-6.5-.53-9.75-.42-10.71-.32-21.42-.22-32.14.02-1.89-.05-6.96-.02-8.85.01-.83.06-1.7.29-2.49.45-1.58,2.12-2.78,3.61-2.42,2.04.48,3.24,1.07,4.41,3.09.37.64.77,1.26,1.13,1.9,4.82,8.51,10.1,20.4,14.04,29.35.63,1.44,1.29,2.88,1.93,4.32.17.38.75,1.89,1.18,3.05,0-.75,0-3.47-.03-4.1-.53-8.5-.99-21.35-.86-29.85.02-1.15.11-2.31.22-3.46.06-.62.18-1.26.39-1.85.6-1.75,1.95-2.74,3.5-2.64,1.43.09,2.51,1.08,3.04,2.79.35,1.13.28,2.29.25,3.44-.17,7.67.36,19.67.59,27.34.09,2.94.17,5.88.29,8.82.14,3.47.06,9.53-.18,12.99Z"/>
      <path class="cls-2" d="m813.7,97.26h0c-.15.61-.51,1.17-1.07,1.63-.56.46-1.21.88-1.88,1.13-2.88,1.03-6.42,1.59-9.48,1.65-3.64.06-7.09-.92-10.22-2.81-4.17-2.53-7.23-6.04-9.02-10.61-.77-1.96-1.36-3.99-1.69-6.06-1.46-9.16-1-19.95,1.85-28.82.9-2.82,2.2-5.45,4.03-7.8,5.82-7.51,14.77-6.03,19.66-.82,1.16,1.23,2.17,2.58,2.96,4.07,2.41,4.52,3.66,11.39,4.01,16.48.06.82-.04,1.69-.27,2.49-.44,1.58-2.04,2.65-3.58,2.54-1.49-.11-2.79-1.16-3.17-2.66-.15-.6-.14-1.25-.2-1.87-.29-3.15-1.03-8.23-2.13-11.2-.63-1.69-1.54-3.22-2.73-4.58-.62-.72-1.96-1.82-2.82-2.26-1.58-.8-3.33-.23-4.64.96-.77.7-1.45,1.52-2.04,2.38-1.03,1.47-1.7,3.13-2.24,4.84-1.5,4.75-2.22,9.61-2.1,14.59.02,3.36.1,8.45.88,11.75.79,3.34,2.11,6.38,4.77,8.69,3.31,2.87,7.06,4.34,11.41,3.25,1.12-.28,1.98-.71,3.09-1.07.6-.2.65-.79.65-1.15v-7.46c0-1.83-.26-3.32-1.48-3.32h-4.88c-4.12,0-3.9-6.17,0-6.17h6.13c3.21,0,6.21.92,6.21,3.77,0,0,.59,15.24.02,18.27,0,.02,0,.03,0,.05,0,.05-.02.09-.03.13Z"/>
      <path class="cls-2" d="m834.97,86.11c-.04,1.16-.32,2.29-1.02,3.26-1.14,1.56-3.33,1.73-4.68.36-.61-.61-.97-1.35-1.18-2.19-.36-1.44-.45-2.9-.49-4.37-.27-10.8-.56-25.94-.82-36.75-.02-.83-.02-1.69.14-2.5.32-1.65,1.74-2.82,3.32-2.87,1.55-.05,3.07,1.06,3.48,2.68.21.8.23,1.66.27,2.5.23,5.66.44,15.66.66,21.32-.07,0-.15,0-.22,0,.17,4.72.34,9.44.5,14.15.05,1.47.11,2.94.06,4.4Zm-.21,12.62c.01,1.91-1.48,3.38-3.4,3.35-1.94-.03-3.35-1.51-3.28-3.45.07-1.92,1.59-3.3,3.54-3.19,1.77.1,3.12,1.51,3.14,3.29Z"/>
    </g>
    <path class="cls-2" d="m886.12,128.84c.52.44.95.8,1.46,1.23-.11.41-2.06.53-2.44.87-3.12.42-6.16.55-9.3.55-3.66,0-7.28.13-10.89.27-.22,0-.43.03-.65.03-4.97.08-9.95.15-14.92.24-1.1.02-2.2.06-3.3.09-.77.02-1.55.04-2.32.04-3.11.02-6.25-.04-9.31.07-3.85.13-7.75.06-11.57.27-.43.02-.88.02-1.33.02-4.21.04-8.38.2-12.56.33-2.86.09-5.75.1-8.63.13-3.98.05-7.97.1-11.96.14-2.44.02-4.88.02-7.33.04-2.66.02-5.32.06-7.98.07-1.99,0-3.99-.02-5.99-.04-1.33-.01-2.66-.04-3.99-.04-3.78,0-7.55,0-11.33,0-2.22,0-4.43-.02-6.64.1-.86.05-1.77.03-2.66.03-13.66,0-27.32.04-40.97-.04-6.43-.04-12.86-.11-19.3-.1-2.77,0-5.53.07-8.3.11-1.11.01-2.22.01-3.33.02-5.22.02-10.46-.04-15.65.07-5.77.12-11.53.08-17.3.09-2.1,0-4.21-.07-6.31-.07-9.55-.01-19.1-.01-28.65-.02-7.11,0-14.21-.02-21.32-.03-2.55,0-5.11,0-7.66-.03-1.66-.01-3.31-.06-4.97-.1-.55-.01-1.11-.03-1.66-.03-4.22-.02-8.44-.05-12.65-.05-8.55-.01-17.1,0-25.65-.01-2.44,0-4.88.03-7.3-.11-.96-.05-1.99-.03-2.99-.03-5.22,0-10.44-.02-15.66,0-3.66.01-7.31.07-10.97.11-.78,0-1.55,0-2.33.01-18.21.01-36.42.02-54.63.04-8.22,0-16.44,0-24.65.06-3.54.03-7.08.11-10.63.11-6.77,0-13.55,0-20.31.09-5.66.08-11.33.12-16.97.04-5.33-.08-10.65-.07-15.97-.09-2.55-.01-5.11-.04-7.63.1-.64.04-1.33.02-1.99.02-12.1.01-24.21.05-36.31.03-10.32-.02-20.64-.11-30.96-.14-7.88-.03-15.77,0-23.65-.01-.33,0-.67,0-1,0-3.21.02-6.42.02-9.63.11-3.3.09-6.65.05-9.98.08-1.55.01-3.09.06-4.64.08-1.11.02-2.22.03-3.32.04-10.99.02-21.99.02-32.98.05-2.43,0-4.87.07-7.3.11-.89.01-1.78.01-2.66.01-4.66.02-9.33,0-13.99.06-3.31.04-6.6.17-9.9.26-2.42.07-4.84.16-7.26.21-3.87.08-7.74.14-11.61.2-6.2.08-12.41.12-18.61.23-11.75.21-23.52.15-35.28.21-2.21.01-4.42.09-6.63.11-3.55.03-7.1.04-10.65.06-.67,0-1.34,0-1.99.03-3.62.17-7.03-.08-10.47-.33-1.37-.1-2.19-.4-3.4-.63-.88,0-1.87-.02-2.85-.03-4.09-.04-8.19.06-12.29-.12-1.84-.08-3.79-.07-5.65,0-2.32.09-4.64.1-6.96.11-1.32,0-2.64.06-4.22.11-.48-.04-1.22-.11-1.94-.17-1.05-.23-1.99-.48-2.93-.79.34-.2.66-.38.96-.56,1.32-.24,2.96-.32,3.79-.72.24-.12.84-.2,1.34-.26,3.03-.37,6.04-.68,9.55-.64,8.2.1,16.42.15,24.63.15,8.1,0,16.2-.08,24.29-.17,4.2-.05,8.39-.2,12.59-.28,2.32-.04,4.66-.06,6.99-.06,4.77-.01,9.55,0,14.32-.02,8.21-.05,16.43-.06,24.63-.19,9.54-.16,19.09-.16,28.63-.13,12.99.05,25.97-.13,38.95-.05,11.75-.24,23.53-.02,35.28-.17,3.1-.04,6.19-.09,9.28-.15,8.87-.17,17.75-.22,26.61-.11,8.54.11,17.1.03,25.62.18,6.66.12,13.31.1,19.97.11,3.21,0,6.43-.07,9.64-.1.55,0,1.11-.01,1.66-.01,17.43,0,34.87-.01,52.3,0,3.32,0,6.65.07,9.97.09.99,0,1.99-.03,2.98-.06.88-.02,1.76-.06,2.65-.06,3.66-.02,7.34.01,10.98-.06,9.64-.2,19.3-.06,28.95-.14,3.77-.03,7.55.02,11.32.02,13.32-.01,26.65,0,39.97-.06,10.43-.04,20.86-.11,31.3-.08,3.66.01,7.32.04,10.98.07,9.43.09,18.87.1,28.31.06,2,0,4-.01,6,0,3.1.02,6.19,0,9.3.11,3.07.11,6.21.06,9.31.08,1.55,0,3.11,0,4.66,0,1.88.02,3.76.07,5.63.1,1,.02,2,.03,2.99.03,9.11,0,18.21,0,27.32-.03,2.21,0,4.43-.08,6.64-.09,3.44-.02,6.87.05,10.3.1,5.65.07,11.32.04,16.98.05,1.78,0,3.55,0,5.33-.02,1.66-.02,3.31-.06,4.97-.09.77-.01,1.55-.03,2.32-.03,15.88-.01,31.76-.03,47.63-.03,1.43,0,2.87.06,4.3.08.99.02,1.99.04,2.99.04,11.22,0,22.43.02,33.65.01,1.77,0,3.54-.06,5.31-.08.55,0,1.14-.04,1.65,0,1.97.13,3.98.09,5.97.09,8.1,0,16.22.03,24.31-.04,4.54-.04,9.09-.05,13.62-.14,5.17-.11,10.32-.31,15.48-.46.77-.02,1.55,0,2.33-.02,5.52-.11,11.05-.18,16.58-.25,4.98-.06,9.99-.04,14.94-.17,3.85-.1,7.73-.08,11.57-.26,2.28-.11,4.64-.1,6.97-.13,3.32-.05,6.63,0,9.95.02.32,0,.63.05,1.02.08Z"/>
  </g>
</svg>