<?xml version="1.0" encoding="UTF-8"?>
<svg id="Layer_1" data-name="Layer 1" xmlns="http://www.w3.org/2000/svg" viewBox="0 0 371.78 537.19">
  <defs>
    <style>
      .cls-1 {
        fill: #000;
        stroke-width: 0px;
      }
    </style>
  </defs>
  <path class="cls-1" d="M339.46,0H32.33C14.5,0,0,14.5,0,32.33v472.54c0,17.82,14.5,32.33,32.33,32.33h307.13c17.82,0,32.33-14.5,32.33-32.33V32.33c0-17.82-14.5-32.33-32.33-32.33ZM344.68,504.87c0,2.88-2.34,5.23-5.23,5.23H32.33c-2.88,0-5.23-2.34-5.23-5.23V32.33c0-2.88,2.34-5.23,5.23-5.23h307.13c2.88,0,5.23,2.34,5.23,5.23v472.54Z"/>
  <path class="cls-1" d="M300.5,179.24h0s-111.8,0-111.8,0v-89.51h111.8v-.05c7.1,0,12.86-7.58,12.86-16.94s-5.76-16.94-12.86-16.94v.05h-144.75c-2.99-.19-12.94-.6-25.47,1.28-19.91,2.99-36.85,10.48-48.99,21.65-7.29,6.7-12.95,14.75-16.83,23.92-4.2,9.91-6.32,21.2-6.32,33.55,0,11.49,2.01,22.04,5.99,31.35,3.68,8.63,9.05,16.25,15.96,22.63,12.2,11.28,28.76,18.54,49.22,21.57,8.01,1.19,14.99,1.47,19.8,1.47,2.6,0,4.56-.08,5.71-.15v89.81h-85.52c-7.09.01-12.84,7.59-12.84,16.94s5.76,16.94,12.86,16.94h0s85.5,0,85.5,0v133.53h0c0,.09,0,.18,0,.26v.16h0c.29,6.91,7.76,12.44,16.93,12.44s16.64-5.53,16.93-12.44h0v-.16c0-.09,0-.18,0-.27h0v-133.5c.18,0,.37,0,.57,0,4.38,0,13.18-.3,23.77-2.24,20.42-3.75,36.94-11.55,49.1-23.19,14.6-13.96,22-32.47,22-54.99,0-16.78-4.84-31.31-14.41-43.31h30.77v.02c7.1,0,12.86-7.59,12.86-16.95s-5.76-16.95-12.86-16.95ZM154.83,179.24h-.89s-.7.05-.7.05c-9.12.65-35.81-.59-50.23-14.01-7.39-6.88-10.99-16.37-10.99-29.03,0-14.28,3.96-24.89,12.12-32.45,17.42-16.14,48.48-14.21,49.63-14.13l.62.06h.44v89.51ZM238.82,286.85c-16.17,15.57-44.76,16.15-50.11,16.12v-89.51c5.6.19,35.92,1.9,51.84,17.75,6.54,6.52,9.73,14.77,9.73,25.22,0,13.06-3.75,23.01-11.45,30.43Z"/>
  <circle class="cls-1" cx="266.29" cy="426.79" r="24.89"/>
</svg>