<?xml version="1.0" encoding="UTF-8"?>
<svg id="Layer_1" data-name="Layer 1" xmlns="http://www.w3.org/2000/svg" viewBox="0 0 1560.09 334.51">
  <defs>
    <style>
      .cls-1 {
        fill: #fff;
        font-family: MyriadPro-BoldCond, 'Myriad Pro';
        font-size: 307.74px;
        font-weight: 700;
      }

      .cls-2 {
        fill: #4f4435;
      }

      .cls-3 {
        fill: #777;
      }

      .cls-4 {
        letter-spacing: 0em;
      }

      .cls-5 {
        fill: #fee4c1;
      }

      .cls-6 {
        letter-spacing: -.02em;
      }

      .cls-7 {
        fill: #98a3a8;
      }

      .cls-8 {
        fill: #606060;
      }

      .cls-9 {
        fill: #3a56a5;
      }

      .cls-10 {
        fill: #8e0909;
      }

      .cls-11 {
        fill: #661616;
      }

      .cls-12 {
        fill: #e8f7fe;
      }

      .cls-13 {
        letter-spacing: .03em;
      }

      .cls-14 {
        fill: #42392e;
      }

      .cls-15 {
        fill: #4261d1;
      }

      .cls-16 {
        fill: #ccb69f;
      }
    </style>
  </defs>
  <text class="cls-1" transform="translate(80.11 257.58) scale(.9 1)"><tspan class="cls-6" x="0" y="0">F</tspan><tspan x="113.25" y="0">en</tspan><tspan class="cls-13" x="383.13" y="0">c</tspan><tspan x="490.53" y="0">zik </tspan><tspan class="cls-4" x="843.19" y="0">S</tspan><tspan x="966.29" y="0">tudios</tspan></text>
  <g>
    <path class="cls-9" d="M74.92,194.18l-25.38-4.94v.07c.01-.13,2.28-13-2.75-24.44-6.37-14.5-11.21-22.82-11.25-22.9-3.6-6.16-1.53-14.08,4.62-17.68,6.15-3.61,14.07-1.55,17.68,4.6.22.38,5.58,9.55,12.63,25.58,8.21,18.68,4.86,37.61,4.46,39.71Z"/>
    <path class="cls-5" d="M39.19,113.16l21.92-16.26,12.86,17.53s.54,16.74-10.15,23.21c-10.69,6.47-14.34-1.9-14.34-1.9l-10.29-22.57Z"/>
    <path class="cls-5" d="M63.41,103.68s.54-7.95,5.46-6.11,2.44,14.68,2.44,14.68l-7.91-8.57Z"/>
    <path class="cls-16" d="M39.74,114.71l1.16,2.28s5.83-3.05,10.55-6.68c4.84-3.73,6.91-6.01,6.91-6.01l-1.36-2.86-17.27,13.28Z"/>
    <path class="cls-14" d="M63.3,98.61c-.14.17-.28.35-.44.55-1.3,1.66-3.64,4.12-4.67,5.2-1.18-1.11-1.61-2.43-1.61-2.43l4.8-5.48s.68.54,1.52,1.55c.15.18.29.39.4.61Z"/>
    <path class="cls-2" d="M67.12,109.8l-2.46,1.25-1.25-4.6-2.93-.79c-.96-.26-1.71-.76-2.29-1.3,1.04-1.08,3.37-3.54,4.67-5.2.16-.2.3-.38.44-.55.52.99.67,2.19.67,2.19,0,0-.28.85-.09,1.68.48,2.12,3.23,7.31,3.23,7.31Z"/>
    <path class="cls-9" d="M52.6,105.98c-5.62,4.56-15.54,10.33-15.54,10.33,0,0-6.1-13.86-1.28-21.19,2.07-.2,4.71-.2,7.05.63,4.73,1.66,9.77,10.23,9.77,10.23Z"/>
    <path class="cls-15" d="M61.72,96.8s-1.96,3.09-8.38,8.56c-.24.2-.48.41-.74.61,0,0-5.04-8.57-9.77-10.23-2.34-.82-4.98-.83-7.05-.63.99-1.51,2.44-2.79,4.51-3.66,12.09-5.14,21.44,5.35,21.44,5.35Z"/>
    <path class="cls-9" d="M28.73,116.47l-9.84,6.06s-2.07-1.14-2.85-5.65c-.2-1.13-.29-1.98-.2-2.64.78-.71,2.02-1.35,3.95-1.64,5.41-.79,8.94,3.87,8.94,3.87Z"/>
    <path class="cls-15" d="M49.12,108.65s-9.24,6.29-14.78,9.24c-3.41,1.82-5.61-.06-5.61-.06,0,0-3.53-4.67-8.94-3.87-1.93.28-3.16.93-3.95,1.64.26-1.98,2.11-2.37,7.5-4.08,7.19-2.26,9.29-2.77,16.2-4.65,6.9-1.88,9.57,1.79,9.57,1.79Z"/>
    <path d="M80.68,261.66c3.88,2.34,11.63-3.24,15.01-10.86s3.84-13.66,4.28-16.61c.53-3.56-1.48-7.76-1.48-7.76,0,0-6.37,16.58-11.54,21.82-5.33,5.39-10.48,10.88-6.27,13.42Z"/>
    <path class="cls-2" d="M65.62,123.37s-2.83,1.82-6.47,2.76c-3.65.95-6.4.43-6.4.43,0,0,.16,1.44-1.29,3.76-1.45,2.32-5.62,5.12-5.62,5.12l-.16-3.39c-.12-2.53.57-6.09.92-7.73h4.86l2.72-4.79c1.37-.09,3.47.15,5.64,1.01,3.55,1.41,5.79,2.81,5.79,2.81Z"/>
    <path class="cls-9" d="M31.16,180.63s-8.03,13.86-4.57,26.23c3.46,12.38,11.25,15.56,23.68,22.21,12.43,6.65,23.25,23.16,23.25,23.16,0,0,14.02-5.79,20.72-15.39,6.7-9.6,3.96-12.95,3.96-12.95,0,0-.75-3.61-6.55-7.47-5.8-3.86-7.62-5.03-7.62-5.03,0,0-31.48-56.82-40.07-47.23-7.77,8.68-12.8,16.45-12.8,16.45Z"/>
    <path class="cls-15" d="M17.4,220.7s15.69-2.39,24.3-13.41c5.13-6.56,8.19-13.81,9.84-18.61,1.12-3.26,1.57-5.38,1.57-5.38l-17.85-4.51s3.63-14.02,6.44-20.11c2.82-6.09,5.56-23.46,21.41-25.59s41.9,12.19,34.28,44.49c-7.62,32.3-26.69,55.7-43.42,68.25-16.72,12.55-26.36,15.69-26.36,15.69l-12.97-24.4s3.07-.39,6.27.96l3.2,1.35-6.7-18.74Z"/>
    <path class="cls-12" d="M70.02,128.96s7.35,10.04,8.9,33.47c.66,9.94-5.65,11.4-5.65,11.4,0,0-3.41,7.97-5.6,17.37-1.88,8.11-2.06,19.38-2.06,19.38,0,0-5.16-5.28-12.74-6.19-7.88-.95-9.66,2.19-14.96,3.65-7.32,2.02-10.85.41-10.85.41,0,0-3.7-5.38-1.35-16.36,2.36-10.97,15.04-31.36,15.04-31.36l29.26-31.77Z"/>
    <path class="cls-9" d="M67.12,132.53s1.07,2.43,1.57,4.04c.5,1.6.78,3.52.78,3.52,0,0-2.89,4.59-7.31,5.84s-6.24-.81-6.24-.81l1.75-8.07,9.44-4.51Z"/>
    <path class="cls-7" d="M63.91,174.96c-2.39,0-5.17-.13-8.38-.45-7.49-.74-14.55-4.77-14.85-4.94-.54-.31-.73-1-.42-1.54.31-.54,1-.73,1.54-.42.07.04,6.95,3.95,13.95,4.65,16.85,1.67,20.76-2.01,20.79-2.04.42-.47,1.12-.49,1.59-.08.47.42.49,1.14.08,1.61-.35.39-3.26,3.21-14.3,3.21Z"/>
    <g>
      <path class="cls-2" d="M100.45,84.85c-3.23.54-19.21,3.8-26.72-12.61-7.9-17.28,17.69-28.64,17.47-40.1-.22-11.45-13.91-12.8-13.91-12.8,0,0,23.39-6,34.09,27.02,10.5,32.42-6.99,37.83-10.93,38.49Z"/>
      <path class="cls-14" d="M88.82,81.45c-4.65-2.16-8.98-5.81-10.7-10.77-.57-1.63-.75-3.35-.66-5.01.02-.41.37-.72.78-.7.37.02.66.31.69.67.41,4.44,3.65,7.9,7.49,9.82,1.23.63,2.56,1.18,3.89,1.51,1.3.18,2.21,1.39,2.03,2.7-.21,1.65-2.09,2.54-3.53,1.77h0Z"/>
      <path class="cls-3" d="M95.24,82.61l-2.41,8.78c-.7,2.55-3.33,4.05-5.88,3.35-2.97-.77-4.44-4.32-2.9-6.97,0,0,4.48-7.93,4.48-7.93,2.21-3.71,7.76-1.37,6.71,2.77h0Z"/>
      <path class="cls-8" d="M85.87,94.81c2.39.9,5.09.28,6.03-1.37s-.5-4.51-2.89-5.41-4.84.5-5.78,2.16.24,3.73,2.64,4.62Z"/>
      <path class="cls-10" d="M90.04,94.31c-1.6,3.99-3.63,7.9-5.66,11.68-4.71,8.67-9.93,17.03-15.38,25.23-17.28,25.48-35.68,50.05-54.54,74.38-2.67,3.39-7.59,3.98-10.98,1.31-3.57-2.78-4-8.1-.93-11.43,14.8-16.41,29.21-33.29,43.36-50.29,11.87-14.28,23.48-28.84,33.35-44.57,1.72-2.81,3.47-5.73,4.91-8.69,0,0,.09-.19.09-.19,1.88-3.56,7.14-1.26,5.78,2.56h0Z"/>
      <ellipse class="cls-11" cx="6.94" cy="202.38" rx="6.1" ry="7.51" transform="translate(-150.76 75.35) rotate(-49.18)"/>
    </g>
    <path class="cls-15" d="M90.43,114.13c2.72,5.53,4.87,11.25,6.64,17.17,1.81,6.17,3.24,12.88,3.51,19.84.09,2.71.01,5.44-.15,8.15-.51,7.71-1.92,15.32-4.38,22.66-.35,1.11-.84,2.34-1.26,3.45-.14.38-.44,1.05-.59,1.42-2.34,5.52-8.72,8.09-14.23,5.75-5.66-2.32-8.06-9.07-5.72-14.37.61-1.93,1.08-3.89,1.47-5.91,1.19-6.19,1.5-12.6.94-18.88-.74-8.65-4.24-17.84-8.3-25.75,0,0-.39-.73-.39-.73l-.19-.34c-.05-.09-.14-.25-.13-.23-7.5-15.41,14.07-27.02,22.78-12.22h0Z"/>
    <path class="cls-9" d="M92.51,193.44c-6.61-2.47-14.19-8.12-17.11-14.52-.51-1.14-1.87-2.98-2.13-4.21,0,0,.04-.72.61-1.27.67-.64,1.9-1.11,1.9-1.11,0,0,3.06,5.58,7.7,10.53s6.83,6.06,9.98,8.01l-.95,2.56Z"/>
    <path class="cls-7" d="M44.59,176.79c2.42-.38,4.83-.36,7.24.02,2.43.43,4.57,1.57,6.36,3.2.16.15.17.39.02.55-.13.14-.35.16-.5.06-.92-.53-1.95-.94-2.97-1.21-3.06-.79-6.23-.03-9.11,1.02-2.73,1.07-3.93-3.1-1.04-3.64h0Z"/>
    <path d="M6.13,228.92c-4.76.44,1.88,15.16,7.52,22.53,4.83,6.31,8.48,9.96,11.43,10.64,1.17.27,2.53-.65,2.53-.65,0,0-3.66-6.87-7.03-13.62,0,0-8.63-19.44-14.44-18.91Z"/>
    <path class="cls-9" d="M22.81,236.1l1.14,3.25c1.4,1.23,2.88,2.27,4.43,3.26,5.78,3.76,16.18,7.7,19.82-1.04,2.13-5.11-1.44-8.73-4.45-10.26-2.73-1.39-5.69-2.02-7.89-2.29-.41-.05-.58.51-.21.7,0,0,3.34,1.63,5.76,3.07s7.24,5.66,2.69,10.07c-5.86,5.68-21.3-6.75-21.3-6.75Z"/>
    <path class="cls-14" d="M54.84,119.54l-3.07,5.32h-5.28c.12-.55.32-1.42.32-1.42l3.9-.36,1.98-3.46s1.3-.07,2.16-.08Z"/>
  </g>
</svg>