<?xml version="1.0" encoding="UTF-8"?>
<svg id="Layer_1" data-name="Layer 1" xmlns="http://www.w3.org/2000/svg" xmlns:xlink="http://www.w3.org/1999/xlink" viewBox="0 0 100.29 79.92">
  <defs>
    <style>
      .cls-1 {
        fill: url(#linear-gradient);
        stroke-width: 0px;
      }

      .cls-2 {
        fill: url(#linear-gradient-2);
        stroke: #fff;
      }
    </style>
    <linearGradient id="linear-gradient" x1="10.1" y1="580.01" x2="97.73" y2="510.45" gradientTransform="translate(0 588.18) scale(1 -1)" gradientUnits="userSpaceOnUse">
      <stop offset="0" stop-color="#9013fe"/>
      <stop offset="1" stop-color="#6610f2"/>
    </linearGradient>
    <linearGradient id="linear-gradient-2" x1="38.08" y1="564.76" x2="56.13" y2="534.24" gradientTransform="translate(0 588.18) scale(1 -1)" gradientUnits="userSpaceOnUse">
      <stop offset="0" stop-color="#fff"/>
      <stop offset="1" stop-color="#f1e5fc"/>
    </linearGradient>
  </defs>
  <path class="cls-1" d="M11.06,10.44c-.19-5.43,4.04-10.44,9.77-10.44h58.64c5.72,0,9.96,5.01,9.77,10.44-.18,5.22.05,11.98,1.76,17.49,1.71,5.53,4.59,9.03,9.3,9.47v5.09c-4.71.45-7.59,3.94-9.3,9.47-1.7,5.51-1.94,12.27-1.76,17.49.19,5.43-4.04,10.44-9.77,10.44H20.83c-5.72,0-9.96-5.01-9.77-10.44.18-5.22-.05-11.98-1.76-17.49-1.71-5.53-4.59-9.03-9.31-9.47v-5.09c4.71-.45,7.6-3.94,9.31-9.47,1.7-5.51,1.94-12.27,1.76-17.49Z"/>
  <path class="cls-2" d="M52.15,59.53c8.53,0,13.68-4.18,13.68-11.07,0-5.21-3.67-8.98-9.12-9.58v-.22c4-.65,7.14-4.37,7.14-8.52,0-5.92-4.67-9.77-11.79-9.77h-16.01v39.16h16.1ZM42.28,25.34h8.28c4.5,0,7.06,2.01,7.06,5.64,0,3.88-2.97,6.05-8.37,6.05h-6.98v-11.7ZM42.28,54.56v-12.89h8.23c5.89,0,8.95,2.17,8.95,6.4s-2.97,6.49-8.59,6.49h-8.59Z"/>
</svg>