<?xml version="1.0" encoding="UTF-8"?>
<svg id="Layer_1" data-name="Layer 1" xmlns="http://www.w3.org/2000/svg" viewBox="0 0 74.1 74.1">
  <defs>
    <style>
      .cls-1 {
        fill: #222;
      }

      .cls-1, .cls-2 {
        stroke-width: 0px;
      }

      .cls-2 {
        fill: #ff4000;
      }
    </style>
  </defs>
  <g>
    <rect class="cls-1" width="74.1" height="74.1" rx="6.3" ry="6.3"/>
    <rect class="cls-1" width="74.1" height="74.1" rx="6.3" ry="6.3"/>
  </g>
  <g id="i">
    <path class="cls-2" d="M22.5,10.62c.18,5.41,3.92,8.41,11.39,9.58,6.33.99,12.04.49,13.9-4.94,3.63-10.57-4.99-7.94-12.45-9.12-7.47-1.17-13.13-4.22-12.84,4.47Z"/>
    <path class="cls-2" d="M24.74,32.83c.69,4.04,4.46,6.35,10.22,6.2,5.76-.16,10.06-2.41,10.66-6.77,1.1-8.07-5.25-4.95-11.01-4.79-5.76.16-11.23-2.57-9.86,5.36Z"/>
    <path class="cls-2" d="M32.24,51.32c1.14,3.02,4.28,4.29,8.53,3.38,4.24-.9,7.17-2.31,6.93-5.75-.43-6.36-4.62-4.36-8.86-3.45-4.24.9-8.83-.1-6.6,5.82Z"/>
    <path class="cls-2" d="M35.88,65.42c.33,2.55,2.53,4.05,5.98,4.02,3.45-.03,6.06-1.39,6.51-4.12.83-5.05-3.03-3.17-6.48-3.14-3.45.03-6.67-1.76-6.01,3.24Z"/>
  </g>
</svg>