<?xml version="1.0" encoding="UTF-8"?>
<svg id="Layer_1" data-name="Layer 1" xmlns="http://www.w3.org/2000/svg" viewBox="0 0 66.29 93.56">
  <defs>
    <style>
      .cls-1 {
        fill: #000;
      }

      .cls-1, .cls-2, .cls-3, .cls-4, .cls-5 {
        stroke-width: 0px;
      }

      .cls-2 {
        fill: #e44d26;
      }

      .cls-3 {
        fill: #ebebeb;
      }

      .cls-4 {
        fill: #f16529;
      }

      .cls-5 {
        fill: #fff;
      }
    </style>
  </defs>
  <path class="cls-2" d="M66.29,18.39l-6.04,67.65-27.14,7.53-27.07-7.52L0,18.39h66.29Z"/>
  <path class="cls-4" d="M33.14,87.81l21.93-6.08,5.16-57.81h-27.1v63.89Z"/>
  <path class="cls-3" d="M21.4,40.52h11.74v-8.29H12.33l.2,2.23,2.04,22.87h18.57v-8.3h-10.98l-.76-8.5ZM23.27,61.46h-8.33l1.16,13.03,17,4.72h.04v-8.64h-.04s-9.24-2.49-9.24-2.49l-.59-6.62h0Z"/>
  <path class="cls-1" d="M6.17,0h4.22v4.17h3.86V0h4.22v12.62h-4.22v-4.22h-3.86v4.22h-4.22V0ZM24,4.18h-3.71V0h11.64v4.18h-3.71v8.43h-4.22V4.18h0ZM33.79,0h4.4l2.7,4.43,2.7-4.43h4.4v12.62h-4.2v-6.25l-2.9,4.49h-.07l-2.9-4.49v6.25h-4.13V0ZM50.09,0h4.22v8.45h5.93v4.17h-10.15V0Z"/>
  <path class="cls-5" d="M33.11,57.31h10.22l-.96,10.76-9.26,2.5v8.63l17.01-4.72.12-1.4,1.95-21.85.2-2.23h-19.29v8.3ZM33.11,40.5v.02h20.04l.17-1.87.38-4.21.2-2.23h-20.79v8.28h0Z"/>
</svg>