<?xml version="1.0" encoding="UTF-8"?>
<svg id="Layer_1" data-name="Layer 1" xmlns="http://www.w3.org/2000/svg" viewBox="0 0 75.92 74.02">
  <defs>
    <style>
      .cls-1 {
        fill: #31a8ff;
      }

      .cls-1, .cls-2 {
        stroke-width: 0px;
      }

      .cls-2 {
        fill: #001e36;
      }
    </style>
  </defs>
  <g id="Layer_2" data-name="Layer 2">
    <g id="Surfaces">
      <g id="Photo_Surface" data-name="Photo Surface">
        <g id="Outline_no_shadow" data-name="Outline no shadow">
          <path class="cls-2" d="M13.44,0h49.03c7.43,0,13.44,6.01,13.44,13.44v47.13c0,7.43-6.01,13.44-13.44,13.44H13.44c-7.43,0-13.44-6.01-13.44-13.44V13.44C0,6.01,6.01,0,13.44,0Z"/>
        </g>
      </g>
    </g>
    <g id="Outlined_Mnemonics_Logos" data-name="Outlined Mnemonics Logos">
      <g id="Ps">
        <path class="cls-1" d="M17.08,51.91V19.36c0-.22.09-.35.32-.35.54,0,1.04,0,1.77-.03.76-.03,1.55-.03,2.4-.06.85-.03,1.77-.03,2.75-.06.98-.03,1.93-.03,2.88-.03,2.59,0,4.74.32,6.52.98,1.58.54,3.04,1.42,4.24,2.59,1.01,1.01,1.8,2.25,2.31,3.61.47,1.33.73,2.69.73,4.11,0,2.72-.63,4.97-1.9,6.74-1.27,1.77-3.04,3.1-5.09,3.86-2.15.79-4.52,1.08-7.12,1.08-.76,0-1.27,0-1.58-.03s-.76-.03-1.36-.03v10.15c.03.22-.13.41-.35.44h-6.14c-.25,0-.38-.13-.38-.41ZM23.98,25.12v10.63c.44.03.85.06,1.23.06h1.68c1.23,0,2.47-.19,3.64-.57,1.01-.28,1.9-.89,2.59-1.68.66-.79.98-1.87.98-3.26.03-.98-.22-1.96-.73-2.82-.54-.82-1.3-1.46-2.21-1.8-1.17-.47-2.44-.66-3.73-.63-.82,0-1.55,0-2.15.03-.63-.03-1.08,0-1.3.03h0Z"/>
        <path class="cls-1" d="M60.73,33.81c-.95-.51-1.96-.85-3.04-1.08-1.17-.25-2.34-.41-3.54-.41-.63-.03-1.3.06-1.9.22-.41.09-.76.32-.98.63-.16.25-.25.57-.25.85s.13.57.32.82c.28.35.66.63,1.08.85.73.38,1.49.73,2.25,1.04,1.71.57,3.35,1.36,4.87,2.31,1.04.66,1.9,1.55,2.5,2.63.51,1.01.76,2.12.73,3.26.03,1.49-.41,2.97-1.23,4.21-.89,1.27-2.12,2.25-3.54,2.82-1.55.66-3.45,1.01-5.73,1.01-1.46,0-2.88-.13-4.3-.41-1.11-.19-2.21-.54-3.23-1.01-.22-.13-.38-.35-.35-.6v-5.5c0-.09.03-.22.13-.28.09-.06.19-.03.28.03,1.23.73,2.53,1.23,3.92,1.55,1.2.32,2.47.47,3.73.47s2.06-.16,2.63-.44c.51-.22.85-.76.85-1.33,0-.44-.25-.85-.76-1.27-.51-.41-1.55-.89-3.1-1.49-1.61-.57-3.1-1.33-4.49-2.28-.98-.7-1.8-1.61-2.4-2.69-.51-1.01-.76-2.12-.73-3.23,0-1.36.38-2.66,1.08-3.83.79-1.27,1.96-2.28,3.32-2.91,1.49-.76,3.35-1.11,5.6-1.11,1.3,0,2.63.09,3.92.28.95.13,1.87.38,2.72.73.13.03.25.16.32.28.03.13.06.25.06.38v5.16c0,.13-.06.25-.16.32-.28.06-.44.06-.57,0Z"/>
      </g>
    </g>
  </g>
</svg>