<?xml version="1.0" encoding="UTF-8"?>
<svg id="Layer_1" data-name="Layer 1" xmlns="http://www.w3.org/2000/svg" viewBox="0 0 93.05 75.58">
  <defs>
    <style>
      .cls-1 {
        fill: #ff9800;
      }

      .cls-1, .cls-2 {
        stroke-width: 0px;
      }

      .cls-2 {
        fill: #1976d2;
      }
    </style>
  </defs>
  <path class="cls-2" d="M61.07,31.66h-.1c-3.24,0-6.2,1.16-8.48,3.06-2.3,1.94-3.82,4.68-3.99,7.78h0c-.17,3.19,1.11,6.14,3.35,8.34,2.37,2.26,5.56,3.64,9.09,3.64h.26c3.52,0,6.72-1.38,9.08-3.64,2.25-2.2,3.53-5.16,3.35-8.35-.17-3.1-1.69-5.84-3.99-7.77-2.41-2-5.45-3.08-8.58-3.06Z"/>
  <path class="cls-1" d="M85.64,64.79c2.76-3.02,4.85-6.61,6.11-10.5l.06-.21c.83-2.62,1.25-5.35,1.24-8.09,0-5.17-1.47-10.23-4.22-14.61-1.89-3.01-4.29-5.67-7.1-7.86l-.07-.05h0L52.52,1.1c-1.91-1.47-5.11-1.46-7.21,0-2.12,1.48-2.36,3.94-.48,5.49h0s12.12,9.86,12.12,9.86l-37,.04c-3.06,0-5.99,2.01-6.57,4.54-.6,2.58,1.47,4.72,4.65,4.73h0s18.73-.03,18.73-.03L3.2,51.49C.05,53.9-.97,57.92,1.02,60.46c2.02,2.59,6.3,2.59,9.49.02l18.24-14.92s-.27,2.02-.24,3.22h0c.02,1.21.41,3.57.99,5.42,1.26,3.98,3.37,7.63,6.2,10.71,2.96,3.25,6.57,5.86,10.58,7.66l.2.08c4.4,1.96,9.17,2.96,13.99,2.95h.27c5.04,0,9.82-1.08,14.15-3.01,4.07-1.82,7.73-4.45,10.74-7.75,0,0,.02-.03.02-.03ZM79.37,49.24c-.87,2.35-2.24,4.49-4,6.27h0c-3.76,3.83-9.02,6.01-14.71,6.01-5.7.02-10.96-2.14-14.72-5.96-1.75-1.75-3.1-3.86-3.98-6.17l-.04-.12c-.65-1.8-.98-3.7-.98-5.61,0-2.92.76-5.65,2.07-8.04,1.13-2.03,2.63-3.82,4.43-5.28l.03-.03c3.65-2.98,8.3-4.59,13.17-4.59,4.87,0,9.52,1.59,13.17,4.56,1.86,1.52,3.37,3.31,4.47,5.3,1.08,1.91,1.8,4.16,2.02,6.55v.06c.22,2.39-.1,4.8-.93,7.06Z"/>
</svg>