<?xml version="1.0" encoding="UTF-8"?>
<svg id="Layer_1" data-name="Layer 1" xmlns="http://www.w3.org/2000/svg" viewBox="0 0 76.44 74.53">
  <defs>
    <style>
      .cls-1 {
        fill: #00005b;
      }

      .cls-1, .cls-2 {
        stroke-width: 0px;
      }

      .cls-2 {
        fill: #99f;
      }
    </style>
  </defs>
  <path class="cls-1" d="M13.54,0h49.37c7.48,0,13.54,6.05,13.54,13.54v47.46c0,7.48-6.05,13.54-13.54,13.54H13.54c-7.48,0-13.54-6.05-13.54-13.54V13.54C0,6.05,6.05,0,13.54,0Z"/>
  <path class="cls-2" d="M30.7,44.59h-11.85l-2.42,7.52c-.06.29-.32.48-.61.45h-5.99c-.35,0-.45-.19-.35-.57l10.26-29.4c.1-.32.19-.61.32-.99.13-.67.19-1.37.19-2.07-.03-.16.1-.32.25-.35h8.25c.22,0,.38.1.41.25l11.63,32.65c.1.35,0,.51-.32.51h-6.66c-.22.03-.45-.13-.51-.35l-2.61-7.64ZM20.7,38.25h8.09c-.19-.67-.45-1.47-.73-2.29-.29-.86-.57-1.78-.86-2.74-.32-.99-.61-1.94-.92-2.93s-.61-1.91-.86-2.83c-.25-.89-.48-1.72-.7-2.48h-.06c-.29,1.37-.64,2.74-1.08,4.11-.48,1.53-.96,3.12-1.47,4.71-.41,1.62-.92,3.12-1.4,4.46ZM59.69,41.66h-10.1c.13.99.45,1.97.99,2.83.57.86,1.37,1.53,2.33,1.91,1.27.54,2.68.83,4.08.8,1.11-.03,2.23-.13,3.31-.35.99-.13,1.94-.38,2.83-.73.16-.13.25-.06.25.25v4.87c0,.13-.03.25-.06.38-.06.1-.13.16-.22.22-1.02.45-2.07.76-3.18.96-1.5.29-2.99.41-4.52.38-2.42,0-4.46-.38-6.12-1.11-1.56-.67-2.93-1.72-4.01-3.03-1.02-1.24-1.75-2.64-2.2-4.17-.45-1.5-.67-3.06-.67-4.65,0-1.72.25-3.41.8-5.06.51-1.59,1.31-3.06,2.39-4.36,1.05-1.27,2.36-2.29,3.85-3.03,1.5-.73,3.28-.99,5.32-.99,1.69-.03,3.38.29,4.94.99,1.31.57,2.45,1.43,3.34,2.55.83,1.08,1.5,2.29,1.91,3.63.41,1.27.61,2.58.61,3.89,0,.76-.03,1.43-.06,2.04-.06.61-.1,1.05-.13,1.34-.03.22-.22.41-.45.41-.19,0-.54.03-1.05.06-.51.06-1.11.1-1.85.1s-1.5-.13-2.33-.13h0ZM49.59,37.01h6.72c.83,0,1.43,0,1.82-.03.25-.03.51-.1.73-.25v-.32c0-.41-.06-.8-.19-1.18-.57-1.78-2.26-2.99-4.14-2.93-1.75-.1-3.41.83-4.24,2.42-.38.73-.61,1.5-.7,2.29Z"/>
</svg>