<?xml version="1.0" encoding="UTF-8"?>
<svg id="Layer_1" data-name="Layer 1" xmlns="http://www.w3.org/2000/svg" viewBox="0 0 76.44 76.44">
  <defs>
    <style>
      .cls-1 {
        fill: #000;
      }

      .cls-1, .cls-2 {
        stroke-width: 0px;
      }

      .cls-2 {
        fill: #f7df1e;
      }
    </style>
  </defs>
  <path class="cls-2" d="M14.13,0h48.17c7.81,0,14.13,6.33,14.13,14.13v48.17c0,7.81-6.33,14.13-14.13,14.13H14.13c-7.81,0-14.13-6.33-14.13-14.13V14.13C0,6.33,6.33,0,14.13,0Z"/>
  <path class="cls-1" d="M20.57,63.21l5.7-3.45c1.1,1.95,2.1,3.6,4.5,3.6s3.75-.9,3.75-4.4v-23.78h7v23.88c0,7.25-4.25,10.54-10.44,10.54-5.6,0-8.84-2.9-10.49-6.4M45.31,62.46l5.7-3.3c1.5,2.45,3.45,4.25,6.9,4.25,2.9,0,4.75-1.45,4.75-3.45,0-2.4-1.9-3.25-5.1-4.65l-1.75-.75c-5.05-2.15-8.39-4.85-8.39-10.54,0-5.25,4-9.24,10.24-9.24,4.45,0,7.65,1.55,9.94,5.6l-5.45,3.5c-1.2-2.15-2.5-3-4.5-3s-3.35,1.3-3.35,3c0,2.1,1.3,2.95,4.3,4.25l1.75.75c5.95,2.55,9.29,5.15,9.29,10.99,0,6.3-4.95,9.74-11.59,9.74s-10.69-3.1-12.74-7.15"/>
</svg>