<?xml version="1.0" encoding="UTF-8"?>
<svg id="Layer_1" data-name="Layer 1" xmlns="http://www.w3.org/2000/svg" viewBox="0 0 77.1 74.53">
  <defs>
    <style>
      .cls-1 {
        fill: #300;
      }

      .cls-1, .cls-2 {
        stroke-width: 0px;
      }

      .cls-2 {
        fill: #ff9a00;
      }
    </style>
  </defs>
  <rect class="cls-1" width="77.1" height="74.53" rx="13.49" ry="13.49"/>
  <path class="cls-2" d="M38.8,46.26h-11.5l-2.97,8.57c-.03.28-.21.42-.54.42h-5.4c-.36,0-.49-.18-.38-.53l10.41-30.93c.29-.94.44-1.92.43-2.91-.02-.16.09-.3.25-.32.03,0,.05,0,.08,0h7.56c.22,0,.34.09.38.26l11.65,33.96c.11.32.02.48-.27.48h-6.04c-.23.01-.44-.11-.54-.32l-3.13-8.67ZM28.59,40.48h8.96c-.22-.47-4.24-13.47-4.53-14.57h-.05l-4.37,14.57ZM55.22,26.98c-1.02.04-2.02-.33-2.77-1.03-.73-.74-1.11-1.76-1.06-2.79-.05-1.05.35-2.08,1.09-2.82.75-.71,1.76-1.1,2.79-1.06,1.04-.05,2.05.33,2.79,1.06.71.76,1.08,1.78,1.03,2.82.05,1.04-.33,2.05-1.06,2.79-.76.71-1.78,1.08-2.82,1.03ZM52.04,54.77v-24.79c-.03-.21.11-.4.32-.43.04,0,.07,0,.11,0h5.56c.21-.03.4.12.43.33,0,.03,0,.07,0,.1v24.84c.03.21-.11.4-.32.43-.04,0-.07,0-.11,0h-5.51c-.23.03-.45-.13-.48-.36,0-.04,0-.08,0-.12Z"/>
</svg>