<?xml version="1.0" encoding="UTF-8"?>
<svg id="Layer_1" data-name="Layer 1" xmlns="http://www.w3.org/2000/svg" viewBox="0 0 76.44 74.53">
  <defs>
    <style>
      .cls-1 {
        fill: #00005b;
      }

      .cls-1, .cls-2 {
        stroke-width: 0px;
      }

      .cls-2 {
        fill: #99f;
      }
    </style>
  </defs>
  <path class="cls-1" d="M13.54,0h49.37c7.48,0,13.54,6.05,13.54,13.54v47.46c0,7.48-6.05,13.54-13.54,13.54H13.54c-7.48,0-13.54-6.05-13.54-13.54V13.54C0,6.05,6.05,0,13.54,0Z"/>
  <path class="cls-2" d="M36.56,46.28v5.29c.03.32-.13.61-.41.73-.99.35-1.97.57-3.03.7-1.34.16-2.68.22-4.01.22-1.91,0-3.82-.22-5.67-.7-1.72-.45-3.38-1.15-4.9-2.1-1.47-.92-2.74-2.1-3.79-3.47-1.08-1.43-1.94-3.06-2.45-4.78-.61-2.01-.89-4.08-.86-6.15,0-3.44.76-6.5,2.26-9.11,1.5-2.61,3.73-4.75,6.4-6.12,3.06-1.56,6.47-2.36,9.91-2.29,1.34,0,2.64.06,3.98.19.92.1,1.82.32,2.71.61.19.16.29.38.25.61v5.76c0,.32-.13.41-.35.32-.96-.45-2.01-.76-3.06-.92-1.24-.19-2.48-.29-3.76-.29-2.07-.03-4.11.45-5.89,1.43-1.59.89-2.93,2.2-3.79,3.82-.92,1.78-1.37,3.76-1.34,5.76-.03,1.43.19,2.83.64,4.2.38,1.15.99,2.2,1.78,3.12.7.86,1.59,1.56,2.55,2.1.96.51,1.97.89,3.06,1.15,1.02.29,2.1.45,3.15.48,1.15,0,2.33-.03,3.47-.16.96-.13,1.88-.35,2.77-.7.13-.1.22-.13.32-.06.06.1.1.22.06.35Z"/>
  <path class="cls-2" d="M48.35,34.17v17.96c0,.29-.13.41-.35.41h-6.4c-.22.03-.41-.13-.45-.35V16.69c0-.22.13-.35.41-.35h6.47c.16-.03.35.1.35.25v.1l.03,12.1c.92-.61,1.91-1.11,2.96-1.5,1.08-.38,2.33-.48,3.76-.48,1.02,0,2.04.16,2.99.45,1.02.29,1.97.8,2.8,1.5.86.76,1.47,1.82,1.97,3.12.51,1.31.76,3.03.76,5.1v15.1c0,.32-.13.45-.41.45h-6.02c-.25.03-.48-.13-.51-.38v-14.46c.03-.92-.13-1.85-.48-2.71-.29-.64-.73-1.21-1.34-1.62-.7-.41-1.53-.61-2.36-.57-.76,0-1.53.1-2.26.32-.7.29-1.37.64-1.94,1.08Z"/>
</svg>