<?xml version="1.0" encoding="UTF-8"?>
<svg id="Layer_1" data-name="Layer 1" xmlns="http://www.w3.org/2000/svg" viewBox="0 0 66.28 93.56">
  <defs>
    <style>
      .cls-1 {
        fill: #33a9dc;
      }

      .cls-1, .cls-2, .cls-3, .cls-4, .cls-5 {
        stroke-width: 0px;
      }

      .cls-2 {
        fill: #1572b6;
      }

      .cls-3 {
        fill: #131313;
      }

      .cls-4 {
        fill: #ebebeb;
      }

      .cls-5 {
        fill: #fff;
      }
    </style>
  </defs>
  <path class="cls-3" d="M51.94,3.46h-5.5l5.72,6.21v2.96h-11.78v-3.46h5.72l-5.72-6.21V0h11.56v3.46ZM38.04,3.46h-5.5l5.72,6.21v2.96h-11.78v-3.46h5.72l-5.72-6.21V0h11.56v3.46ZM24.28,3.61h-5.94v5.42h5.94v3.61h-10.16V0h10.16s0,3.61,0,3.61Z"/>
  <path class="cls-2" d="M6.03,86.05L0,18.39h66.28l-6.04,67.65-27.14,7.53-27.07-7.51Z"/>
  <path class="cls-1" d="M33.14,87.81l21.93-6.08,5.16-57.81h-27.09v63.89Z"/>
  <path class="cls-5" d="M33.14,48.44h10.98l.76-8.5h-11.74v-8.3h20.81l-.2,2.23-2.04,22.87h-18.57v-8.3Z"/>
  <path class="cls-4" d="M33.19,69.99h-.04s-9.24-2.49-9.24-2.49l-.59-6.62h-8.33l1.16,13.03,17,4.72h.04v-8.64h0Z"/>
  <path class="cls-5" d="M43.42,56.38l-1,11.11-9.25,2.5v8.63l17.01-4.71.13-1.4,1.44-16.13h-8.33Z"/>
  <path class="cls-4" d="M33.17,31.64v8.3H13.13l-.17-1.86-.38-4.21-.2-2.23s20.79,0,20.79,0ZM33.14,48.44v8.3h-9.12l-.17-1.86-.38-4.21-.2-2.23h9.87Z"/>
</svg>