<?xml version="1.0" encoding="UTF-8"?>
<svg id="Layer_1" data-name="Layer 1" xmlns="http://www.w3.org/2000/svg" xmlns:xlink="http://www.w3.org/1999/xlink" viewBox="0 0 1943.17 404.16">
  <defs>
    <style>
      .cls-1 {
        stroke: #fff;
        stroke-linecap: round;
        stroke-miterlimit: 10;
        stroke-width: 6px;
      }

      .cls-1, .cls-2, .cls-3 {
        fill: #fff;
      }

      .cls-4 {
        letter-spacing: 0em;
      }

      .cls-2 {
        font-family: NimbusRomD-Reg, 'Nimbus Roman D';
        font-size: 94.39px;
      }

      .cls-5 {
        letter-spacing: 0em;
      }

      .cls-6 {
        letter-spacing: 0em;
      }

      .cls-7 {
        letter-spacing: 0em;
      }

      .cls-8 {
        filter: url(#drop-shadow-11);
      }

      .cls-9 {
        letter-spacing: 0em;
      }

      .cls-10 {
        letter-spacing: 0em;
      }

      .cls-11 {
        letter-spacing: 0em;
      }

      .cls-12 {
        letter-spacing: 0em;
      }

      .cls-13 {
        letter-spacing: -.01em;
      }

      .cls-3 {
        stroke-width: 0px;
      }

      .cls-14 {
        letter-spacing: -.02em;
      }
    </style>
    <filter id="drop-shadow-11" filterUnits="userSpaceOnUse">
      <feOffset dx="0" dy="3.6"/>
      <feGaussianBlur result="blur" stdDeviation="6"/>
      <feFlood flood-color="#231f20" flood-opacity=".75"/>
      <feComposite in2="blur" operator="in"/>
      <feComposite in="SourceGraphic"/>
    </filter>
  </defs>
  <g class="cls-8">
    <g>
      <path class="cls-3" d="M182.6,172.68c0,17.48,4.37,22.67,18.85,23.22l6.01.27v4.92h-78.39v-4.92l6.01-.27c14.48-.55,18.85-5.74,18.85-23.22V47.31c0-17.48-4.1-22.67-18.85-23.22l-6.01-.27v-4.92h147.22l2.46,40.42-4.92.82c-2.73-22.67-13.11-30.59-40.42-30.59h-50.8v68.83h45.34c16.11-.82,20.76-6.56,21.58-27.04h4.92v65.83h-4.92c.27-19.94-5.46-26.49-22.67-26.49h-44.25v62Z"/>
      <path class="cls-3" d="M384.44,152.74c-6.83,31.14-25.95,50.26-50.53,50.26-28.95,0-50.53-27.86-50.53-64.73s22.4-64.73,52.17-64.73c27.04,0,44.52,19.94,45.07,51.9h-76.75c.54,32.78,16.11,55.17,38.24,55.17,15.57,0,28.68-10.65,38.51-31.14l3.82,3.28ZM352.21,114.5c-.55-18.3-9.01-28.95-22.94-28.95s-22.94,10.65-25.13,28.95h48.07Z"/>
      <path class="cls-3" d="M438.24,96.75c15.84-16.11,28.68-23.22,42.06-23.22,11.2,0,21.3,6.28,25.4,15.84,3.82,8.19,4.92,15.84,4.92,34.14v42.88c.27,27.59,1.09,29.23,13.93,30.04h4.1v4.64h-58.72v-4.64h5.19c12.84-.82,13.66-2.46,13.93-30.04v-43.7c0-25.4-4.1-32.23-19.39-32.23-10.11,0-16.93,3.55-31.41,16.39v59.54c.27,27.04.82,28.68,13.66,30.04h5.46v4.64h-61.46v-4.64h4.92c13.66-.55,15.84-4.37,15.84-28.95v-55.45c0-15.57-1.91-19.12-10.11-19.12-1.91,0-3.82.27-5.46.82l-3,1.09-1.91-3.82c20.21-8.47,23.22-9.83,42.06-19.12v24.85Z"/>
      <path class="cls-3" d="M646.63,152.74c-9.83,33.05-27.31,50.26-50.8,50.26-14.48,0-29.5-7.92-39.33-20.21-8.47-11.2-13.11-26.22-13.11-43.43,0-38.51,23.76-65.83,57.63-65.83,22.67,0,41.24,12.84,41.24,28.68,0,7.1-5.46,12.02-13.38,12.02-8.47,0-13.38-4.64-14.75-14.2-1.64-11.47-6.28-16.11-16.66-16.11-18.85,0-31.14,18.57-31.14,46.71,0,30.32,14.75,49.71,37.69,49.71,17.75,0,31.14-10.65,37.97-29.77l4.64,2.19Z"/>
      <path class="cls-3" d="M699.62,86.37c-17.75-.82-22.4,3.82-23.76,24.86h-5.46l1.64-35.78h94.23l-73.75,114.44h30.05c29.22.55,35.23-4.1,35.78-27.59h6.01l-1.37,38.79h-103.79l73.75-114.72h-33.32Z"/>
      <path class="cls-3" d="M821.15,167.49c0,24.58,2.19,28.41,15.57,28.95h4.37v4.64h-62v-4.64h4.92c13.93-.82,15.02-3.28,15.57-28.95v-55.45c0-15.57-1.91-19.12-9.83-19.12-1.91,0-3.82.27-5.74.82l-3,1.09-1.64-3.82c20.21-8.47,22.94-9.83,41.79-19.12v95.6ZM822.52,32.83c0,7.92-6.28,14.2-14.2,14.2s-13.93-6.28-13.93-14.2,6.28-13.93,14.2-13.93,13.93,6.28,13.93,13.93Z"/>
      <path class="cls-3" d="M890.52,167.49c0,24.58,2.19,28.41,15.57,28.95h3.82v4.64h-60.64v-4.64h3.83c13.66-.55,15.84-4.37,15.84-28.95V54.96c0-15.84-1.91-19.39-10.11-19.39-1.37,0-3.55.27-5.46,1.09l-3,.82-1.64-3.82c20.21-8.47,22.94-9.83,41.79-19.12v114.72l32.23-36.05c2.73-3,4.37-6.01,4.37-7.92,0-3-2.46-4.92-6.83-5.19h-1.37v-4.64h48.62v4.64l-3.55.27c-13.11,1.09-18.57,4.37-30.86,18.03l-24.86,26.49,32.23,44.52c15.57,22.4,21.85,27.04,36.05,27.04v4.64h-57.63v-4.64h2.73c3.55,0,5.46-1.37,5.46-4.1,0-1.64-1.91-5.74-4.64-9.29l-31.96-45.34v29.77Z"/>
      <path class="cls-3" d="M1033.6,201.08v-61.73h5.46c2.19,15.02,4.37,22.12,10.11,30.59,8.74,13.11,22.67,21.3,37.15,21.3,17.75,0,31.68-12.84,31.68-29.5,0-8.47-3-15.02-10.92-22.94-4.92-5.46-11.47-10.38-17.48-13.93l-21.3-12.29c-25.4-14.48-35.78-28.68-35.78-48.34,0-28.13,19.67-47.25,48.34-47.25,8.19,0,14.2,1.09,25.13,4.64,10.93,3.55,11.75,3.82,14.2,3.82,3.55,0,5.74-1.91,7.65-6.56h5.74l-.27,57.9h-4.92c-6.28-20.76-10.65-30.04-17.75-37.42-6.56-6.83-15.57-10.38-26.22-10.38-16.66,0-28.68,10.38-28.68,24.86,0,10.92,9.56,22.4,26.77,32.23l21.31,12.29c28.13,16.11,40.97,33.05,40.97,54.35,0,29.23-22.4,50.26-53.81,50.26q-10.65,0-33.32-7.1c-4.1-1.37-7.92-2.18-10.38-2.18-4.37,0-6.55,1.91-8.19,7.37h-5.46Z"/>
      <path class="cls-3" d="M1199.94,75.44h25.95v10.11h-25.95v77.3c0,12.29,1.09,17.48,5.73,21.3,1.91,1.64,4.64,2.73,7.38,2.73,6.83,0,12.02-3.28,18.03-11.74l3.82,3.28c-8.47,16.66-18.57,24.58-31.68,24.58-10.65,0-19.39-5.19-22.94-13.93-2.73-6.83-3.28-12.56-3.28-27.31v-76.2h-19.67v-5.19c22.12-9.83,29.22-18.03,36.33-40.15h6.28v35.23Z"/>
      <path class="cls-3" d="M1352.61,153.01c0,26.77,1.64,31.96,10.92,31.96,2.46,0,4.37-.27,7.65-1.37l1.64,4.92c-19.94,6.28-22.94,7.37-41.79,15.3v-25.67c-8.19,9.01-9.56,10.38-13.93,14.2-7.65,6.83-16.93,10.65-26.49,10.65-12.56,0-21.58-6.01-26.22-16.93-3.28-7.65-4.37-15.57-4.37-30.59v-46.43c0-24.58-2.19-28.41-15.57-28.95h-3.82v-4.64h40.97v79.48c0,21.58,5.46,30.04,19.39,30.04,9.29,0,14.48-2.73,30.04-16.12v-59.82c0-24.58-2.19-28.41-15.84-28.95h-6.55v-4.64h43.98v77.57Z"/>
      <path class="cls-3" d="M1469.5,184.97c-13.38,12.56-24.58,18.03-37.15,18.03-26.49,0-47.25-26.49-47.25-60.64,0-37.15,25.95-68.83,56.27-68.83,9.83,0,16.39,2.19,28.13,9.83v-28.41c0-15.84-1.91-19.39-9.83-19.39-1.64,0-3.82.27-5.74,1.09l-3,.82-1.91-3.82c20.21-8.47,23.22-9.83,42.06-19.12v136.84c.27,23.49.27,24.31,2.19,27.86,1.91,3.28,4.92,5.19,8.47,5.19,2.19,0,4.37-.27,7.1-1.37l1.91,4.64c-20.49,6.56-23.76,7.92-41.24,16.11v-18.85ZM1469.5,119.96c0-14.2-1.37-21.03-5.46-26.49-4.64-6.56-12.84-10.65-21.3-10.65-19.66,0-33.32,20.49-33.32,49.71,0,31.96,13.93,52.44,35.51,52.44,9.83,0,17.75-3.28,24.58-10.65v-54.35Z"/>
      <path class="cls-3" d="M1560.72,167.49c0,24.58,2.19,28.41,15.57,28.95h4.37v4.64h-62v-4.64h4.92c13.93-.82,15.02-3.28,15.57-28.95v-55.45c0-15.57-1.91-19.12-9.83-19.12-1.91,0-3.82.27-5.74.82l-3,1.09-1.64-3.82c20.21-8.47,22.94-9.83,41.79-19.12v95.6ZM1562.09,32.83c0,7.92-6.28,14.2-14.2,14.2s-13.93-6.28-13.93-14.2,6.28-13.93,14.2-13.93,13.93,6.28,13.93,13.93Z"/>
      <path class="cls-3" d="M1712.58,136.08c0,37.42-26.77,66.92-60.36,66.92s-58.72-27.04-58.72-63.09c0-18.57,7.1-36.33,19.12-48.62,12.02-12.29,25.13-17.75,42.06-17.75,33.6,0,57.9,26.49,57.9,62.55ZM1618.07,136.62c0,33.6,15.3,56.81,37.15,56.81,19.94,0,32.78-19.12,32.78-48.89,0-36.33-15.02-61.45-37.15-61.45-20.76,0-32.78,19.67-32.78,53.53Z"/>
      <path class="cls-3" d="M1737.15,201.9v-45.34h4.64c4.64,24.04,16.11,36.33,33.87,36.33,10.65,0,18.57-7.1,18.57-16.93,0-9.01-6.28-16.93-20.21-24.58l-10.38-6.01c-12.29-6.83-12.84-7.1-17.75-11.47-8.19-7.37-12.02-15.57-12.02-25.13,0-20.49,15.57-35.23,36.87-35.23,5.74,0,10.11.55,18.85,3,5.46,1.37,5.74,1.37,6.56,1.37,1.64,0,2.73-1.09,3.55-3.28h4.92l.27,39.6h-4.92c-3.28-21.03-13.38-31.68-29.77-31.68-10.11,0-17.75,6.83-17.75,16.39,0,8.47,5.74,15.02,19.94,22.67l13.93,7.37c19.39,10.65,28.41,22.94,28.41,38.51,0,20.76-16.11,35.51-38.51,35.51-7.65,0-12.57-.82-25.4-4.1-1.91-.55-3.28-.82-4.64-.82-2.73,0-3.55.82-4.37,3.82h-4.64Z"/>
    </g>
    <text class="cls-2" transform="translate(131.34 364.9)"><tspan x="0" y="0">B</tspan><tspan class="cls-10" x="57.48" y="0">r</tspan><tspan x="90.23" y="0">andi</tspan><tspan class="cls-4" x="253.23" y="0">n</tspan><tspan x="302.22" y="0" xml:space="preserve">g   •   Me</tspan><tspan class="cls-7" x="672.59" y="0">r</tspan><tspan class="cls-13" x="704.21" y="0">c</tspan><tspan x="744.6" y="0">h </tspan><tspan class="cls-11" x="817.28" y="0">D</tspan><tspan class="cls-5" x="888.64" y="0">e</tspan><tspan x="929.32" y="0">s</tspan><tspan class="cls-9" x="964.62" y="0">i</tspan><tspan x="988.78" y="0" xml:space="preserve">gn   •</tspan><tspan class="cls-14" x="1213.51" y="0"> </tspan><tspan x="1235.22" y="0" xml:space="preserve">  Anim</tspan><tspan class="cls-6" x="1494.21" y="0">a</tspan><tspan class="cls-12" x="1535.27" y="0">t</tspan><tspan x="1563.49" y="0">ion</tspan></text>
    <line class="cls-1" x1="43.46" y1="254.25" x2="1899.71" y2="254.25"/>
  </g>
</svg>