<?xml version="1.0" encoding="UTF-8"?>
<svg id="Layer_1" data-name="Layer 1" xmlns="http://www.w3.org/2000/svg" viewBox="0 0 321.21 464.13">
  <defs>
    <style>
      .cls-1 {
        fill: #fff;
        stroke-width: 0px;
      }
    </style>
  </defs>
  <path class="cls-1" d="M293.28,0H27.93C12.53,0,0,12.53,0,27.93v408.27c0,15.4,12.53,27.93,27.93,27.93h265.36c15.4,0,27.93-12.53,27.93-27.93V27.93c0-15.4-12.53-27.93-27.93-27.93ZM297.8,436.2c0,2.49-2.03,4.51-4.51,4.51H27.93c-2.49,0-4.51-2.03-4.51-4.51V27.93c0-2.49,2.03-4.51,4.51-4.51h265.36c2.49,0,4.51,2.03,4.51,4.51v408.27Z"/>
  <path class="cls-1" d="M259.63,154.86h0s-96.59,0-96.59,0v-77.33h96.59v-.05c6.14,0,11.11-6.55,11.11-14.63s-4.97-14.63-11.11-14.63v.05h-125.06c-2.58-.17-11.18-.52-22,1.11-17.2,2.59-31.83,9.05-42.32,18.7-6.29,5.79-11.19,12.74-14.54,20.67-3.63,8.56-5.46,18.31-5.46,28.98,0,9.93,1.74,19.04,5.17,27.09,3.18,7.46,7.82,14.04,13.79,19.55,10.54,9.74,24.85,16.01,42.52,18.64,6.92,1.03,12.95,1.27,17.1,1.27,2.25,0,3.94-.07,4.94-.13v77.59H59.88c-6.13.01-11.09,6.56-11.09,14.64s4.97,14.64,11.11,14.64h0s73.87,0,73.87,0v115.37h0c0,.08,0,.15,0,.23v.14h0c.25,5.97,6.7,10.75,14.63,10.75s14.37-4.78,14.63-10.75h0v-.14c0-.08,0-.15,0-.23h0v-115.34c.16,0,.32,0,.49,0,3.79,0,11.39-.26,20.54-1.94,17.64-3.24,31.91-9.98,42.43-20.04,12.61-12.07,19.01-28.05,19.01-47.51,0-14.5-4.18-27.06-12.45-37.42h26.58c6.14.01,11.11-6.54,11.11-14.63s-4.97-14.64-11.11-14.64ZM133.77,154.86h-.77s-.61.04-.61.04c-7.88.56-30.94-.51-43.4-12.1-6.39-5.94-9.49-14.15-9.49-25.08,0-12.34,3.42-21.5,10.47-28.03,15.05-13.94,41.88-12.27,42.88-12.2l.53.05h.38v77.33ZM206.33,247.84c-13.97,13.46-38.67,13.95-43.3,13.92v-77.34c4.84.16,31.03,1.64,44.79,15.34,5.65,5.63,8.4,12.76,8.4,21.79,0,11.28-3.24,19.88-9.89,26.29Z"/>
  <circle class="cls-1" cx="230.07" cy="368.74" r="21.51"/>
</svg>