<?xml version="1.0" encoding="UTF-8"?>
<svg id="Layer_1" data-name="Layer 1" xmlns="http://www.w3.org/2000/svg" viewBox="0 0 321.21 464.13">
  <defs>
    <style>
      .cls-1 {
        fill: #fff;
        stroke-width: 0px;
      }
    </style>
  </defs>
  <path class="cls-1" d="M271.85,37.49H49.36c-12.91,0-23.42,10.5-23.42,23.42v342.32c0,12.91,10.5,23.42,23.42,23.42h222.49c12.91,0,23.42-10.5,23.42-23.42V60.9c0-12.91-10.5-23.42-23.42-23.42ZM275.64,403.22c0,2.09-1.7,3.79-3.79,3.79H49.36c-2.09,0-3.79-1.7-3.79-3.79V60.9c0-2.09,1.7-3.79,3.79-3.79h222.49c2.09,0,3.79,1.7,3.79,3.79v342.32Z"/>
  <path class="cls-1" d="M243.63,167.33h0s-80.99,0-80.99,0v-64.84h80.99v-.04c5.15,0,9.32-5.49,9.32-12.27s-4.17-12.27-9.32-12.27v.04h-104.86c-2.16-.14-9.37-.44-18.45.93-14.42,2.17-26.69,7.59-35.49,15.68-5.28,4.86-9.38,10.69-12.19,17.33-3.04,7.18-4.58,15.35-4.58,24.3,0,8.33,1.46,15.97,4.34,22.71,2.67,6.25,6.56,11.77,11.56,16.39,8.84,8.17,20.84,13.43,35.66,15.63,5.8.86,10.86,1.07,14.34,1.07,1.89,0,3.3-.06,4.14-.11v65.06h-61.95c-5.14.01-9.3,5.5-9.3,12.27s4.17,12.27,9.32,12.27h0s61.94,0,61.94,0v96.73h0c0,.06,0,.13,0,.19v.12h0c.21,5,5.62,9.01,12.27,9.01s12.05-4.01,12.27-9.01h0v-.11c0-.06,0-.13,0-.19h0v-96.71c.13,0,.27,0,.41,0,3.18,0,9.55-.21,17.22-1.62,14.79-2.72,26.76-8.37,35.57-16.8,10.57-10.12,15.94-23.52,15.94-39.84,0-12.16-3.51-22.68-10.44-31.37h22.29c5.15.01,9.32-5.48,9.32-12.26s-4.17-12.28-9.32-12.28ZM138.1,167.33h-.64s-.51.04-.51.04c-6.61.47-25.94-.43-36.39-10.15-5.36-4.98-7.96-11.86-7.96-21.03,0-10.34,2.87-18.03,8.78-23.5,12.62-11.69,35.12-10.29,35.95-10.23l.45.04h.32v64.84ZM198.95,245.29c-11.72,11.28-32.42,11.7-36.3,11.67v-64.84c4.06.13,26.02,1.37,37.55,12.86,4.74,4.72,7.05,10.7,7.05,18.27,0,9.46-2.71,16.67-8.29,22.04Z"/>
  <circle class="cls-1" cx="218.85" cy="346.66" r="18.03"/>
</svg>