<?xml version="1.0" encoding="UTF-8"?>
<svg id="Layer_1" data-name="Layer 1" xmlns="http://www.w3.org/2000/svg" xmlns:xlink="http://www.w3.org/1999/xlink" viewBox="0 0 514.04 425.05">
  <defs>
    <style>
      .cls-1 {
        fill: #fee4c1;
      }

      .cls-1, .cls-2, .cls-3, .cls-4, .cls-5, .cls-6, .cls-7, .cls-8, .cls-9, .cls-10, .cls-11, .cls-12, .cls-13, .cls-14, .cls-15 {
        stroke-width: 0px;
      }

      .cls-2 {
        fill: #fd7703;
      }

      .cls-3 {
        fill: #4fbfe7;
      }

      .cls-4 {
        fill: #6e61b6;
      }

      .cls-5 {
        fill: #4056a1;
      }

      .cls-6 {
        fill: none;
      }

      .cls-7 {
        fill: #fdd1a4;
      }

      .cls-8 {
        fill: #f4b845;
      }

      .cls-9 {
        fill: #fc4856;
      }

      .cls-10 {
        fill: #fac600;
      }

      .cls-16 {
        clip-path: url(#clippath);
      }

      .cls-11 {
        fill: #fa2c3a;
      }

      .cls-12 {
        fill: #fed402;
      }

      .cls-13 {
        fill: #fccc56;
      }

      .cls-14 {
        fill: #fff;
      }

      .cls-15 {
        fill: #f36903;
      }
    </style>
    <clipPath id="clippath">
      <path class="cls-6" d="M439.45,8.09l13.43,24.79c.56,1.04,1.82,1.5,2.92,1.06l26.22-10.36c1.73-.68,3.53.83,3.15,2.65l-5.65,27.63c-.24,1.16.43,2.32,1.55,2.69l26.75,8.92c1.76.59,2.17,2.9.72,4.06l-22.09,17.53c-.93.74-1.16,2.05-.54,3.06l14.76,24.03c.97,1.58-.2,3.62-2.06,3.57l-28.19-.77c-1.18-.03-2.21.83-2.38,2l-4.14,27.89c-.27,1.84-2.48,2.64-3.87,1.41l-21.1-18.71c-.89-.79-2.22-.79-3.11,0l-21.1,18.71c-1.39,1.23-3.6.43-3.87-1.41l-4.14-27.89c-.17-1.17-1.2-2.03-2.38-2l-28.19.77c-1.86.05-3.03-1.98-2.06-3.57l14.76-24.03c.62-1.01.39-2.32-.54-3.06l-22.09-17.53c-1.46-1.16-1.05-3.47.72-4.06l26.75-8.92c1.12-.37,1.79-1.53,1.55-2.69l-5.65-27.63c-.37-1.82,1.43-3.33,3.15-2.65l26.22,10.36c1.1.44,2.36-.02,2.92-1.06l13.43-24.79c.89-1.64,3.23-1.64,4.12,0Z"/>
    </clipPath>
  </defs>
  <circle class="cls-14" cx="242.6" cy="212.53" r="212.53"/>
  <g>
    <rect class="cls-1" x="12.87" y="177.22" width="179.28" height="195.42" rx="4.76" ry="4.76"/>
    <path class="cls-9" d="M62.9,177.1c-9.87,9.97-19.96,20.53-29.86,30.46l-9.41,9.53.66,39.85,2.77-3.08c24.34-24.35,48.69-48.69,73-73.07.94-.95,2.18-2.27,3.3-3.61l-40.46-.07Z"/>
    <path class="cls-9" d="M23.63,217.1c.01,13.33.03,26.65.04,39.98"/>
    <path class="cls-7" d="M23.67,257.07c.21-.03.42-.07.62-.13.03,16.47.07,32.94.1,49.41q-4.88.3-4.88,5.24c0,12.38,0,24.76,0,37.14,0,4.58.2,4.79,4.86,5.12,0,4.75-.11,9.5.05,14.24.05,1.51.84,3,1.3,4.49-7.07.02-14.13.03-21.2.05-2.96,0-4.52-1.43-4.51-4.45.04-29.19.07-58.38.11-87.58,7.85-7.85,15.7-15.7,23.55-23.55Z"/>
    <path class="cls-7" d="M23.73,216.39c-.03.23-.07.46-.1.7-1.41,1.35-2.84,2.68-4.23,4.04-6.4,6.26-12.79,12.52-19.18,18.78-.07-9.49-.16-18.99-.2-28.48-.03-9.73-.02-19.46,0-29.19,0-3.95,1.21-5.15,5.19-5.15,6.6-.01,13.71.11,20.31.13-.93.47-1.74,1.14-1.77,3.5-.13,10.73-.03,24.94-.02,35.67Z"/>
    <path class="cls-11" d="M.22,239.91c6.39-6.26,12.78-12.53,19.18-18.78,1.39-1.36,3.01-2.82,4.42-4.16.01,13.33.46,26.65.47,39.97-7.85,7.85-16.32,15.83-24.17,23.68.03-13.57.06-27.14.09-40.71Z"/>
    <path class="cls-9" d="M34.81,306.56c4.29-.02,8.58.02,12.86-.1,2.43-.07,3.26,1.02,3.26,3.35-.05,13.45-.07,26.9.01,40.34.02,2.68-1.38,3.47-3.65,3.48-4.17.02-8.34,0-12.51-.02-.22-1.71-.61-3.41-.62-5.12-.05-12.16-.06-24.32,0-36.48,0-1.82.42-3.64.65-5.46Z"/>
    <path class="cls-11" d="M34.81,306.56c-.23,1.82-.64,3.64-.65,5.46-.06,12.16-.06,24.32,0,36.48,0,1.71.4,3.41.62,5.12-3.47.08-6.93.16-10.4.24-4.66-.34-4.86-.54-4.86-5.12,0-12.38,0-24.76,0-37.14q0-4.95,4.88-5.24c3.47.07,6.94.14,10.41.21Z"/>
  </g>
  <g>
    <polygon class="cls-13" points="212.28 61.77 153.78 71.39 153.78 346.01 353.5 346.01 353.53 71.42 295.33 61.81 212.28 61.77"/>
    <path class="cls-5" d="M153.78,71.39c-.03,25.21-.07,50.43-.11,75.64-15.71,6.27-31.46,12.44-47.11,18.86-3.41,1.4-5.03,1-6.39-2.63-7.23-19.34-14.66-38.61-22.09-57.87-.89-2.31-.58-3.8,1.81-4.75,24.38-9.7,48.76-19.42,73.15-29.13.22-.09.49-.08.74-.12Z"/>
    <path class="cls-5" d="M353.73,147.21c-.07-8.21-.18-16.42-.2-24.63-.03-17.05,0-34.11,0-51.16,11.7,4.58,23.41,9.12,35.09,13.74,12.39,4.9,24.75,9.86,37.12,14.8,4.23,1.69,4.49,2.35,2.82,6.74-7.02,18.38-14.03,36.75-21.04,55.13-2.22,5.83-2.41,5.82-8.32,3.44-15.13-6.09-30.31-12.05-45.47-18.06Z"/>
    <path class="cls-8" d="M295.33,61.81c-.43,21.96-17.31,41.19-41.74,41.4-22.55.2-41.8-18.11-41.31-41.44,27.68.01,55.37.02,83.05.03Z"/>
  </g>
  <g>
    <path class="cls-3" d="M166.73,319.06c5.39.68,10.5,2.07,15.89,3.4-1.69,4.62-3.94,9.13-4.94,13.9-1.27,6.07-1.89,12.34-2.13,18.55-.29,7.77.03,15.56.24,23.34.06,2.43.61,4.84.98,7.64,17.39-4.56,34.61-9.08,51.82-13.6,13.24,3.52,26.48,7.06,39.74,10.55,2.94.77,3.65,2.45,2.78,5.27-1.11,3.62-1.9,7.33-2.96,10.96-2.66,9.09-10.98,13.76-20.21,11.3-25.86-6.89-51.69-13.88-77.57-20.67-2.27-.6-4.96-.57-7.24.02-23.24,6.06-46.43,12.3-69.64,18.48-4.7,1.25-5.1.99-6.11-3.62-5.21-23.75,3.55-49.04,20.77-65.87,9.38-9.17,21.35-15.42,34.13-18.27,6.51-1.45,13.21-2.04,19.87-1.76,1.56.06,3.08.2,4.58.39Z"/>
    <path class="cls-5" d="M228.59,372.29c-17.21,4.52-34.42,9.03-51.82,13.6-.37-2.79-.92-5.21-.98-7.64-.21-7.78-.53-15.57-.24-23.34.23-6.21.86-12.48,2.13-18.55,1-4.77,3.24-9.28,4.94-13.9,7.1,3.8,15,7.05,21.46,11.85,8.83,6.56,16.18,16.12,20.42,26.26,1.6,3.81,2.74,7.81,4.09,11.72Z"/>
  </g>
  <g>
    <path class="cls-3" d="M321.35,333.13c3.07-28.23,6.15-56.45,9.2-84.68.64-5.9,2.75-7.96,8.58-7.98,6.11-.02,12.22.02,18.33.03,0,1.74.1,3.5-.04,5.23-.44,5.65-1.16,11.28-1.35,16.93-.08,2.3.37,5.03,1.6,6.87,2.06,3.06,5.61,3.14,8.72,1.73,3.33-1.51,4.53-5.84,3.5-9.66-.64-2.35-1.09-4.81-1.19-7.23-.19-4.6-.06-9.22-.06-13.83,9.66-.07,19.31-.14,28.97-.2,9.81.03,19.62.07,29.44.1,0,5.22.1,10.45-.05,15.67-.05,1.8-.49,3.67-1.17,5.34-1.4,3.43-.63,7.32,2.12,9.3,2.35,1.69,7.02,1.58,9.05-.22,3.05-2.72,3.69-6.27,1.93-9.71-.66-1.28-1.29-2.75-1.32-4.15-.12-5.47,0-10.94.04-16.41,6.35.07,12.71.14,19.06.21,5.18.06,7.29,1.66,7.95,6.86,1.33,10.48,2.41,20.99,3.56,31.5,1.69,15.32,3.36,30.65,5.02,45.97,1.33,12.24,2.63,24.48,3.96,36.71.93,8.53,1.7,17.07,2.86,25.57,1.48,10.92-5.69,19.51-16.73,19.52-43.01.02-86.02-.22-129.02.17-10.81.1-20.77-6.45-18.67-21.75,2.12-15.39,3.48-30.88,5.17-46.33.2-1.85.37-3.7.56-5.55ZM382.39,356.89c1.63-.83,2.43-1.16,3.16-1.62,2.75-1.71,5.65-3.24,8.16-5.25,2.98-2.4,5.46-2.1,8.32.11,2.46,1.89,5.15,3.51,7.87,5.01,1.05.58,2.45.52,3.69.75.21-1.27.79-2.62.55-3.8-.75-3.65-1.8-7.24-2.78-10.84-.58-2.14-.19-3.75,1.73-5.18,3.1-2.3,6.06-4.79,8.91-7.39.77-.7,1.32-2.15,1.19-3.15-.08-.6-1.66-1.33-2.62-1.42-3.59-.36-7.2-.59-10.81-.65-2.81-.05-4.63-.93-5.51-3.88-.99-3.33-2.38-6.55-3.82-9.72-.5-1.1-1.67-1.9-2.54-2.83-.97.97-2.3,1.77-2.85,2.94-1.48,3.15-2.81,6.39-3.83,9.71-.86,2.76-2.59,3.66-5.24,3.76-3.73.14-7.47.34-11.18.71-.97.1-2.58.87-2.62,1.44-.08,1,.56,2.36,1.34,3.07,2.67,2.43,5.45,4.75,8.35,6.9,2.3,1.71,3.07,3.54,2.12,6.4-1.17,3.53-2.07,7.18-2.73,10.84-.21,1.17.67,2.55,1.14,4.1Z"/>
    <path class="cls-1" d="M368.65,240.53c0,4.61-.13,9.23.06,13.83.1,2.43.56,4.88,1.19,7.23,1.03,3.83-.17,8.15-3.5,9.66-3.11,1.41-6.66,1.33-8.72-1.73-1.24-1.84-1.68-4.57-1.6-6.87.19-5.65.91-11.28,1.35-16.93.13-1.73.03-3.49.04-5.23.19-5.45.14-10.92.6-16.35,1.71-20.53,17.64-35.87,38.09-36.88.49-.02.99-.1,1.48-.16,18.33.96,31.34,9.69,37.66,27.02,1.9,5.19,1.76,11.17,2.3,16.81.29,3.08.05,6.21.06,9.31-.03,5.47-.16,10.95-.04,16.41.03,1.4.66,2.87,1.32,4.15,1.76,3.44,1.13,6.99-1.93,9.71-2.03,1.8-6.7,1.92-9.05.22-2.75-1.98-3.51-5.88-2.12-9.3.68-1.67,1.12-3.54,1.17-5.34.15-5.22.05-10.45.05-15.67,0-5.22.21-10.45,0-15.67-.61-14.84-14.51-27.46-29.43-26.9-6.09-.33-11.58,1.59-16.42,5.04-12.63,9-14.24,20.54-12.55,37.63Z"/>
    <path class="cls-9" d="M382.39,356.89c-.46-1.55-1.35-2.92-1.14-4.1.67-3.66,1.56-7.31,2.73-10.84.95-2.85.18-4.68-2.12-6.4-2.9-2.15-5.68-4.47-8.35-6.9-.79-.72-1.43-2.07-1.34-3.07.05-.57,1.66-1.34,2.62-1.44,3.71-.37,7.45-.58,11.18-.71,2.65-.1,4.38-1,5.24-3.76,1.03-3.32,2.36-6.56,3.83-9.71.55-1.17,1.88-1.97,2.85-2.94.87.94,2.04,1.73,2.54,2.83,1.44,3.17,2.83,6.39,3.82,9.72.88,2.95,2.69,3.83,5.51,3.88,3.61.07,7.22.3,10.81.65.96.1,2.54.82,2.62,1.42.14,1-.42,2.45-1.19,3.15-2.85,2.6-5.81,5.09-8.91,7.39-1.93,1.43-2.32,3.04-1.73,5.18.98,3.6,2.02,7.19,2.78,10.84.24,1.18-.34,2.53-.55,3.8-1.24-.23-2.64-.17-3.69-.75-2.72-1.5-5.41-3.12-7.87-5.01-2.87-2.21-5.35-2.51-8.32-.11-2.51,2.02-5.41,3.54-8.16,5.25-.73.45-1.53.79-3.16,1.62Z"/>
  </g>
  <g>
    <g class="cls-16">
      <rect class="cls-12" x="368.15" y="4.29" width="145.89" height="145.89"/>
      <path class="cls-10" d="M415.23,27.83s-19,38.84,0,68.61c19,29.76,52.56,34.83,52.56,34.83l-1.27,28.92-99.21,1.06-6.33-101.96,24.49-41.37,29.76,9.92Z"/>
    </g>
    <rect class="cls-4" x="412.69" y="53.12" width="48.55" height="10.13" rx="5.07" ry="5.07"/>
    <rect class="cls-4" x="413.96" y="92.59" width="46.02" height="10.13" rx="5.07" ry="5.07"/>
    <rect class="cls-4" x="406.57" y="73.59" width="60.8" height="10.13" rx="5.07" ry="5.07"/>
  </g>
  <g>
    <path class="cls-2" d="M133.32,249.22c2.72-5,5.35-10.04,8.2-14.96.52-.89,2.77-4.78,3.91-4.77,1.05.01,3.36,4.02,3.85,4.91,2.14,3.93,3.83,8.11,6.1,11.96.8,1.35,2.62,2.6,4.18,2.9,5.24,1.04,10.59,1.55,15.86,2.46,1.19.21,2.66,1.01,3.19,1.98.33.6-.63,2.26-1.41,3.06-3.65,3.74-7.36,7.45-11.23,10.97-1.89,1.72-2.44,3.48-1.95,5.94.99,5,1.83,10.04,2.56,15.09.18,1.23.06,3.38-.55,3.64-1.1.47-2.85.18-4.03-.39-4.59-2.22-9.04-4.72-13.59-7.02-1.19-.6-2.54-.87-3.82-1.29.64-4.25.94-8.58,2.01-12.72,1.31-5.1.91-9.15-3.67-12.62-3.5-2.65-6.42-6.07-9.6-9.15Z"/>
    <path class="cls-15" d="M133.32,249.22c3.18,3.08,6.1,6.5,9.6,9.15,4.57,3.46,4.98,7.51,3.67,12.62-1.06,4.14-1.37,8.47-2.01,12.72-5.56,3-11.09,6.04-16.7,8.93-.83.43-2.44.59-2.96.1-.74-.69-1.24-2.17-1.1-3.2.67-4.78,1.44-9.56,2.51-14.26.76-3.33.4-5.85-2.39-8.24-3.86-3.31-7.39-7.02-10.95-10.67-2.12-2.17-1.44-4.25,1.53-4.68,6.25-.91,12.53-1.65,18.8-2.46Z"/>
  </g>
</svg>