<?xml version="1.0" encoding="UTF-8"?>
<svg id="Layer_1" data-name="Layer 1" xmlns="http://www.w3.org/2000/svg" viewBox="0 0 231.04 537.19">
  <defs>
    <style>
      .cls-1 {
        fill: #000;
        stroke-width: 0px;
      }
    </style>
  </defs>
  <path class="cls-1" d="M205.22,379.38c-5.98-1.05-10.77-1.27-15.11-2.76-16.18-5.58-27.77-16.15-33.23-32.67-.75-2.28-.1-5.03-.1-7.57.55-.11,1.11-.22,1.66-.34,1.54,2.78,3.08,5.56,4.98,8.99,3.16-7.6,4.17-14.67,3.69-21.99-1.41-21.5-7.77-41.74-15.65-61.59-.63-1.58-1.49-3.07-2.57-5.26-1.77,3.21-3.26,5.72-4.57,8.31-8,15.74-19.87,28.78-29.98,43.05-13.86,19.56-27.55,39.24-41.08,59.03-12.43,18.19-14.78,38.04-8.8,59.06.31,1.1.39,2.27-.05,3.53-10.93-12.05-11.18-26.29-7.82-41.28-.32-.12-.65-.24-.97-.36-1.25,1.76-2.42,3.59-3.78,5.26-5.75,7.1-11.11,14.59-17.47,21.11-7.42,7.62-15.35,8.23-23.93,3.45-8.36-4.65-11.74-14.06-10.01-23.3.67-3.55,4.15-6.59,6.43-9.8.61-.86,1.57-1.46,2.27-2.27,24.56-28.3,49.08-56.64,73.71-84.88,2.18-2.5,2.54-4.12.57-7.17-7.75-11.98-12.41-25.17-12.62-39.53-.2-13.78,3.9-25.33,19.18-30.29-1.06-2.37-1.76-4.69-3.09-6.56-.53-.73-2.63-.92-3.74-.55-3.56,1.2-7.11,2.55-10.45,4.27-2.96,1.52-5.16.52-7.92-.62-5.01-2.07-10.23-4.11-15.54-4.81-4.99-.66-6.9,2.43-6.02,7.51.52,2.98.99,5.97,1.49,8.96-.39.24-.78.49-1.17.73-1.14-1.07-2.69-1.95-3.33-3.26-1.94-3.99-3.83-8.05-5.17-12.27-1.63-5.17,1.4-8.95,6.9-8.5,4.67.38,9.63.74,13.84,2.55,11.46,4.95,21.43,1.24,31.61-3.72,15.73-7.65,28.57-19.17,41.74-30.3.29-.25.45-.66.85-1.28-4.98-4.69-11.36-6.59-17.62-8.34-13.01-3.65-25.26.57-32.25,11.42-2.3,3.57-2.92,8.24-4.13,12.46-.46,1.62-.43,3.37-.62,5.07-.49.16-.98.31-1.47.47-1.05-2.23-2.56-4.36-3.05-6.71-2.23-10.53,2.55-20.63,11.96-25.97,15.66-8.89,39.39-4.28,51.08,6.59,1.16,1.07,2.42,2.03,3.58,3,7.5-6.64,16.1-7.09,20.92-1.34,5.14,6.13,5.42,16.85-.06,21.28-.24-1.85-.24-3.37-.65-4.76-1.1-3.65-2.01-7.42-3.7-10.79-1.46-2.91-4.68-4.19-7.61-2.67-1.78.92-2.94,3.36-3.96,5.34-.69,1.35-.64,3.08-1.11,5.64-2.83-3.63-5.16-6.61-6.48-8.3-5.59,4.76-10,8.67-14.58,12.37-7.42,5.99-14.79,12.08-22.53,17.64-3.2,2.3-4.56,3.76-2.61,7.86,3.57,7.51,6.35,15.39,9.74,23.83,1.33-4.74-.34-9.75,2.94-13.19.42.07.84.14,1.26.21v18.22c.46.22.91.43,1.37.65,2.28-3.42,4.94-6.66,6.74-10.32,1.5-3.06,3-4.6,6.69-5.04,4.92-.59,9.68-2.54,14.51-3.9-.03-.49-.06-.98-.09-1.47-5.27-1.62-10.53-3.24-15.8-4.86-.03-.35-.06-.7-.09-1.05.84-.35,1.68-1.02,2.52-1,2.82.06,5.87-.26,8.41.69,4.94,1.85,7.21-.24,9.25-4.35,4.21-8.47,11.03-14.05,19.93-17.28,1.46-.53,2.66-2.17,3.64-3.54,6.03-8.43,11.95-16.95,17.94-25.4,1.09-1.54,2.34-2.96,3.57-4.39,2.47-2.88,5.6-3.86,9.06-2.29,3.79,1.72,5.16,4.8,3.58,9.13-3,8.19-6.41,16.24-9.74,24.31-.97,2.36-2.21,4.6-3.16,6.56,19.32,18.15,26.02,41.23,27.28,66.65-.37-.69-.85-1.35-1.11-2.09-4-11.45-7.67-23.02-12.04-34.32-3.8-9.82-9.36-18.68-19.1-23.76-8.55-4.46-17.26-4.96-25.53.96-8.46,6.06-11.98,14.65-9.45,24.43,2.65,10.23,6.88,20.06,10.63,29.98,8,21.16,14.86,42.6,13.72,65.6-.35,7.04-1.92,14.06-3.37,21-.53,2.54-.61,4.35,1.46,6.06,6.01,4.97,11.82,10.2,18,14.96,4.17,3.21,7.48,2.37,10.4-2.06,11.68-17.66,17.29-37.34,18.52-58.26.62-10.61.2-21.27.28-31.91,0-.84.19-1.67,1.27-2.7.9,2.42,2.25,4.77,2.64,7.27,2.33,14.81,3.46,29.7,2.61,44.72-1.63,28.65-8.79,55.77-22.18,81.19-4.14,7.85-7.62,16.16-12.61,23.43-8.67,12.63-17.9,24.91-27.56,36.79-19.51,23.98-43.32,42.96-70.08,58.29-6.07,3.48-12.15,7.02-18.51,9.91-11.35,5.16-19.63,3.57-27.86-4.96-14.88-15.43-27.44-32.65-34.59-53.14-1.33-3.81-1.03-8.49-.41-12.61.61-4.02,3.27-4.91,6.97-3.11,4.83,2.35,8.81,5.64,10.99,10.78,1.67,3.92,3.63,6.86,8.92,7.18,4.53.27,8.93,2.74,14.15,4.49-1.19-3.67-2.1-6.92-3.29-10.06-3.31-8.69-6.77-17.32-10.11-26-1.41-3.66-.64-5.17,3.24-6.2,2.46-.65,5.01-1.02,7.53-1.44,17-2.82,30.47-12,41.68-24.38,13.69-15.12,21.44-33.78,29.16-52.35.36-.87.7-1.75,1.07-2.62.04-.09.21-.11.32-.17,2.46,10.29-9.89,42.04-22.46,56.44-13.79,15.79-29.3,29.04-52.5,30.84,3.37,12.38,6.47,24.16,9.86,35.86.47,1.61,2.07,3.38,3.6,4.1,8.64,4.08,17.32,8.09,26.18,11.65,5.58,2.25,12.85-.28,15.09-4.49,3.03-5.7,1.95-11.37-3.79-15.75-5.21-3.98-10.9-7.33-16.65-11.14.69-.21,1.39-.68,1.97-.56,10.03,2.14,18.42,7,23.47,16.13,3.08,5.56,2.68,11.55-1.34,16.78-4.15,5.41-9.88,7.59-16.47,6.23-4.57-.94-9.17-2.4-13.35-4.45-10.51-5.14-20.77-10.78-31.19-16.1-1.58-.8-3.49-.96-6.13-1.64,1.4,3.23,2.38,5.82,3.61,8.28,5.81,11.54,11.65,23.07,17.58,34.55,2.21,4.29,4.45,4.96,8.91,2.91,26.82-12.3,50.98-28.18,71.22-50.08,18.81-20.36,36.69-41.34,50.39-65.5,6.15-10.84,11.07-22.39,16.87-34.28ZM35.46,400.8c1.29-1.5,2.58-2.84,3.68-4.32,14.62-19.51,29.48-38.85,43.75-58.61,20.44-28.28,40.46-56.86,60.59-85.37.75-1.06,1.34-2.82,1-3.96-1.35-4.54-3.1-8.95-4.82-13.76-.72.84-1.18,1.31-1.57,1.83-7.04,9.5-13.74,19.28-21.17,28.47-18.87,23.37-37.75,46.74-57.23,69.6-16.59,19.48-34.07,38.19-50.96,57.42-1.67,1.9-2.83,5.04-2.76,7.56.24,8.1,4.78,12.95,12.78,14.09,1.74.25,4.09-.47,5.47-1.59,5.64-4.57,3.98-16.02-2.58-19.34-.77-.39-1.45-.94-2.93-1.93,8.55-.47,12.91,2.26,16.74,9.9ZM88.8,290.51c7.11-8.94,13.83-17.31,20.41-25.79.55-.7.56-2.3.16-3.18-4.77-10.51-9.76-20.91-14.49-31.44-1.52-3.39-3.23-3.66-6.14-1.68-8.11,5.55-12.23,13.41-10.5,22.84,2.27,12.35,6.02,24.44,9.16,36.63.16.62.6,1.16,1.39,2.61ZM170.68,193.05c3.92.73,7.23,1.4,10.57,1.9.43.06,1.19-.66,1.45-1.19,4.08-8.45,8.22-16.88,11.99-25.47.51-1.16-.98-3.18-1.54-4.81-1.48.61-3.59.79-4.34,1.9-6.09,8.97-11.92,18.12-18.13,27.67ZM136.95,228.45c-4.89,1.06-8.57,1.76-12.18,2.71-1,.26-2.2,1.08-2.63,1.97-2.59,5.35-6.3,9.65-11.21,12.98-.68.46-1.61,1.6-1.45,2.11,1.12,3.55,2.5,7.01,3.8,10.51.46-.06.93-.13,1.39-.19,7.25-9.78,14.49-19.56,22.29-30.09Z"/>
  <path class="cls-1" d="M205.84,168.66c-.93-4.54-1.08-9.04-2.82-12.82-2.38-5.17-7.15-4.11-11.65-2.24,1.93-7.12,8.92-7.68,16.07-1.35,1.32-5.14.79-10.01-1.1-14.67-1.14-2.81-5.5-3.52-8.4-.95-2.95,2.62-5.63,5.83-7.55,9.27-2.67,4.78-4.52,10.01-6.72,15.06q-3.2-1.34,1.49-17.58c-4.16-.4-8.23-.99-12.31-1.16-17.94-.75-30.7-10.15-39.7-24.77-7.16-11.63-4.3-23.79,1.17-35.18,4.89-10.19,13.92-17.01,22.06-24.46,3.97-3.63,8.18-7.07,11.77-11.06,9.09-10.11,8.27-27.81-1.62-37.07-5.09-4.77-11.45-6.91-18.3-7.7-.91-.11-1.83-.16-2.71-.56,6.81-2.97,13.26-.85,19.22,2.22,12.56,6.49,19,21,15.2,34.57-1.06,3.79-3.91,7.28-6.56,10.37-6.75,7.86-14.16,15.17-20.73,23.17-6.93,8.44-11.62,18.16-13.17,29.12-1.42,9.97,2.17,18.36,9.44,24.9,4.33,3.9,9.47,6.94,14.39,10.15,1.35.88,3.23.98,5.58,1.63-3.73-4.84-7.2-8.81-10.06-13.2-3.03-4.65-3.94-9.87-2-16.18.77,1.3,1.33,1.87,1.47,2.52,3.1,14.65,13.38,21.71,26.79,25.59,3.05.88,5.57,1.06,7.97-1.65,1.37-1.54,3.47-2.56,5.4-3.45,5.34-2.47,10.42-2.93,14.46,4.05,10.34-25.58,11.23-50.44,4.46-75.81-7.02-26.31-26.2-42.8-47.34-57.72.33-.49.65-.98.98-1.47,4.49,1.95,9.26,3.45,13.43,5.94,11.57,6.91,21.63,15.66,29.27,26.85,2.78,4.07,4.78,8.7,6.95,13.17,8.99,18.57,12.3,38.01,9.31,58.54-1.32,9.03-3.93,17.59-7.74,25.81-.82,1.78-2.03,3.82-3.63,4.72-3.98,2.21-4.28,5.43-4.92,9.54-1.14,7.36-3.83,14.48-5.99,21.66-.27.89-1.29,1.56-1.84,2.2Z"/>
  <path class="cls-1" d="M196.84,498.41c-1.41,1.19-2.85,2.33-4.22,3.57-8.27,7.44-18.16,12-28.43,15.83-1.06.39-3.14.15-3.72-.6-5.44-6.99-10.76-14.09-15.84-21.35-.94-1.35-.65-3.57-.92-5.39,1.61.22,3.82-.15,4.74.77,5.18,5.18,10.06,10.66,15,16.09.7.77,1.12,1.78,1.91,3.06,2.37-1.21,4.78-2.11,6.83-3.54,17.91-12.52,33.26-27.4,42.77-47.48.48-1.01.46-2.67-.05-3.66-4.49-8.74-10.42-16.29-18.56-22.01-.95-.67-1.25-2.28-1.84-3.45,1.37-.12,2.97-.75,4.09-.27,6.67,2.84,12.32,6.94,16.67,12.97,4.6,6.38,6.58,12.75,5.58,20.98-2.3,19.04-6.14,37.51-14.77,54.74-4.09,8.16-10.14,14.77-18.86,17.91-2.94,1.06-7.07.74-9.95-.54-2.86-1.27-3.34-7-1.02-10.7,2.9-4.63,6.5-8.86,10.02-13.07,3.69-4.41,7.66-8.58,11.5-12.86-.31-.33-.62-.66-.94-.99Z"/>
  <path class="cls-1" d="M134.95,344.03c-9.78-2.48-18.98.14-28.22,2.68-1.24.34-2.76-.3-4.15-.49.35-1.49.43-3.12,1.12-4.43.59-1.11,1.74-2.34,2.89-2.68,7.68-2.25,15.42-4.23,23.01.4,1.88,1.15,3.81,2.22,5.72,3.32-.13.4-.25.8-.38,1.2Z"/>
  <path class="cls-1" d="M91.41,172.08c6.19-2.28,12.03-2.36,17.72.35,1,.48,2.02,2.5,1.79,3.55-.23,1.08-1.84,2.24-3.08,2.61-1.13.34-2.68-.06-3.85-.58-4.02-1.77-7.96-3.73-12.59-5.93Z"/>
</svg>