<?xml version="1.0" encoding="UTF-8"?>
<svg id="Layer_1" data-name="Layer 1" xmlns="http://www.w3.org/2000/svg" xmlns:xlink="http://www.w3.org/1999/xlink" viewBox="0 0 1105.74 93.76">
  <defs>
    <style>
      .cls-1 {
        fill: #33a9dc;
      }

      .cls-1, .cls-2, .cls-3, .cls-4, .cls-5, .cls-6, .cls-7, .cls-8, .cls-9, .cls-10, .cls-11, .cls-12, .cls-13, .cls-14, .cls-15, .cls-16, .cls-17, .cls-18, .cls-19, .cls-20 {
        stroke-width: 0px;
      }

      .cls-2 {
        fill: #31a8ff;
      }

      .cls-3 {
        fill: #222;
      }

      .cls-4 {
        fill: url(#linear-gradient);
      }

      .cls-5 {
        fill: #000;
      }

      .cls-6 {
        fill: #1572b6;
      }

      .cls-7 {
        fill: #001e36;
      }

      .cls-8 {
        fill: #e44d26;
      }

      .cls-9 {
        fill: #131313;
      }

      .cls-10 {
        fill: #300;
      }

      .cls-11 {
        fill: #00005b;
      }

      .cls-12 {
        fill: #ebebeb;
      }

      .cls-13 {
        fill: #ff9a00;
      }

      .cls-14 {
        fill: #ff4000;
      }

      .cls-15 {
        fill: #99f;
      }

      .cls-21 {
        fill: url(#linear-gradient-2);
        stroke: #fff;
      }

      .cls-16 {
        fill: #ff9800;
      }

      .cls-17 {
        fill: #f16529;
      }

      .cls-18 {
        fill: #1976d2;
      }

      .cls-19 {
        fill: #fff;
      }

      .cls-20 {
        fill: #f7df1e;
      }
    </style>
    <linearGradient id="linear-gradient" x1="1021.38" y1="590.33" x2="1102.11" y2="526.24" gradientTransform="translate(0 613.82) scale(1 -1)" gradientUnits="userSpaceOnUse">
      <stop offset="0" stop-color="#9013fe"/>
      <stop offset="1" stop-color="#6610f2"/>
    </linearGradient>
    <linearGradient id="linear-gradient-2" x1="1046.21" y1="577.59" x2="1064.25" y2="547.07" gradientTransform="translate(0 613.82) scale(1 -1)" gradientUnits="userSpaceOnUse">
      <stop offset="0" stop-color="#fff"/>
      <stop offset="1" stop-color="#f1e5fc"/>
    </linearGradient>
  </defs>
  <g>
    <path class="cls-11" d="M360.47,15.11h49.37c7.48,0,13.54,6.05,13.54,13.54v47.46c0,7.48-6.05,13.54-13.54,13.54h-49.37c-7.48,0-13.54-6.05-13.54-13.54V28.65c0-7.48,6.05-13.54,13.54-13.54Z"/>
    <path class="cls-15" d="M383.5,61.39v5.29c.03.32-.13.61-.41.73-.99.35-1.97.57-3.03.7-1.34.16-2.68.22-4.01.22-1.91,0-3.82-.22-5.67-.7-1.72-.45-3.38-1.15-4.9-2.1-1.47-.92-2.74-2.1-3.79-3.47-1.08-1.43-1.94-3.06-2.45-4.78-.61-2.01-.89-4.08-.86-6.15,0-3.44.76-6.5,2.26-9.11,1.5-2.61,3.73-4.75,6.4-6.12,3.06-1.56,6.47-2.36,9.91-2.29,1.34,0,2.64.06,3.98.19.92.1,1.82.32,2.71.61.19.16.29.38.25.61v5.76c0,.32-.13.41-.35.32-.96-.45-2.01-.76-3.06-.92-1.24-.19-2.48-.29-3.76-.29-2.07-.03-4.11.45-5.89,1.43-1.59.89-2.93,2.2-3.79,3.82-.92,1.78-1.37,3.76-1.34,5.76-.03,1.43.19,2.83.64,4.2.38,1.15.99,2.2,1.78,3.12.7.86,1.59,1.56,2.55,2.1.96.51,1.97.89,3.06,1.15,1.02.29,2.1.45,3.15.48,1.15,0,2.33-.03,3.47-.16.96-.13,1.88-.35,2.77-.7.13-.1.22-.13.32-.06.06.1.1.22.06.35Z"/>
    <path class="cls-15" d="M395.28,49.28v17.96c0,.29-.13.41-.35.41h-6.4c-.22.03-.41-.13-.45-.35V31.8c0-.22.13-.35.41-.35h6.47c.16-.03.35.1.35.25v.1l.03,12.1c.92-.61,1.91-1.11,2.96-1.5,1.08-.38,2.33-.48,3.76-.48,1.02,0,2.04.16,2.99.45,1.02.29,1.97.8,2.8,1.5.86.76,1.47,1.82,1.97,3.12.51,1.31.76,3.03.76,5.1v15.1c0,.32-.13.45-.41.45h-6.02c-.25.03-.48-.13-.51-.38v-14.46c.03-.92-.13-1.85-.48-2.71-.29-.64-.73-1.21-1.34-1.62-.7-.41-1.53-.61-2.36-.57-.76,0-1.53.1-2.26.32-.7.29-1.37.64-1.94,1.08Z"/>
  </g>
  <g>
    <path class="cls-11" d="M246.45,15.17h49.37c7.48,0,13.54,6.05,13.54,13.54v47.46c0,7.48-6.05,13.54-13.54,13.54h-49.37c-7.48,0-13.54-6.05-13.54-13.54V28.71c0-7.48,6.05-13.54,13.54-13.54Z"/>
    <path class="cls-15" d="M263.62,59.76h-11.85l-2.42,7.52c-.06.29-.32.48-.61.45h-5.99c-.35,0-.45-.19-.35-.57l10.26-29.4c.1-.32.19-.61.32-.99.13-.67.19-1.37.19-2.07-.03-.16.1-.32.25-.35h8.25c.22,0,.38.1.41.25l11.63,32.65c.1.35,0,.51-.32.51h-6.66c-.22.03-.45-.13-.51-.35l-2.61-7.64ZM253.62,53.42h8.09c-.19-.67-.45-1.47-.73-2.29-.29-.86-.57-1.78-.86-2.74-.32-.99-.61-1.94-.92-2.93s-.61-1.91-.86-2.83c-.25-.89-.48-1.72-.7-2.48h-.06c-.29,1.37-.64,2.74-1.08,4.11-.48,1.53-.96,3.12-1.47,4.71-.41,1.62-.92,3.12-1.4,4.46ZM292.6,56.83h-10.1c.13.99.45,1.97.99,2.83.57.86,1.37,1.53,2.33,1.91,1.27.54,2.68.83,4.08.8,1.11-.03,2.23-.13,3.31-.35.99-.13,1.94-.38,2.83-.73.16-.13.25-.06.25.25v4.87c0,.13-.03.25-.06.38-.06.1-.13.16-.22.22-1.02.45-2.07.76-3.18.96-1.5.29-2.99.41-4.52.38-2.42,0-4.46-.38-6.12-1.11-1.56-.67-2.93-1.72-4.01-3.03-1.02-1.24-1.75-2.64-2.2-4.17-.45-1.5-.67-3.06-.67-4.65,0-1.72.25-3.41.8-5.06.51-1.59,1.31-3.06,2.39-4.36,1.05-1.27,2.36-2.29,3.85-3.03,1.5-.73,3.28-.99,5.32-.99,1.69-.03,3.38.29,4.94.99,1.31.57,2.45,1.43,3.34,2.55.83,1.08,1.5,2.29,1.91,3.63.41,1.27.61,2.58.61,3.89,0,.76-.03,1.43-.06,2.04-.06.61-.1,1.05-.13,1.34-.03.22-.22.41-.45.41-.19,0-.54.03-1.05.06-.51.06-1.11.1-1.85.1s-1.5-.13-2.33-.13h0ZM282.51,52.18h6.72c.83,0,1.43,0,1.82-.03.25-.03.51-.1.73-.25v-.32c0-.41-.06-.8-.19-1.18-.57-1.78-2.26-2.99-4.14-2.93-1.75-.1-3.41.83-4.24,2.42-.38.73-.61,1.5-.7,2.29Z"/>
  </g>
  <g>
    <rect class="cls-10" x="116.37" y="15.17" width="77.1" height="74.53" rx="13.49" ry="13.49"/>
    <path class="cls-13" d="M155.17,61.43h-11.5l-2.97,8.57c-.03.28-.21.42-.54.42h-5.4c-.36,0-.49-.18-.38-.53l10.41-30.93c.29-.94.44-1.92.43-2.91-.02-.16.09-.3.25-.32.03,0,.05,0,.08,0h7.56c.22,0,.34.09.38.26l11.65,33.96c.11.32.02.48-.27.48h-6.04c-.23.01-.44-.11-.54-.32l-3.13-8.67ZM144.96,55.65h8.96c-.22-.47-4.24-13.47-4.53-14.57h-.05l-4.37,14.57ZM171.59,42.16c-1.02.04-2.02-.33-2.77-1.03-.73-.74-1.11-1.76-1.06-2.79-.05-1.05.35-2.08,1.09-2.82.75-.71,1.76-1.1,2.79-1.06,1.04-.05,2.05.33,2.79,1.06.71.76,1.08,1.78,1.03,2.82.05,1.04-.33,2.05-1.06,2.79-.76.71-1.78,1.08-2.82,1.03ZM168.41,69.94v-24.79c-.03-.21.11-.4.32-.43.04,0,.07,0,.11,0h5.56c.21-.03.4.12.43.33,0,.03,0,.07,0,.1v24.84c.03.21-.11.4-.32.43-.04,0-.07,0-.11,0h-5.51c-.23.03-.45-.13-.48-.36,0-.04,0-.08,0-.12Z"/>
  </g>
  <g id="Layer_2" data-name="Layer 2">
    <g id="Surfaces">
      <g id="Photo_Surface" data-name="Photo Surface">
        <g id="Outline_no_shadow" data-name="Outline no shadow">
          <path class="cls-7" d="M13.44,14.36h49.03c7.43,0,13.44,6.01,13.44,13.44v47.13c0,7.43-6.01,13.44-13.44,13.44H13.44c-7.43,0-13.44-6.01-13.44-13.44V27.81c0-7.43,6.01-13.44,13.44-13.44Z"/>
        </g>
      </g>
    </g>
    <g id="Outlined_Mnemonics_Logos" data-name="Outlined Mnemonics Logos">
      <g id="Ps">
        <path class="cls-2" d="M17.08,66.27v-32.55c0-.22.09-.35.32-.35.54,0,1.04,0,1.77-.03.76-.03,1.55-.03,2.4-.06.85-.03,1.77-.03,2.75-.06.98-.03,1.93-.03,2.88-.03,2.59,0,4.74.32,6.52.98,1.58.54,3.04,1.42,4.24,2.59,1.01,1.01,1.8,2.25,2.31,3.61.47,1.33.73,2.69.73,4.11,0,2.72-.63,4.97-1.9,6.74-1.27,1.77-3.04,3.1-5.09,3.86-2.15.79-4.52,1.08-7.12,1.08-.76,0-1.27,0-1.58-.03s-.76-.03-1.36-.03v10.15c.03.22-.13.41-.35.44h-6.14c-.25,0-.38-.13-.38-.41ZM23.98,39.48v10.63c.44.03.85.06,1.23.06h1.68c1.23,0,2.47-.19,3.64-.57,1.01-.28,1.9-.89,2.59-1.68.66-.79.98-1.87.98-3.26.03-.98-.22-1.96-.73-2.82-.54-.82-1.3-1.46-2.21-1.8-1.17-.47-2.44-.66-3.73-.63-.82,0-1.55,0-2.15.03-.63-.03-1.08,0-1.3.03h0Z"/>
        <path class="cls-2" d="M60.73,48.18c-.95-.51-1.96-.85-3.04-1.08-1.17-.25-2.34-.41-3.54-.41-.63-.03-1.3.06-1.9.22-.41.09-.76.32-.98.63-.16.25-.25.57-.25.85s.13.57.32.82c.28.35.66.63,1.08.85.73.38,1.49.73,2.25,1.04,1.71.57,3.35,1.36,4.87,2.31,1.04.66,1.9,1.55,2.5,2.63.51,1.01.76,2.12.73,3.26.03,1.49-.41,2.97-1.23,4.21-.89,1.27-2.12,2.25-3.54,2.82-1.55.66-3.45,1.01-5.73,1.01-1.46,0-2.88-.13-4.3-.41-1.11-.19-2.21-.54-3.23-1.01-.22-.13-.38-.35-.35-.6v-5.5c0-.09.03-.22.13-.28.09-.06.19-.03.28.03,1.23.73,2.53,1.23,3.92,1.55,1.2.32,2.47.47,3.73.47s2.06-.16,2.63-.44c.51-.22.85-.76.85-1.33,0-.44-.25-.85-.76-1.27-.51-.41-1.55-.89-3.1-1.49-1.61-.57-3.1-1.33-4.49-2.28-.98-.7-1.8-1.61-2.4-2.69-.51-1.01-.76-2.12-.73-3.23,0-1.36.38-2.66,1.08-3.83.79-1.27,1.96-2.28,3.32-2.91,1.49-.76,3.35-1.11,5.6-1.11,1.3,0,2.63.09,3.92.28.95.13,1.87.38,2.72.73.13.03.25.16.32.28.03.13.06.25.06.38v5.16c0,.13-.06.25-.16.32-.28.06-.44.06-.57,0Z"/>
      </g>
    </g>
  </g>
  <g>
    <path class="cls-18" d="M521.03,43.84h-.1c-3.24,0-6.2,1.16-8.48,3.06-2.3,1.94-3.82,4.68-3.99,7.78h0c-.17,3.19,1.11,6.14,3.35,8.34,2.37,2.26,5.56,3.64,9.09,3.64h.26c3.52,0,6.72-1.38,9.08-3.64,2.25-2.2,3.53-5.16,3.35-8.35-.17-3.1-1.69-5.84-3.99-7.77-2.41-2-5.45-3.08-8.58-3.06Z"/>
    <path class="cls-16" d="M545.6,76.98c2.76-3.02,4.85-6.61,6.11-10.5l.06-.21c.83-2.62,1.25-5.35,1.24-8.09,0-5.17-1.47-10.23-4.22-14.61-1.89-3.01-4.29-5.67-7.1-7.86l-.07-.05h0l-29.15-22.38c-1.91-1.47-5.11-1.46-7.21,0-2.12,1.48-2.36,3.94-.48,5.49h0s12.12,9.86,12.12,9.86l-37,.04c-3.06,0-5.99,2.01-6.57,4.54-.6,2.58,1.47,4.72,4.65,4.73h0s18.73-.03,18.73-.03l-33.55,25.75c-3.15,2.41-4.17,6.43-2.18,8.97,2.02,2.59,6.3,2.59,9.49.02l18.24-14.92s-.27,2.02-.24,3.22h0c.02,1.21.41,3.57.99,5.42,1.26,3.98,3.37,7.63,6.2,10.71,2.96,3.25,6.57,5.86,10.58,7.66l.2.08c4.4,1.96,9.17,2.96,13.99,2.95h.27c5.04,0,9.82-1.08,14.15-3.01,4.07-1.82,7.73-4.45,10.74-7.75,0,0,.02-.03.02-.03ZM539.33,61.43c-.87,2.35-2.24,4.49-4,6.27h0c-3.76,3.83-9.02,6.01-14.71,6.01-5.7.02-10.96-2.14-14.72-5.96-1.75-1.75-3.1-3.86-3.98-6.17l-.04-.12c-.65-1.8-.98-3.7-.98-5.61,0-2.92.76-5.65,2.07-8.04,1.13-2.03,2.63-3.82,4.43-5.28l.03-.03c3.65-2.98,8.3-4.59,13.17-4.59,4.87,0,9.52,1.59,13.17,4.56,1.86,1.52,3.37,3.31,4.47,5.3,1.08,1.91,1.8,4.16,2.02,6.55v.06c.22,2.39-.1,4.8-.93,7.06Z"/>
  </g>
  <g>
    <g>
      <rect class="cls-3" x="588.58" y="15.38" width="74.1" height="74.1" rx="6.3" ry="6.3"/>
      <rect class="cls-3" x="588.58" y="15.38" width="74.1" height="74.1" rx="6.3" ry="6.3"/>
    </g>
    <g id="i">
      <path class="cls-14" d="M611.08,26c.18,5.41,3.92,8.41,11.39,9.58,6.33.99,12.04.49,13.9-4.94,3.63-10.57-4.99-7.94-12.45-9.12-7.47-1.17-13.13-4.22-12.84,4.47Z"/>
      <path class="cls-14" d="M613.33,48.22c.69,4.04,4.46,6.35,10.22,6.2,5.76-.16,10.06-2.41,10.66-6.77,1.1-8.07-5.25-4.95-11.01-4.79-5.76.16-11.23-2.57-9.86,5.36Z"/>
      <path class="cls-14" d="M620.82,66.71c1.14,3.02,4.28,4.29,8.53,3.38,4.24-.9,7.17-2.31,6.93-5.75-.43-6.36-4.62-4.36-8.86-3.45-4.24.9-8.83-.1-6.6,5.82Z"/>
      <path class="cls-14" d="M624.46,80.8c.33,2.55,2.53,4.05,5.98,4.02,3.45-.03,6.06-1.39,6.51-4.12.83-5.05-3.03-3.17-6.48-3.14-3.45.03-6.67-1.76-6.01,3.24Z"/>
    </g>
  </g>
  <g>
    <path class="cls-20" d="M926.03,14.2h48.17c7.81,0,14.13,6.33,14.13,14.13v48.17c0,7.81-6.33,14.13-14.13,14.13h-48.17c-7.81,0-14.13-6.33-14.13-14.13V28.34c0-7.81,6.33-14.13,14.13-14.13Z"/>
    <path class="cls-5" d="M932.47,77.41l5.7-3.45c1.1,1.95,2.1,3.6,4.5,3.6s3.75-.9,3.75-4.4v-23.78h7v23.88c0,7.25-4.25,10.54-10.44,10.54-5.6,0-8.84-2.9-10.49-6.4M957.2,76.66l5.7-3.3c1.5,2.45,3.45,4.25,6.9,4.25,2.9,0,4.75-1.45,4.75-3.45,0-2.4-1.9-3.25-5.1-4.65l-1.75-.75c-5.05-2.15-8.39-4.85-8.39-10.54,0-5.25,4-9.24,10.24-9.24,4.45,0,7.65,1.55,9.94,5.6l-5.45,3.5c-1.2-2.15-2.5-3-4.5-3s-3.35,1.3-3.35,3c0,2.1,1.3,2.95,4.3,4.25l1.75.75c5.95,2.55,9.29,5.15,9.29,10.99,0,6.3-4.95,9.74-11.59,9.74s-10.69-3.1-12.74-7.15"/>
  </g>
  <g>
    <path class="cls-8" d="M771.41,18.39l-6.04,67.65-27.14,7.53-27.07-7.52-6.03-67.66h66.29Z"/>
    <path class="cls-17" d="M738.27,87.81l21.93-6.08,5.16-57.81h-27.1v63.89Z"/>
    <path class="cls-12" d="M726.53,40.52h11.74v-8.29h-20.81l.2,2.23,2.04,22.87h18.57v-8.3h-10.98l-.76-8.5ZM728.4,61.46h-8.33l1.16,13.03,17,4.72h.04v-8.64h-.04s-9.24-2.49-9.24-2.49l-.59-6.62h0Z"/>
    <path class="cls-5" d="M711.29,0h4.22v4.17h3.86V0h4.22v12.62h-4.22v-4.22h-3.86v4.22h-4.22V0ZM729.13,4.18h-3.71V0h11.64v4.18h-3.71v8.43h-4.22V4.18h0ZM738.91,0h4.4l2.7,4.43,2.7-4.43h4.4v12.62h-4.2v-6.25l-2.9,4.49h-.07l-2.9-4.49v6.25h-4.13V0ZM755.21,0h4.22v8.45h5.93v4.17h-10.15V0Z"/>
    <path class="cls-19" d="M738.24,57.31h10.22l-.96,10.76-9.26,2.5v8.63l17.01-4.72.12-1.4,1.95-21.85.2-2.23h-19.29v8.3ZM738.24,40.5v.02h20.04l.17-1.87.38-4.21.2-2.23h-20.79v8.28h0Z"/>
  </g>
  <g>
    <path class="cls-9" d="M861.95,3.66h-5.5l5.72,6.21v2.96h-11.78v-3.46h5.72l-5.72-6.21V.2h11.56v3.46ZM848.05,3.66h-5.5l5.72,6.21v2.96h-11.78v-3.46h5.72l-5.72-6.21V.2h11.56v3.46ZM834.29,3.8h-5.94v5.42h5.94v3.61h-10.16V.2h10.16s0,3.61,0,3.61Z"/>
    <path class="cls-6" d="M816.05,86.24l-6.03-67.66h66.28l-6.04,67.65-27.14,7.53-27.07-7.51Z"/>
    <path class="cls-1" d="M843.16,88.01l21.93-6.08,5.16-57.81h-27.09v63.89Z"/>
    <path class="cls-19" d="M843.15,48.63h10.98l.76-8.5h-11.74v-8.3h20.81l-.2,2.23-2.04,22.87h-18.57v-8.3Z"/>
    <path class="cls-12" d="M843.2,70.18h-.04s-9.24-2.49-9.24-2.49l-.59-6.62h-8.33l1.16,13.03,17,4.72h.04v-8.64h0Z"/>
    <path class="cls-19" d="M853.43,56.58l-1,11.11-9.25,2.5v8.63l17.01-4.71.13-1.4,1.44-16.13h-8.33Z"/>
    <path class="cls-12" d="M843.18,31.84v8.3h-20.04l-.17-1.86-.38-4.21-.2-2.23s20.79,0,20.79,0ZM843.15,48.63v8.3h-9.12l-.17-1.86-.38-4.21-.2-2.23h9.87Z"/>
  </g>
  <path class="cls-4" d="M1022.27,25.59c-.17-5.01,3.73-9.62,9-9.62h54.02c5.27,0,9.17,4.62,9,9.62-.17,4.81.05,11.04,1.62,16.12,1.57,5.09,4.22,8.31,8.57,8.73v4.69c-4.34.41-7,3.63-8.57,8.73-1.57,5.08-1.78,11.31-1.62,16.12.17,5.01-3.73,9.62-9,9.62h-54.02c-5.27,0-9.17-4.62-9-9.62.17-4.81-.05-11.04-1.62-16.12-1.57-5.09-4.23-8.31-8.57-8.73v-4.69c4.34-.41,7-3.63,8.57-8.73,1.57-5.08,1.79-11.31,1.62-16.12Z"/>
  <path class="cls-21" d="M1060.27,72.35c8.53,0,13.68-4.18,13.68-11.07,0-5.21-3.67-8.98-9.12-9.58v-.22c4-.65,7.14-4.37,7.14-8.52,0-5.92-4.67-9.77-11.79-9.77h-16.01v39.16h16.1ZM1050.41,38.16h8.28c4.5,0,7.06,2.01,7.06,5.64,0,3.88-2.97,6.05-8.37,6.05h-6.98v-11.7ZM1050.41,67.39v-12.89h8.23c5.89,0,8.95,2.17,8.95,6.4s-2.97,6.49-8.59,6.49h-8.59Z"/>
</svg>